<?xml version="1.0" encoding="utf-8"?>
<!-- Generator: Adobe Illustrator 16.0.0, SVG Export Plug-In . SVG Version: 6.00 Build 0)  -->
<!DOCTYPE svg PUBLIC "-//W3C//DTD SVG 1.1//EN" "http://www.w3.org/Graphics/SVG/1.1/DTD/svg11.dtd">
<svg version="1.1" id="Layer_1" xmlns="http://www.w3.org/2000/svg" xmlns:xlink="http://www.w3.org/1999/xlink" x="0px" y="0px"
	 width="1050px" height="172px" viewBox="0 0 1050 172" enable-background="new 0 0 1050 172" xml:space="preserve">
<rect x="0.394" y="-0.377" fill="#FFFFFF" width="1050" height="172"/>
<g>
	<path fill="none" d="M514.958,121.028l-3.191,8.821c4.45,1.449,9.194,2.242,14.122,2.242c6.407,0,12.508-1.33,18.05-3.719
		l-3.976-8.482c-4.331,1.809-9.079,2.812-14.058,2.812C522.094,122.702,518.417,122.114,514.958,121.028z"/>
	<path fill="none" d="M516.279,84.468l-8.658-3.132c-0.44,1.602-0.695,3.28-0.695,5.02c0,2.347,0.448,4.586,1.23,6.662l8.463-3.967
		c-0.308-0.948-0.479-1.958-0.479-3.009C516.14,85.506,516.195,84.982,516.279,84.468z"/>
	<path fill="none" d="M595.58,114.269c1.656,0,3.004-1.347,3.004-3.003s-1.348-3.003-3.004-3.003s-3.002,1.347-3.002,3.003
		S593.923,114.269,595.58,114.269z"/>
	<path fill="none" d="M445.537,149.418c0.033,0,0.064,0.005,0.097,0.005c-0.495-0.644-0.981-1.292-1.46-1.947
		c-0.187,0.724-0.436,1.432-0.738,2.117C444.127,149.486,444.827,149.418,445.537,149.418z"/>
	<path fill="none" d="M519.858,107.483l-3.878,10.721c3.139,0.973,6.472,1.498,9.926,1.498c4.524,0,8.84-0.904,12.782-2.532
		l-4.838-10.325c-2.466,0.959-5.144,1.491-7.944,1.491C523.809,108.336,521.781,108.034,519.858,107.483z"/>
	<path fill="none" d="M498.498,20.218c0-1.657-1.348-3.005-3.004-3.005c-1.656,0-3.003,1.348-3.003,3.005
		c0,1.656,1.347,3.003,3.003,3.003C497.15,23.221,498.498,21.874,498.498,20.218z"/>
	<path fill="none" d="M457.633,58.763c-1.656,0-3.004,1.347-3.004,3.003s1.348,3.003,3.004,3.003c1.656,0,3.003-1.347,3.003-3.003
		S459.289,58.763,457.633,58.763z"/>
	<path fill="none" d="M459.66,114.731c-1.655,0-3.002,1.348-3.002,3.004c0,1.655,1.347,3.002,3.002,3.002
		c1.656,0,3.004-1.347,3.004-3.002C462.664,116.079,461.316,114.731,459.66,114.731z"/>
	<path fill="none" d="M524.143,95.641l-3.256,9c1.602,0.44,3.28,0.695,5.02,0.695c2.347,0,4.585-0.448,6.661-1.229l-4.059-8.661
		c-0.83,0.23-1.7,0.363-2.603,0.363C525.303,95.809,524.716,95.746,524.143,95.641z"/>
	<path fill="none" d="M550.959,19.684c1.656,0,3.004-1.347,3.004-3.003s-1.348-3.003-3.004-3.003c-1.655,0-3.002,1.347-3.002,3.003
		S549.304,19.684,550.959,19.684z"/>
	<path fill="none" d="M460.833,165.271c-0.545-0.456-1.087-0.918-1.623-1.386c-0.036,0.654-0.115,1.307-0.243,1.951
		C459.571,165.601,460.196,165.418,460.833,165.271z"/>
	<path fill="none" d="M584.759,6.623h-3.355c2.178,1,4.293,3.08,6.344,4.742C586.4,9.975,585.404,7.623,584.759,6.623z"/>
	<path fill="none" d="M490.936,75.3l-8.533-3.086c-1.453,4.457-2.249,9.208-2.249,14.143c0,6.405,1.329,12.504,3.717,18.044
		l8.378-3.927c-1.892-4.414-2.943-9.271-2.943-14.37C489.307,82.344,489.878,78.716,490.936,75.3z"/>
	<path fill="none" d="M522.347,91.786l0.917-2.534l-2.503,1.173C521.214,90.957,521.75,91.415,522.347,91.786z"/>
	<path fill="none" d="M517.981,91.728l-8.554,4.009c1.974,3.454,4.998,6.224,8.638,7.884l3.244-8.966
		C519.987,93.946,518.852,92.938,517.981,91.728z"/>
	<path fill="none" d="M525.906,92.809c0.447,0,0.883-0.046,1.307-0.129l-1.128-2.407l-0.903,2.496
		C525.42,92.794,525.661,92.809,525.906,92.809z"/>
	<path fill="none" d="M632.945,99.127c-4.301,0.668-7.891,3.95-8.838,8.303c-0.611,2.797-0.096,5.661,1.451,8.068
		c0.953,1.483,2.229,2.682,3.721,3.526c1.188,0.2,2.348,0.539,3.463,1.053c0.164,0.075,0.316,0.167,0.477,0.248
		c0.457,0.06,0.916,0.099,1.371,0.099c4.99,0,9.385-3.549,10.449-8.438c0.609-2.795,0.094-5.659-1.453-8.066
		c-1.264-1.968-3.098-3.424-5.25-4.228c-0.424,0.04-0.85,0.065-1.283,0.065C635.621,99.757,634.242,99.535,632.945,99.127z"/>
	<path fill="none" d="M504.779,80.308l-11.016-3.985c-0.944,3.097-1.456,6.379-1.456,9.781c0,4.644,0.948,9.07,2.659,13.097
		l10.453-4.898c-0.959-2.466-1.492-5.144-1.492-7.945C503.926,84.259,504.228,82.231,504.779,80.308z"/>
	<path fill="none" d="M493.548,103.179l-8.392,3.933c5.022,9.817,13.484,17.587,23.792,21.714l3.191-8.82
		C504.147,116.748,497.56,110.749,493.548,103.179z"/>
	<path fill="none" d="M619.552,6.623c2.156,1,4.072,2.166,5.545,4.102c2.219,2.917,3.168,6.42,2.674,10.05
		c-0.246,1.802-0.834,3.452-1.719,4.979c0.193-0.008,0.385-0.056,0.58-0.056c5.326,0,10.215,3.11,12.453,7.942
		c2.387,5.161,1.281,11.051-2.33,15.009c5.365,0.956,9.82,5.099,11.021,10.553c0.787,3.578,0.135,7.247-1.838,10.333
		c-0.979,1.529-2.223,2.822-3.662,3.835c4.977,2.059,8.488,6.961,8.488,12.672c0,5.592-3.371,10.407-8.182,12.539
		c1.379,0.993,2.58,2.241,3.525,3.716c1.98,3.081,2.641,6.748,1.861,10.326c-1.184,5.437-5.588,9.574-10.914,10.567
		c1.217,1.308,2.176,2.856,2.814,4.583c1.27,3.435,1.125,7.157-0.404,10.484c-2.232,4.853-7.125,7.987-12.463,7.987
		c-0.16,0-0.316-0.02-0.477-0.025c0.912,1.542,1.518,3.264,1.77,5.092c0.502,3.627-0.438,7.232-2.648,10.152
		c-2.617,3.458-6.605,5.44-10.945,5.44c-1.164,0-2.307-0.228-3.408-0.51c0.561,1.723,0.77,3.228,0.633,5.228h437.467v-165H619.552z"
		/>
	<path fill="none" d="M590.662,9.791c1.934,1.642,4.395,2.445,6.928,2.445c2.066,0,4.053-0.652,5.754-1.736
		c0.721-0.932,1.559-1.818,2.539-2.564c0.156-0.119,0.318-0.035,0.479-0.146c0.307-0.433,0.568-1.166,0.803-1.166h-19.145
		C588.644,7.623,589.527,8.827,590.662,9.791z"/>
	<path fill="none" d="M506.694,97.018l-10.429,4.888c3.67,6.856,9.65,12.297,16.894,15.278l3.879-10.723
		C512.651,104.519,509.015,101.184,506.694,97.018z"/>
	<path fill="none" d="M593.166,57.98c1.656,0,3.004-1.347,3.004-3.003c0-1.655-1.348-3.002-3.004-3.002s-3.002,1.347-3.002,3.002
		C590.164,56.633,591.509,57.98,593.166,57.98z"/>
	<path fill="none" d="M420.728,111.558c-0.087,0-0.174,0.009-0.262,0.011c-1.103,0.434-2.273,0.744-3.507,0.88
		c-0.188,0.021-0.376,0.018-0.564,0.031c-2.295,1.009-4.148,2.771-5.273,5.047c-1.269,2.565-1.462,5.471-0.544,8.182
		c1.475,4.356,5.553,7.284,10.148,7.284c0.86,0,1.715-0.106,2.552-0.312c0.182-0.122,0.356-0.252,0.545-0.366
		c1.029-0.621,2.13-1.099,3.271-1.43c2.328-1.727,3.839-4.329,4.231-7.163c-1.087-2.889-2.042-5.84-2.862-8.848
		C426.486,112.805,423.72,111.558,420.728,111.558z"/>
	<path fill="none" d="M433.693,47.778c0.947-2.106,1.967-4.172,3.052-6.198c-1.637,0.847-3.442,1.373-5.312,1.51
		C432.476,44.495,433.244,46.086,433.693,47.778z"/>
	<path fill="none" d="M442.943,23.774c0.85,1.889,1.265,3.953,1.209,6.032c1.67-2.286,3.43-4.503,5.283-6.637
		c-1.427,0.494-2.94,0.764-4.503,0.764C444.26,23.933,443.598,23.869,442.943,23.774z"/>
	<path fill="none" d="M428.326,133.67c-0.977,0.653-2.044,1.202-3.208,1.597c-0.187,0.063-0.376,0.11-0.564,0.166
		c-2.014,1.479-3.437,3.593-4.043,6.048c-0.687,2.778-0.25,5.658,1.229,8.108c1.958,3.243,5.391,5.18,9.184,5.18
		c1.657,0,3.282-0.411,4.766-1.153c0.137-0.141,0.263-0.289,0.406-0.425c0.873-0.829,1.844-1.521,2.876-2.086
		c1.774-2.033,2.696-4.656,2.636-7.311c-1.93-2.905-3.713-5.916-5.337-9.022c-1.599-0.925-3.436-1.435-5.37-1.435
		C430.028,133.337,429.167,133.46,428.326,133.67z"/>
	<path fill="none" d="M434.286,130.756c-0.405-0.868-0.8-1.744-1.181-2.626c-0.371,0.784-0.816,1.532-1.329,2.235
		C432.633,130.418,433.472,130.552,434.286,130.756z"/>
	<path fill="none" d="M458.352,7.413c0.164,0.791,0.269,1.6,0.292,2.424c0.044,1.6-0.2,3.16-0.682,4.637
		c2.519-2.276,5.155-4.423,7.896-6.437c-0.866,0.17-1.75,0.266-2.645,0.266C461.527,8.304,459.884,7.992,458.352,7.413z"/>
	<path fill="none" d="M563.912,119.001c-1.154,0-2.231,0.456-3.034,1.283c-1.622,1.673-1.581,4.353,0.091,5.976
		c0.792,0.769,1.837,1.191,2.941,1.191c1.153,0,2.231-0.456,3.035-1.284c0.786-0.811,1.21-1.878,1.192-3.006
		s-0.474-2.182-1.284-2.968C566.061,119.424,565.016,119.001,563.912,119.001z"/>
	<path fill="none" d="M419.661,64.958c-1.215-0.07-2.418-0.293-3.584-0.685c-0.179-0.06-0.346-0.138-0.521-0.205
		c-0.068-0.001-0.136-0.011-0.204-0.011c-5.477,0-10.049,4.113-10.636,9.568c-0.6,5.572,3.209,10.615,8.615,11.659
		c0.211-0.033,0.418-0.077,0.632-0.101c0.502-0.055,1.012-0.083,1.515-0.083c0.697,0,1.378,0.066,2.048,0.167
		c3.719-0.757,6.751-3.442,7.971-7.031c0.15-1.443,0.333-2.875,0.544-4.3C425.732,69.979,423.241,66.527,419.661,64.958z"/>
	<path fill="none" d="M427.148,67.796c0.386-1.815,0.823-3.611,1.307-5.389c-1.24,0.893-2.633,1.57-4.117,2.01
		C425.452,65.385,426.396,66.529,427.148,67.796z"/>
	<path fill="none" d="M424.511,109.1c0.984,0.282,1.926,0.672,2.813,1.16c-0.257-1.16-0.496-2.326-0.712-3.5
		C426.002,107.615,425.3,108.402,424.511,109.1z"/>
	<path fill="none" d="M417.55,88.305c-0.709,0.112-1.432,0.184-2.171,0.184c-0.492,0-0.991-0.027-1.482-0.08
		c-0.191-0.021-0.375-0.062-0.562-0.09c-2.457,0.494-4.644,1.816-6.23,3.795c-1.791,2.232-2.604,5.028-2.291,7.872
		c0.599,5.441,5.171,9.546,10.635,9.546c0.099,0,0.198-0.014,0.297-0.017c0.195-0.075,0.384-0.162,0.584-0.229
		c1.139-0.386,2.313-0.612,3.5-0.69c2.943-1.318,5.135-3.912,5.97-7.007c-0.318-2.441-0.545-4.911-0.683-7.403
		C423.673,91.166,420.883,88.959,417.55,88.305z"/>
	<path fill="none" d="M463.939,167.903c-2.487,0-4.842,0.793-6.724,2.312c-0.314,0.514-0.662,1.407-1.05,1.407h13.353
		c-1.842-1-3.64-2.444-5.394-3.792C464.062,167.83,464.001,167.903,463.939,167.903z"/>
	<circle fill="none" cx="500.998" cy="156.034" r="3.003"/>
	<path fill="none" d="M526.521,135.09c-2.383,0.027-4.318,1.944-4.291,4.274c0.028,2.302,1.164,4.175,4.164,4.175v1.5l0.112-1.5
		c2.329-0.027,4.233-1.944,4.206-4.274C530.685,136.963,528.822,135.09,526.521,135.09z"/>
	<path fill="none" d="M554.281,153.616c0,1.656,1.348,3.004,3.004,3.004c1.655,0,3.002-1.348,3.002-3.004
		c0-1.655-1.347-3.002-3.002-3.002C555.629,150.614,554.281,151.961,554.281,153.616z"/>
	<path fill="none" d="M427.949,39.813c0.815,0.197,1.65,0.316,2.494,0.316c3.804,0,7.243-1.944,9.198-5.201
		c2.463-4.103,1.849-9.209-1.165-12.618c-1.067-0.571-2.067-1.278-2.965-2.127c-0.127-0.12-0.237-0.251-0.359-0.375
		c-1.461-0.714-3.057-1.11-4.683-1.11c-3.804,0-7.242,1.944-9.197,5.2c-2.882,4.799-1.55,10.966,2.905,14.189
		c0.211,0.06,0.423,0.114,0.632,0.185C425.947,38.654,426.99,39.185,427.949,39.813z"/>
	<path fill="none" d="M524.517,37.641l0.108-0.001c1.127-0.029,2.177-0.497,2.955-1.315c0.777-0.818,1.188-1.89,1.159-3.017
		c-0.06-2.311-1.916-4.12-4.227-4.12l-0.109,0.001c-1.127,0.029-2.177,0.496-2.954,1.314c-0.776,0.819-1.188,1.891-1.158,3.02
		C520.35,35.793,522.245,37.64,524.517,37.641z"/>
	<path fill="none" d="M436.927,17.531c0.198,0.106,0.396,0.11,0.589,0.226c1.038,0.624,1.951,1.324,2.758,2.154
		c1.438,0.696,3.022,1.047,4.658,1.047c2.977,0,5.742-1.203,7.786-3.364c1.968-2.08,3.007-4.605,2.927-7.466
		c-0.036-1.291-0.31-2.505-0.778-3.505h-19.86C433.526,9.623,434.181,14.441,436.927,17.531z"/>
	<path fill="none" d="M432.982,157.606c-0.68,0.104-1.368,0.162-2.06,0.162c-4.854,0-9.247-2.479-11.752-6.629
		c-1.893-3.137-2.452-6.822-1.573-10.379c0.435-1.761,1.199-3.383,2.237-4.804c-5.513-0.357-10.308-3.996-12.099-9.288
		c-1.174-3.469-0.927-7.188,0.697-10.473c0.802-1.622,1.894-3.039,3.209-4.202c-5.215-1.504-9.188-6.028-9.811-11.681
		c-0.401-3.641,0.641-7.22,2.933-10.077c1.135-1.415,2.511-2.568,4.051-3.422c-4.726-2.58-7.692-7.831-7.081-13.51
		c0.606-5.636,4.54-10.149,9.723-11.681c-4.061-3.537-5.828-9.303-4.011-14.716c1.772-5.279,6.525-8.919,12.011-9.312
		c-3.209-4.328-3.698-10.342-0.756-15.24c2.465-4.106,6.975-6.656,11.769-6.656c0.659,0,1.315,0.253,1.964,0.348
		c-1.359-3.032-1.558-6.423-0.598-9.423H0.394v165h434.519c-2.072-2-3.167-5.613-3.082-8.923
		C431.877,160.887,432.273,159.217,432.982,157.606z"/>
	<path fill="none" d="M472.964,83.881l-0.145,0.002c-2.328,0.077-4.16,2.034-4.084,4.362c0.074,2.29,1.923,4.083,4.211,4.084
		l0.148-0.003c1.13-0.036,2.176-0.509,2.947-1.333c0.772-0.824,1.177-1.9,1.142-3.029C477.108,85.676,475.254,83.881,472.964,83.881
		z"/>
	<path fill="none" d="M420.273,61.983c0.057,0.001,0.113,0.007,0.169,0.007c4.606,0,8.688-2.936,10.157-7.307
		c1.521-4.531-0.171-9.379-3.839-12.062c-1.175-0.33-2.308-0.815-3.366-1.45c-0.166-0.1-0.316-0.215-0.477-0.32
		c-0.813-0.194-1.641-0.295-2.475-0.295c-4.606,0-8.687,2.936-10.154,7.306c-1.784,5.314,0.855,11.061,5.914,13.241
		c0.211,0.013,0.422,0.012,0.631,0.034C418.042,61.268,419.189,61.566,420.273,61.983z"/>
	<path fill="none" d="M452.569,170.94c0.674-0.998,1.473-1.882,2.358-2.654c1.23-2.246,1.592-4.847,1.089-7.312
		c-2.707-2.578-5.264-5.311-7.669-8.175c-0.904-0.244-1.844-0.382-2.81-0.382c-1.664,0-3.274,0.388-4.733,1.108
		c-0.818,0.855-1.749,1.628-2.81,2.269c-0.171,0.104-0.347,0.196-0.522,0.291c-1.646,1.876-2.578,4.244-2.643,6.771
		c-0.073,2.86,0.973,5.5,2.944,7.575c0.45,0.474,0.941,1.191,1.456,1.191h12.616c0.132,0,0.265-0.112,0.393-0.215
		C452.349,171.226,452.449,171.118,452.569,170.94z"/>
	<path fill="none" d="M586.816,163.18c0.703-1.063,1.555-2.037,2.551-2.887c0.812-0.692,1.703-1.271,2.639-1.753
		c4.223-4.055,8.078-8.488,11.516-13.243c0.09-0.126,0.168-0.258,0.262-0.381c0.037-0.051,0.082-0.094,0.121-0.144
		c11.301-15.854,17.955-35.036,17.955-55.946c0-34.752-18.383-65.203-45.934-82.203H473.894c-23.638,14-40.526,39.047-44.846,67.678
		c0.034,0.705,0.032,1.317-0.046,2.041c-0.099,0.915-0.29,1.749-0.555,2.597c-0.321,3.203-0.487,6.426-0.487,9.712
		c0,1.617,0.042,3.212,0.12,4.81c0.512,1.207,0.863,2.497,1.014,3.862c0.167,1.519,0.066,3.001-0.244,4.416
		c0.539,3.968,1.317,7.858,2.322,11.659c1.1,1.296,1.975,2.804,2.543,4.483c0.613,1.812,0.82,3.664,0.677,5.461
		c1.226,3.186,2.61,6.293,4.153,9.308c1.635,1.099,3.042,2.556,4.105,4.319c1.107,1.836,1.717,3.831,1.897,5.836
		c1.727,2.553,3.572,5.019,5.527,7.391c2.027,0.708,3.876,1.882,5.407,3.492c1.584,1.668,2.658,3.636,3.242,5.71
		c2.083,1.949,4.248,3.811,6.496,5.572c2.28,0.214,4.468,0.909,6.39,2.209c1.785,1.207,3.181,2.444,4.187,4.444h97.126
		c1.092,0,2.234-0.739,3.408-0.923C579.996,168.397,583.5,165.938,586.816,163.18z M563.91,130.451c-1.888,0-3.675-0.724-5.03-2.038
		c-1.244-1.207-1.958-2.756-2.143-4.356c-2.709,2.22-5.665,4.146-8.813,5.749l8.386,17.896c0.318-0.053,0.643-0.087,0.976-0.087
		c3.31,0,6.002,2.692,6.002,6.002c0,3.311-2.692,6.004-6.002,6.004c-3.311,0-6.004-2.693-6.004-6.004
		c0-1.905,0.896-3.602,2.283-4.702l-8.353-17.825c-4.125,1.788-8.545,3.015-13.163,3.6c1.042,1.235,1.674,2.817,1.694,4.541
		c0.022,1.93-0.707,3.795-2.056,5.176c-1.349,1.38-3.154,2.218-5.084,2.218h-0.086c-3.937,0-7.178-3.244-7.226-7.182
		c-0.021-1.723,0.569-3.334,1.565-4.588c-3.493-0.359-6.874-1.11-10.11-2.172l-6.605,18.253c1.712,1.059,2.859,2.945,2.859,5.102
		c0,3.311-2.693,6.002-6.003,6.002s-6.003-2.693-6.003-6.004c0-3.31,2.693-6.004,6.003-6.004c0.092,0,0.182,0.01,0.273,0.014
		l6.655-18.397c-3.896-1.551-7.55-3.584-10.879-6.037c-0.103,1.664-0.771,3.226-1.922,4.46c-1.36,1.466-3.29,2.309-5.292,2.309
		c-1.83,0-3.576-0.688-4.917-1.935c-2.916-2.715-3.083-7.296-0.372-10.212c1.139-1.228,2.679-2.009,4.324-2.233
		c-2.505-2.926-4.667-6.15-6.43-9.613l-16.948,7.943c0.109,0.452,0.173,0.922,0.173,1.407c0,3.31-2.693,6.002-6.004,6.002
		c-3.31,0-6.002-2.692-6.002-6.002c0-3.311,2.692-6.004,6.002-6.004c1.746,0,3.315,0.754,4.413,1.947l17.082-8.006
		c-1.652-3.811-2.833-7.87-3.464-12.107c-1.25,1.087-2.82,1.707-4.497,1.76l-0.247,0.005c-3.917-0.001-7.084-3.069-7.209-6.987
		c-0.13-3.98,3.002-7.326,6.982-7.457l0.244-0.004c1.646,0,3.156,0.547,4.369,1.466c0.316-3.862,1.082-7.598,2.25-11.155
		l-16.939-6.128c-1.075,1.627-2.918,2.704-5.01,2.704c-3.311,0-6.004-2.693-6.004-6.003s2.693-6.003,6.004-6.003
		c3.31,0,6.003,2.693,6.003,6.003c0,0.155-0.012,0.307-0.023,0.459l16.995,6.148c1.594-3.999,3.689-7.745,6.231-11.144
		c-1.661-0.117-3.223-0.794-4.442-1.946c-1.404-1.321-2.209-3.112-2.267-5.041c-0.058-1.929,0.641-3.766,1.966-5.171
		c1.36-1.442,3.277-2.269,5.258-2.269c1.85,0,3.61,0.7,4.956,1.97c1.228,1.155,1.998,2.671,2.21,4.325
		c2.859-2.411,5.999-4.495,9.361-6.205l-7.827-16.701c-0.184,0.017-0.37,0.028-0.559,0.028c-3.31,0-6.003-2.693-6.003-6.003
		c0-3.311,2.693-6.005,6.003-6.005c3.311,0,6.004,2.694,6.004,6.005c0,2.052-1.037,3.865-2.612,4.948l7.707,16.445
		c3.902-1.689,8.066-2.88,12.415-3.497c-1.034-1.214-1.67-2.782-1.714-4.515c-0.051-1.928,0.652-3.762,1.981-5.163
		s3.123-2.199,5.053-2.248l0.185-0.002c3.95,0,7.124,3.093,7.226,7.042c0.044,1.678-0.484,3.284-1.499,4.595
		c3.746,0.333,7.369,1.092,10.825,2.228l6.635-18.337c-1.648-1.071-2.742-2.925-2.742-5.033c0-3.31,2.692-6.003,6.002-6.003
		c3.311,0,6.004,2.693,6.004,6.003s-2.693,6.003-6.004,6.003c-0.14,0-0.276-0.012-0.414-0.021l-6.662,18.414
		c4.103,1.636,7.936,3.807,11.403,6.438c0.127-1.66,0.816-3.211,1.983-4.43c1.375-1.44,3.23-2.234,5.224-2.234
		c1.868,0,3.64,0.711,4.99,2.002c2.878,2.757,2.98,7.341,0.229,10.219c-1.17,1.223-2.688,1.974-4.34,2.173
		c2.317,2.787,4.321,5.839,5.978,9.097l17.9-8.388c-0.053-0.318-0.086-0.642-0.086-0.975c0-3.31,2.693-6.002,6.002-6.002
		c3.311,0,6.004,2.692,6.004,6.002c0,3.31-2.693,6.003-6.004,6.003c-1.904,0-3.602-0.895-4.703-2.284l-17.83,8.356
		c1.82,4.201,3.058,8.708,3.626,13.418c1.24-1.024,2.824-1.645,4.551-1.655c4.004,0,7.246,3.399,7.27,7.36
		c0.023,3.981-3.199,7.446-7.182,7.446h-0.041c-1.709,0-3.283-0.778-4.523-1.778c-0.371,3.398-1.096,6.603-2.131,9.757l18.271,6.566
		c1.059-1.714,2.947-2.883,5.105-2.883c3.311,0,6.004,2.682,6.004,5.991s-2.693,5.998-6.004,5.998s-6.002-2.696-6.002-6.006
		c0-0.092,0.01-0.184,0.014-0.273l-18.414-6.663c-1.682,4.221-3.933,8.151-6.664,11.697c1.663,0.138,3.218,0.836,4.428,2.01
		c1.387,1.344,2.166,3.146,2.196,5.076c0.029,1.93-0.695,3.756-2.04,5.142C567.725,129.672,565.882,130.451,563.91,130.451z"/>
	<path fill="none" d="M531.422,89.947l-2.621-0.948l1.15,2.454C530.516,91.029,531.013,90.522,531.422,89.947z"/>
	<path fill="none" d="M532.671,86.043c0-0.393-0.041-0.776-0.105-1.15l-2.743,1.285l2.747,0.994
		C532.631,86.804,532.671,86.428,532.671,86.043z"/>
	<path fill="none" d="M626.339,86.043c0,4.579,2.893,8.486,6.943,10.016c0.422-0.039,0.846-0.063,1.275-0.063
		c0.98,0,1.969,0.106,2.936,0.317c0.393,0.086,0.777,0.194,1.156,0.312c5.15-0.776,9.115-5.219,9.115-10.581
		c0-5.605-4.33-10.211-9.82-10.667c-0.205,0.055-0.404,0.121-0.613,0.167c-0.973,0.214-1.969,0.323-2.959,0.323
		c-0.193,0-0.385-0.017-0.578-0.025C629.476,77.222,626.339,81.271,626.339,86.043z"/>
	<path fill="none" d="M624.283,52.889c-3.018-0.533-5.768-2.062-7.807-4.31c1.678,3.82,3.121,7.764,4.316,11.814
		c0.254-1.979,0.93-3.896,2.035-5.628C623.259,54.089,623.751,53.468,624.283,52.889z"/>
	<path fill="none" d="M543.17,94.197l-8.86-3.205c-0.765,1.293-1.812,2.396-3.066,3.218l4.042,8.626
		C538.739,100.861,541.51,97.838,543.17,94.197z"/>
	<path fill="none" d="M535.422,88.204l8.77,3.173c0.44-1.603,0.695-3.28,0.695-5.021c0-2.347-0.448-4.585-1.23-6.662l-8.31,3.895
		c0.204,0.786,0.324,1.605,0.324,2.454C535.671,86.786,535.58,87.508,535.422,88.204z"/>
	<path fill="none" d="M529.651,80.413l-1.103,3.048l2.859-1.34C530.93,81.452,530.336,80.871,529.651,80.413z"/>
	<path fill="none" d="M629.197,74.82c-2.463-1.02-4.592-2.741-6.107-4.937c0.662,3.475,1.146,7.012,1.438,10.603
		C625.544,78.199,627.169,76.244,629.197,74.82z"/>
	<path fill="none" d="M625.357,56.38c-1.541,2.411-2.051,5.277-1.436,8.071c1.006,4.573,4.938,7.97,9.533,8.373
		c1.148-0.313,2.352-0.495,3.598-0.495c0.191,0,0.377,0.021,0.568,0.029c2.391-0.753,4.424-2.302,5.791-4.44
		c1.541-2.412,2.051-5.279,1.436-8.074c-1.074-4.873-5.469-8.411-10.451-8.411c-0.484,0-0.967,0.045-1.449,0.111
		c-0.184,0.095-0.359,0.201-0.549,0.288c-1.09,0.504-2.223,0.841-3.383,1.046C627.548,53.726,626.294,54.913,625.357,56.38z"/>
	<path fill="none" d="M623.033,117.119c-0.621-0.969-1.098-2-1.455-3.064c-0.629,2.39-1.346,4.744-2.143,7.061
		c1.533-1.019,3.27-1.726,5.107-2.065C623.99,118.456,623.48,117.815,623.033,117.119z"/>
	<path fill="none" d="M560.727,97.359l8.655,3.132c1.451-4.454,2.247-9.202,2.247-14.135c0-6.4-1.327-12.495-3.711-18.031
		l-8.179,3.833c1.779,4.301,2.767,9.009,2.767,13.945C562.505,90.03,561.876,93.812,560.727,97.359z"/>
	<path fill="none" d="M629.066,97.169c-1.803-1.298-3.275-3.02-4.275-5.021c-0.104,2.948-0.33,5.864-0.684,8.743
		C625.457,99.296,627.152,98.018,629.066,97.169z"/>
	<path fill="none" d="M547.033,92.405l10.872,3.934c1.035-3.229,1.6-6.667,1.6-10.235c0-4.481-0.889-8.757-2.488-12.67
		l-10.622,4.978c0.96,2.466,1.492,5.144,1.492,7.945C547.887,88.454,547.585,90.482,547.033,92.405z"/>
	<path fill="none" d="M584.593,169.558c0.025-0.33,0.076-0.614,0.125-0.938c-1.051,0.787-2.121,1.49-3.203,2.237
		c0.855,0.197,1.688,0.767,2.482,0.767h0.605C584.55,170.623,584.535,170.279,584.593,169.558z"/>
	<path fill="none" d="M601.136,14.65c-1.146,0.307-2.334,0.484-3.547,0.484c-2.736,0-5.4-0.832-7.654-2.351
		c4.352,3.736,8.383,7.837,12.037,12.26C600.304,21.769,600.06,18.026,601.136,14.65z"/>
	<path fill="none" d="M489.838,120.924c-1.188,0-2.289,0.479-3.097,1.35c-1.586,1.706-1.488,4.386,0.218,5.974
		c0.784,0.729,1.805,1.131,2.874,1.131c1.188,0,2.287-0.479,3.096-1.352c0.771-0.827,1.171-1.902,1.13-3.03
		c-0.042-1.128-0.52-2.173-1.346-2.943C491.93,121.325,490.909,120.924,489.838,120.924z"/>
	<path fill="none" d="M424.963,88.932c0-0.103-0.004-0.204-0.004-0.307c0-1.39,0.036-2.771,0.093-4.147
		c-0.901,0.9-1.924,1.671-3.043,2.291C423.089,87.355,424.081,88.083,424.963,88.932z"/>
	<path fill="none" d="M562.488,52.302c1.166,0,2.251-0.463,3.056-1.305c1.609-1.684,1.549-4.365-0.135-5.978
		c-0.788-0.754-1.824-1.169-2.916-1.169c-1.165,0-2.25,0.464-3.055,1.307c-0.782,0.817-1.197,1.887-1.173,3.015
		c0.025,1.128,0.488,2.179,1.304,2.959C560.358,51.886,561.396,52.302,562.488,52.302z"/>
	<path fill="none" d="M605.656,25.31c2.043,2.688,5.154,4.229,8.535,4.229c1.254,0,2.475-0.221,3.625-0.637
		c0.922-0.773,1.943-1.439,3.064-1.958c0.172-0.079,0.348-0.136,0.52-0.208c1.857-1.689,3.055-3.951,3.398-6.467
		c0.385-2.835-0.355-5.651-2.088-7.929c-2.045-2.688-5.158-4.229-8.539-4.229c-2.049,0-4.01,0.573-5.723,1.665
		c-0.135,0.173-0.258,0.352-0.4,0.52c-0.773,0.912-1.664,1.692-2.623,2.361C602.812,16.373,602.761,21.506,605.656,25.31z"/>
	<path fill="none" d="M606.962,164.409c-0.176-0.12-0.354-0.196-0.523-0.325c-0.957-0.725-1.789-1.544-2.512-2.462
		c-1.682-1.05-3.637-1.619-5.668-1.619c-1.561,0-3.092,0.352-4.492,0.999c-1.506,1.435-3.062,2.82-4.656,4.159
		c-0.861,1.413-1.393,2.937-1.527,4.634c-0.051,0.642-0.037,1.828,0.023,1.828h21.305
		C609.16,169.623,608.525,166.585,606.962,164.409z"/>
	<path fill="none" d="M616.583,35.696c-0.986,2.686-0.867,5.595,0.334,8.191c1.748,3.776,5.566,6.217,9.73,6.217
		c0.467,0,0.93-0.041,1.389-0.101c1.062-0.553,2.197-0.981,3.398-1.246c0.18-0.04,0.363-0.057,0.545-0.09
		c4.756-2.732,6.729-8.709,4.383-13.78c-1.748-3.775-5.568-6.215-9.73-6.215c-1.262,0-2.49,0.231-3.67,0.666
		c-0.16,0.133-0.312,0.275-0.479,0.402c-0.967,0.735-2.01,1.324-3.105,1.774C618.142,32.652,617.179,34.072,616.583,35.696z"/>
	<path fill="none" d="M534.152,80.835l8.233-3.859c-1.974-3.454-4.998-6.225-8.639-7.885l-3.056,8.448
		C532.1,78.336,533.288,79.472,534.152,80.835z"/>
	<path fill="none" d="M542.68,118.615l3.971,8.473c9.812-5.021,17.578-13.477,21.706-23.777l-8.668-3.137
		C556.36,108.134,550.296,114.67,542.68,118.615z"/>
	<path fill="none" d="M613.767,34.662c0.275-0.753,0.623-1.466,1.016-2.147c-0.197,0.008-0.393,0.024-0.592,0.024
		c-3.365,0-6.512-1.206-8.979-3.355c2.934,3.954,5.582,8.132,7.916,12.502C612.728,39.352,612.927,36.945,613.767,34.662z"/>
	<path fill="none" d="M578.394,90.27v1.5l0.254-1.5c2.328-0.016,4.329-1.923,4.315-4.252c-0.014-2.316-1.851-4.201-4.167-4.201
		c-2.355,0.014-4.442,1.921-4.431,4.252C574.381,88.384,576.394,90.27,578.394,90.27z"/>
	<path fill="none" d="M556.866,99.153l-10.855-3.928c-1.942,4.387-5.277,8.022-9.444,10.344l4.84,10.329
		C548.309,112.293,553.814,106.366,556.866,99.153z"/>
	<path fill="none" d="M490.43,52.928c0.773-0.82,1.181-1.894,1.147-3.023c-0.034-1.128-0.504-2.175-1.325-2.948
		c-0.789-0.744-1.818-1.153-2.899-1.153c-1.176,0-2.269,0.471-3.076,1.328c-0.775,0.822-1.184,1.895-1.15,3.023
		c0.034,1.127,0.505,2.174,1.327,2.947c0.788,0.744,1.816,1.153,2.897,1.153C488.529,54.254,489.622,53.783,490.43,52.928z"/>
	<path fill="none" d="M520.063,82.647l2.948,1.066l-1.368-2.918C521.011,81.31,520.477,81.939,520.063,82.647z"/>
	<path fill="none" d="M537.019,51.232l3.025-8.36c-4.46-1.456-9.215-2.252-14.154-2.252c-6.397,0-12.49,1.325-18.024,3.708
		l3.781,8.068c4.384-1.862,9.204-2.893,14.259-2.893C529.779,49.502,533.513,50.112,537.019,51.232z"/>
	<path fill="none" d="M531.955,65.229l4.043-11.176c-3.187-1.006-6.576-1.551-10.092-1.551c-4.601,0-8.988,0.932-12.985,2.613
		l5.04,10.753c2.466-0.96,5.144-1.492,7.945-1.492C528.004,64.376,530.032,64.678,531.955,65.229z"/>
	<path fill="none" d="M527.885,76.479l3.042-8.408c-1.603-0.44-3.28-0.695-5.021-0.695c-2.347,0-4.585,0.448-6.662,1.23l3.797,8.102
		c0.907-0.279,1.869-0.431,2.865-0.431C526.584,76.277,527.245,76.347,527.885,76.479z"/>
	<path fill="none" d="M615.205,139.498c-0.412-0.7-0.773-1.436-1.061-2.213c-0.293-0.794-0.502-1.604-0.645-2.421
		c-0.939,1.792-1.93,3.554-2.971,5.28c1.334-0.425,2.742-0.666,4.193-0.666C614.884,139.479,615.042,139.492,615.205,139.498z"/>
	<path fill="none" d="M604.099,154.657c0.242,1.75,0.898,3.374,1.9,4.77c0.988,0.677,1.904,1.472,2.699,2.403
		c0.123,0.144,0.227,0.297,0.342,0.445c1.699,1.067,3.637,1.63,5.662,1.63c3.391,0,6.508-1.549,8.553-4.251
		c1.727-2.28,2.461-5.097,2.07-7.931c-0.354-2.543-1.58-4.821-3.479-6.512c-0.189-0.077-0.381-0.141-0.568-0.227
		c-1.096-0.504-2.096-1.149-3.004-1.896c-1.131-0.399-2.324-0.61-3.553-0.61c-3.33,0-6.393,1.503-8.438,4.118
		c-0.115,0.161-0.232,0.318-0.348,0.478C604.386,149.292,603.728,151.964,604.099,154.657z"/>
	<path fill="none" d="M519.14,86.043c0,0.596,0.085,1.17,0.23,1.72l2.621-1.228l-2.824-1.021
		C519.153,85.688,519.14,85.864,519.14,86.043z"/>
	<path fill="none" d="M508.939,53.688l-3.786-8.077c-9.82,5.018-17.593,13.478-21.725,23.783l8.52,3.082
		C495.207,64.383,501.273,57.717,508.939,53.688z"/>
	<path fill="none" d="M515.245,67.144l-5.032-10.738c-6.952,3.689-12.459,9.747-15.443,17.091l11.032,3.991
		C507.744,73.101,511.079,69.465,515.245,67.144z"/>
	<path fill="none" d="M520.345,78.025l-3.819-8.148c-3.454,1.974-6.224,4.998-7.885,8.638l8.57,3.101
		C517.948,80.177,519.026,78.943,520.345,78.025z"/>
	<path fill="none" d="M601.689,157.465c-0.252-0.774-0.447-1.573-0.561-2.396c-0.08-0.576-0.109-1.151-0.117-1.725
		c-1.072,1.259-2.174,2.49-3.305,3.693c0.184-0.007,0.367-0.024,0.553-0.024C599.431,157.013,600.58,157.179,601.689,157.465z"/>
	<path fill="none" d="M617.279,128.054c-1.199,2.6-1.312,5.509-0.32,8.191c0.607,1.644,1.59,3.079,2.855,4.222
		c1.121,0.451,2.189,1.046,3.178,1.795c0.145,0.109,0.273,0.231,0.412,0.346c1.16,0.418,2.365,0.639,3.6,0.639
		c4.17,0,7.992-2.449,9.738-6.241c1.195-2.599,1.307-5.507,0.314-8.19c-0.891-2.408-2.58-4.369-4.795-5.61
		c-0.203-0.034-0.406-0.055-0.607-0.099c-1.174-0.256-2.285-0.67-3.33-1.202c-0.434-0.054-0.871-0.088-1.312-0.088
		C622.841,121.815,619.021,124.265,617.279,128.054z"/>
	<path fill="none" d="M558.474,69.438l8.159-3.824c-5.018-9.814-13.472-17.584-23.771-21.716l-3.026,8.366
		C547.896,55.594,554.512,61.725,558.474,69.438z"/>
	<path fill="none" d="M525.906,79.277c-0.542,0-1.066,0.071-1.571,0.191l1.393,2.972l1.118-3.09
		C526.538,79.307,526.226,79.277,525.906,79.277z"/>
	<path fill="none" d="M545.119,75.696l10.638-4.985c-3.623-6.998-9.628-12.57-16.941-15.625l-4.04,11.167
		C539.162,68.194,542.798,71.529,545.119,75.696z"/>
	<path fill="#FF4B00" d="M507.621,81.336l-2.842-1.028c-0.551,1.923-0.853,3.951-0.853,6.048c0,2.802,0.533,5.479,1.492,7.945
		l2.738-1.283c-0.782-2.076-1.23-4.315-1.23-6.662C506.926,84.616,507.181,82.938,507.621,81.336z"/>
	<path fill="#FF4B00" d="M546.011,95.226l-2.841-1.028c-1.66,3.641-4.431,6.664-7.885,8.639l1.281,2.733
		C540.733,103.248,544.068,99.612,546.011,95.226z"/>
	<path fill="#FF4B00" d="M520.887,104.641l-1.028,2.843c1.923,0.551,3.95,0.853,6.048,0.853c2.801,0,5.479-0.532,7.944-1.491
		l-1.283-2.738c-2.076,0.781-4.314,1.229-6.661,1.229C524.167,105.336,522.489,105.081,520.887,104.641z"/>
	<path fill="#FF4B00" d="M542.386,76.977l2.733-1.281c-2.321-4.167-5.957-7.501-10.344-9.444l-1.028,2.84
		C537.388,70.752,540.412,73.522,542.386,76.977z"/>
	<path fill="#FF4B00" d="M530.927,68.071l1.028-2.842c-1.923-0.551-3.951-0.853-6.049-0.853c-2.801,0-5.479,0.532-7.945,1.492
		l1.283,2.738c2.077-0.782,4.315-1.23,6.662-1.23C527.646,67.376,529.324,67.631,530.927,68.071z"/>
	<path fill="#FF4B00" d="M509.427,95.736l-2.733,1.281c2.321,4.166,5.958,7.501,10.344,9.443l1.027-2.841
		C514.425,101.96,511.401,99.19,509.427,95.736z"/>
	<path fill="#FF4B00" d="M544.191,91.377l2.842,1.028c0.552-1.923,0.854-3.951,0.854-6.049c0-2.801-0.532-5.479-1.492-7.945
		l-2.738,1.283c0.782,2.076,1.23,4.315,1.23,6.662C544.887,88.097,544.632,89.774,544.191,91.377z"/>
	<path fill="#FF4B00" d="M516.526,69.877l-1.281-2.733c-4.167,2.321-7.501,5.957-9.444,10.344l2.84,1.027
		C510.302,74.875,513.072,71.851,516.526,69.877z"/>
	<path fill="#FF4B00" d="M510.213,56.405l-1.273-2.717c-7.666,4.029-13.732,10.695-16.991,18.788l2.821,1.021
		C497.754,66.152,503.261,60.094,510.213,56.405z"/>
	<path fill="#FF4B00" d="M559.688,100.174l-2.822-1.021c-3.052,7.213-8.558,13.14-15.46,16.745l1.273,2.717
		C550.296,114.67,556.36,108.134,559.688,100.174z"/>
	<path fill="#FF4B00" d="M515.98,118.204l-1.021,2.824c3.458,1.086,7.136,1.674,10.948,1.674c4.979,0,9.727-1.003,14.058-2.812
		l-1.275-2.721c-3.942,1.628-8.258,2.532-12.782,2.532C522.452,119.702,519.119,119.177,515.98,118.204z"/>
	<path fill="#FF4B00" d="M496.265,101.905l-2.717,1.273c4.012,7.57,10.6,13.569,18.59,16.826l1.021-2.821
		C505.915,114.202,499.936,108.762,496.265,101.905z"/>
	<path fill="#FF4B00" d="M535.998,54.053l1.021-2.821c-3.506-1.12-7.239-1.73-11.112-1.73c-5.056,0-9.875,1.031-14.259,2.893
		l1.274,2.72c3.997-1.681,8.384-2.613,12.985-2.613C529.422,52.502,532.812,53.047,535.998,54.053z"/>
	<path fill="#FF4B00" d="M557.905,96.339l2.821,1.021c1.149-3.548,1.778-7.329,1.778-11.256c0-4.936-0.987-9.645-2.767-13.945
		l-2.722,1.275c1.6,3.913,2.488,8.188,2.488,12.67C559.505,89.672,558.94,93.11,557.905,96.339z"/>
	<path fill="#FF4B00" d="M555.757,70.71l2.717-1.273c-3.962-7.712-10.577-13.843-18.638-17.174l-1.021,2.822
		C546.129,58.141,552.134,63.712,555.757,70.71z"/>
	<path fill="#FF4B00" d="M493.763,76.323l-2.827-1.023c-1.058,3.417-1.629,7.044-1.629,10.804c0,5.099,1.051,9.956,2.943,14.37
		l2.716-1.273c-1.711-4.026-2.659-8.453-2.659-13.097C492.307,82.702,492.819,79.419,493.763,76.323z"/>
	<path fill="#FF4B00" d="M525.89,132.092c-4.928,0-9.672-0.793-14.122-2.242l-1.021,2.821c3.236,1.062,6.617,1.802,10.11,2.161
		c1.307-1.646,3.315-2.716,5.576-2.742h0.001c2.263,0,4.277,1.013,5.615,2.599c4.618-0.585,9.038-1.812,13.163-3.6l-1.272-2.716
		C538.397,130.762,532.297,132.092,525.89,132.092z"/>
	<path fill="#FF4B00" d="M571.628,86.356c0,4.933-0.795,9.681-2.247,14.135l2.821,1.021c1.035-3.154,1.76-6.446,2.131-9.845
		c-1.637-1.318-2.693-3.33-2.707-5.583c-0.012-2.256,1.018-4.279,2.633-5.614c-0.568-4.711-1.807-9.217-3.626-13.418l-2.716,1.273
		C570.302,73.861,571.628,79.956,571.628,86.356z"/>
	<path fill="#FF4B00" d="M485.156,107.111l-2.717,1.273c1.763,3.463,3.925,6.688,6.43,9.613c0.32-0.044,0.644-0.074,0.97-0.074
		c1.83,0,3.577,0.687,4.918,1.933c1.414,1.316,2.23,3.103,2.301,5.03c0.009,0.243,0.005,0.484-0.009,0.723
		c3.329,2.453,6.982,4.486,10.879,6.037l1.021-2.821C498.64,124.698,490.178,116.929,485.156,107.111z"/>
	<path fill="#FF4B00" d="M566.633,65.614l2.717-1.273c-1.656-3.258-3.66-6.31-5.978-9.097c-0.291,0.035-0.585,0.059-0.883,0.059
		c-0.001,0-0.001,0-0.001,0c-1.869,0-3.643-0.711-4.993-2.003c-1.394-1.334-2.186-3.131-2.229-5.06
		c-0.006-0.243,0.001-0.485,0.02-0.725c-3.468-2.631-7.301-4.802-11.403-6.438l-1.021,2.821
		C553.161,48.03,561.615,55.799,566.633,65.614z"/>
	<path fill="#FF4B00" d="M558.724,118.196c1.373-1.416,3.216-2.195,5.188-2.195c0.202,0,0.402,0.013,0.602,0.028
		c2.731-3.546,4.982-7.478,6.664-11.698l-2.821-1.021c-4.128,10.301-11.895,18.757-21.706,23.777l1.273,2.718
		c3.148-1.604,6.104-3.529,8.813-5.749C556.499,121.978,557.157,119.812,558.724,118.196z"/>
	<path fill="#FF4B00" d="M525.89,40.619c4.939,0,9.694,0.797,14.154,2.252l1.021-2.821c-3.456-1.136-7.079-1.895-10.825-2.228
		c-0.15,0.195-0.312,0.385-0.483,0.566c-1.329,1.4-3.124,2.199-5.054,2.249l-0.185,0.002c-2.217,0-4.188-0.975-5.509-2.526
		c-4.348,0.617-8.513,1.808-12.415,3.497l1.272,2.716C513.4,41.944,519.492,40.619,525.89,40.619z"/>
	<path fill="#FF4B00" d="M480.154,86.356c0-4.936,0.795-9.687,2.249-14.143l-2.821-1.021c-1.168,3.557-1.933,7.292-2.25,11.155
		c1.673,1.268,2.774,3.25,2.85,5.521c0.061,1.931-0.632,3.769-1.95,5.177c-0.172,0.185-0.354,0.357-0.542,0.521
		c0.631,4.237,1.812,8.297,3.464,12.107l2.716-1.272C481.483,98.86,480.154,92.762,480.154,86.356z"/>
	<path fill="#FF4B00" d="M505.154,45.611l-1.273-2.717c-3.362,1.71-6.502,3.794-9.361,6.205c0.031,0.237,0.049,0.476,0.057,0.718
		c0.057,1.93-0.64,3.766-1.964,5.171c-1.362,1.441-3.279,2.267-5.26,2.267c-0.172,0-0.343-0.012-0.514-0.024
		c-2.542,3.399-4.637,7.145-6.231,11.144l2.821,1.021C487.561,59.088,495.334,50.629,505.154,45.611z"/>
	<path fill="#FF4B00" d="M571.626,86.085c0.014,2.252,1.07,4.441,2.707,5.759c1.24,1,2.814,1.778,4.523,1.778h0.041
		c3.982,0,7.205-3.465,7.182-7.446c-0.023-3.961-3.266-7.272-7.27-7.272c-1.727,0.01-3.311,0.586-4.551,1.611
		C572.644,81.851,571.615,83.829,571.626,86.085z M578.853,81.816c2.316,0,4.213,1.885,4.227,4.201
		c0.014,2.329-2.104,4.236-4.432,4.252l-0.254,1.5v-1.5c-2,0-3.984-1.886-4-4.201C574.382,83.737,576.5,81.83,578.853,81.816z"/>
	<path fill="#FF4B00" d="M526.434,132.09L526.434,132.09c-2.262,0.026-4.27,1.096-5.577,2.742c-0.996,1.255-1.585,2.887-1.565,4.609
		c0.047,3.938,3.289,7.182,7.226,7.182h0.086c1.93,0,3.735-0.838,5.084-2.218c1.349-1.381,2.078-3.226,2.056-5.155
		c-0.021-1.723-0.652-3.315-1.694-4.551C530.711,133.113,528.696,132.09,526.434,132.09z M526.506,143.539l-0.112,1.5v-1.5
		c-3,0-4.136-1.873-4.164-4.175c-0.027-2.33,1.877-4.247,4.259-4.274c2.303,0,4.18,1.873,4.208,4.175
		C530.724,141.595,528.835,143.512,526.506,143.539z"/>
	<path fill="#FF4B00" d="M568.941,118.039c-1.21-1.174-2.765-1.872-4.428-2.01c-0.199-0.016-0.399-0.028-0.602-0.028
		c-1.973,0-3.815,0.779-5.188,2.195c-1.566,1.615-2.225,3.781-1.986,5.86c0.185,1.601,0.898,3.149,2.143,4.356
		c1.355,1.314,3.143,2.038,5.03,2.038c1.972,0,3.814-0.779,5.188-2.194c1.345-1.386,2.069-3.212,2.04-5.142
		C571.107,121.186,570.328,119.383,568.941,118.039z M566.945,126.167c-0.804,0.828-1.882,1.284-3.035,1.284
		c-1.104,0-2.149-0.423-2.941-1.191c-1.672-1.623-1.713-4.303-0.091-5.976c0.803-0.827,1.88-1.283,3.034-1.283
		c1.104,0,2.148,0.423,2.941,1.192c0.811,0.786,1.267,1.84,1.284,2.968S567.731,125.356,566.945,126.167z"/>
	<path fill="#FF4B00" d="M557.495,53.299c1.351,1.292,3.124,2.003,4.993,2.003c0,0,0,0,0.001,0c0.298,0,0.592-0.023,0.883-0.059
		c1.652-0.199,3.17-0.95,4.34-2.173c2.752-2.878,2.649-7.461-0.229-10.219c-1.351-1.291-3.122-2.002-4.99-2.002
		c-1.993,0-3.849,0.794-5.224,2.234c-1.167,1.219-1.856,2.771-1.983,4.43c-0.019,0.24-0.025,0.481-0.02,0.725
		C555.31,50.167,556.102,51.964,557.495,53.299z M559.438,45.157c0.805-0.843,1.89-1.307,3.055-1.307
		c1.092,0,2.128,0.416,2.916,1.169c1.684,1.613,1.744,4.294,0.135,5.978c-0.805,0.841-1.89,1.305-3.056,1.305
		c-1.093,0-2.13-0.416-2.919-1.171c-0.815-0.781-1.278-1.832-1.304-2.959C558.241,47.044,558.656,45.974,559.438,45.157z"/>
	<path fill="#FF4B00" d="M524.517,40.641l0.185-0.002c1.93-0.05,3.725-0.849,5.054-2.249c0.172-0.181,0.333-0.371,0.483-0.566
		c1.015-1.311,1.543-2.917,1.499-4.595c-0.102-3.948-3.275-7.042-7.226-7.042l-0.185,0.002c-1.93,0.049-3.725,0.848-5.053,2.248
		s-2.032,3.234-1.981,5.163c0.044,1.733,0.68,3.3,1.714,4.515C520.329,39.666,522.3,40.641,524.517,40.641z M521.45,30.502
		c0.777-0.818,1.826-1.285,2.954-1.314l0.109-0.001c2.311,0,4.167,1.809,4.227,4.12c0.029,1.127-0.382,2.199-1.159,3.017
		c-0.777,0.819-1.827,1.286-2.955,1.315l-0.108,0.001c-2.272,0-4.167-1.847-4.225-4.119
		C520.263,32.393,520.674,31.321,521.45,30.502z"/>
	<path fill="#FF4B00" d="M492.612,54.987c1.324-1.405,2.021-3.241,1.964-5.171c-0.007-0.242-0.026-0.481-0.057-0.718
		c-0.212-1.654-0.982-3.169-2.21-4.325c-1.346-1.271-3.106-1.97-4.956-1.97c-1.981,0-3.898,0.827-5.258,2.269
		c-1.325,1.405-2.023,3.242-1.966,5.171c0.058,1.929,0.863,3.719,2.267,5.041c1.219,1.152,2.781,1.829,4.442,1.946
		c0.17,0.012,0.341,0.024,0.514,0.024C489.333,57.254,491.25,56.428,492.612,54.987z M483.128,50.154
		c-0.034-1.128,0.375-2.201,1.15-3.023c0.807-0.856,1.9-1.328,3.076-1.328c1.081,0,2.11,0.409,2.899,1.153
		c0.821,0.773,1.292,1.82,1.325,2.948c0.033,1.129-0.375,2.203-1.147,3.023c-0.808,0.855-1.901,1.326-3.078,1.326
		c-1.082,0-2.109-0.409-2.897-1.153C483.633,52.328,483.162,51.281,483.128,50.154z"/>
	<path fill="#FF4B00" d="M480.183,87.868c-0.076-2.271-1.177-4.253-2.85-5.521c-1.212-0.919-2.723-1.466-4.369-1.466l-0.244,0.004
		c-3.98,0.131-7.113,3.477-6.982,7.457c0.125,3.918,3.292,6.986,7.209,6.987l0.247-0.005c1.677-0.053,3.248-0.673,4.497-1.76
		c0.188-0.163,0.369-0.336,0.542-0.521C479.551,91.637,480.244,89.799,480.183,87.868z M476.042,90.994
		c-0.771,0.824-1.817,1.297-2.947,1.333l-0.148,0.003c-2.288-0.001-4.138-1.794-4.211-4.084c-0.076-2.329,1.756-4.285,4.084-4.362
		l0.145-0.002c2.29,0,4.144,1.795,4.221,4.083C477.22,89.094,476.814,90.17,476.042,90.994z"/>
	<path fill="#FF4B00" d="M494.756,119.856c-1.341-1.246-3.088-1.933-4.918-1.933c-0.327,0-0.65,0.03-0.97,0.074
		c-1.646,0.225-3.185,1.006-4.324,2.233c-2.711,2.916-2.544,7.497,0.372,10.212c1.341,1.247,3.088,1.935,4.917,1.935
		c2.002,0,3.933-0.843,5.292-2.309c1.151-1.234,1.819-2.796,1.922-4.46c0.015-0.238,0.018-0.479,0.009-0.723
		C496.986,122.959,496.17,121.173,494.756,119.856z M492.929,128.026c-0.809,0.872-1.908,1.352-3.096,1.352
		c-1.069,0-2.089-0.401-2.874-1.131c-1.706-1.588-1.804-4.268-0.218-5.974c0.808-0.87,1.908-1.35,3.097-1.35
		c1.07,0,2.091,0.401,2.875,1.129c0.827,0.771,1.305,1.815,1.346,2.943C494.1,126.124,493.7,127.199,492.929,128.026z"/>
	<path fill="#FF4B00" d="M520.76,90.425l-2.779,1.303c0.871,1.211,2.006,2.219,3.328,2.927l1.038-2.868
		C521.75,91.415,521.214,90.957,520.76,90.425z"/>
	<path fill="#FF4B00" d="M525.182,92.769l-1.039,2.872c0.573,0.105,1.161,0.168,1.764,0.168c0.902,0,1.772-0.133,2.603-0.363
		l-1.296-2.766c-0.424,0.083-0.859,0.129-1.307,0.129C525.661,92.809,525.42,92.794,525.182,92.769z"/>
	<path fill="#FF4B00" d="M521.643,80.795l-1.298-2.77c-1.319,0.917-2.397,2.151-3.133,3.59l2.851,1.031
		C520.477,81.939,521.011,81.31,521.643,80.795z"/>
	<path fill="#FF4B00" d="M532.569,87.172l2.853,1.032c0.158-0.696,0.249-1.418,0.249-2.161c0-0.849-0.12-1.668-0.324-2.454
		l-2.781,1.303c0.064,0.375,0.105,0.757,0.105,1.15C532.671,86.428,532.631,86.804,532.569,87.172z"/>
	<path fill="#FF4B00" d="M531.408,82.121l2.744-1.286c-0.864-1.364-2.053-2.5-3.461-3.296l-1.04,2.874
		C530.336,80.871,530.93,81.452,531.408,82.121z"/>
	<path fill="#FF4B00" d="M519.167,85.513l-2.888-1.045c-0.084,0.514-0.139,1.038-0.139,1.575c0,1.051,0.171,2.061,0.479,3.009
		l2.75-1.289c-0.145-0.55-0.23-1.124-0.23-1.72C519.14,85.864,519.153,85.688,519.167,85.513z"/>
	<path fill="#FF4B00" d="M526.846,79.351l1.039-2.871c-0.64-0.132-1.301-0.202-1.979-0.202c-0.997,0-1.958,0.152-2.865,0.431
		l1.294,2.761c0.505-0.121,1.03-0.191,1.571-0.191C526.226,79.277,526.538,79.307,526.846,79.351z"/>
	<path fill="#FF4B00" d="M534.31,90.992l-2.888-1.045c-0.409,0.575-0.906,1.082-1.471,1.506l1.292,2.757
		C532.497,93.389,533.545,92.285,534.31,90.992z"/>
	<path fill="#FF4B00" d="M542.68,118.615l-1.273-2.717l-4.84-10.329l-1.281-2.733l-4.042-8.626l-1.292-2.757l-1.15-2.454
		l-1.994-0.722l-0.722,1.995l1.128,2.407l1.296,2.766l4.059,8.661l1.283,2.738l4.838,10.325l1.275,2.721l3.976,8.482l1.272,2.716
		l8.353,17.825c0.782-0.619,1.72-1.045,2.745-1.213l-8.386-17.896l-1.273-2.718L542.68,118.615z"/>
	<path fill="#FF4B00" d="M560.727,97.359l-2.821-1.021l-10.872-3.934l-2.842-1.028l-8.77-3.173l-2.853-1.032l-2.747-0.994
		l-2.717,1.273l-0.299,0.826l1.994,0.722l2.621,0.948l2.888,1.045l8.86,3.205l2.841,1.028l10.855,3.928l2.822,1.021l8.668,3.137
		l2.821,1.021l18.414,6.663c0.047-1.05,0.363-2.028,0.883-2.87l-18.271-6.611l-2.821-1.021L560.727,97.359z"/>
	<path fill="#FF4B00" d="M558.474,69.438l-2.717,1.273l-10.638,4.985l-2.733,1.281l-8.233,3.859l-2.744,1.286l-2.859,1.34
		l-1.232,3.406l-0.211,0.584l2.717-1.273l2.743-1.285l2.781-1.303l8.31-3.895l2.738-1.283l10.622-4.978l2.722-1.275l8.179-3.833
		l2.716-1.273l17.83-8.356c-0.619-0.782-1.045-1.719-1.213-2.745l-17.9,8.388l-2.717,1.273L558.474,69.438z"/>
	<path fill="#FF4B00" d="M537.019,51.232l-1.021,2.821l-4.043,11.176l-1.028,2.842l-3.042,8.408l-1.039,2.871l-1.118,3.09
		l1.537,3.279l-1.358,0.637l0,0v0l1.41,0.51l1.232-3.406l1.103-3.048l1.04-2.874l3.056-8.448l1.028-2.84l4.04-11.167l1.021-2.822
		l3.026-8.366l1.021-2.821l6.662-18.414c-1.044-0.072-2.016-0.409-2.846-0.949l-6.635,18.337l-1.021,2.821L537.019,51.232z"/>
	<path fill="#FF4B00" d="M508.939,53.688l1.273,2.717l5.032,10.738l1.281,2.733l3.819,8.148l1.298,2.77l1.368,2.918l3.406,1.232
		l-0.511,1.411l1.358-0.637l-1.537-3.279l-1.393-2.972l-1.294-2.761l-3.797-8.102l-1.283-2.738l-5.04-10.753l-1.274-2.72
		l-3.781-8.068l-1.272-2.716l-7.707-16.445c-0.821,0.564-1.789,0.929-2.833,1.026l7.827,16.701l1.273,2.717L508.939,53.688z"/>
	<path fill="#FF4B00" d="M490.936,75.3l2.827,1.023l11.016,3.985l2.842,1.028l8.658,3.132l2.888,1.045l2.824,1.021l3.279-1.537
		l0.637,1.358l0,0l0.511-1.411l-3.406-1.232l-2.948-1.066l-2.851-1.031l-8.57-3.101l-2.84-1.027l-11.032-3.991l-2.821-1.021
		l-8.52-3.082l-2.821-1.021l-16.995-6.148c-0.08,1.043-0.423,2.013-0.97,2.839l16.939,6.128l2.821,1.021L490.936,75.3z"/>
	<path fill="#FF4B00" d="M493.548,103.179l2.717-1.273l10.429-4.888l2.733-1.281l8.554-4.009l2.779-1.303l2.503-1.173l1.232-3.406
		l1.411,0.511v0l-0.637-1.358l-3.279,1.537l-2.621,1.228l-2.75,1.289l-8.463,3.967l-2.738,1.283L494.965,99.2l-2.716,1.273
		l-8.378,3.927l-2.716,1.272l-17.082,8.006c0.679,0.738,1.174,1.644,1.417,2.649l16.948-7.943l2.717-1.273L493.548,103.179z"/>
	<path fill="#FF4B00" d="M514.958,121.028l1.021-2.824l3.878-10.721l1.028-2.843l3.256-9l1.039-2.872l0.903-2.496l0.722-1.995
		l0.299-0.826l0.211-0.584l-1.41-0.51l-1.411-0.511l-1.232,3.406l-0.917,2.534l-1.038,2.868l-3.244,8.966l-1.027,2.841
		l-3.879,10.723l-1.021,2.821l-3.191,8.82l-1.021,2.821l-6.655,18.397c1.049,0.048,2.028,0.364,2.871,0.886l6.605-18.259
		l1.021-2.821L514.958,121.028z"/>
	<path fill="#FF4B00" d="M550.959,22.684c3.311,0,6.004-2.693,6.004-6.003s-2.693-6.003-6.004-6.003
		c-3.31,0-6.002,2.693-6.002,6.003c0,2.108,1.094,3.962,2.742,5.033c0.83,0.54,1.802,0.877,2.846,0.949
		C550.683,22.672,550.819,22.684,550.959,22.684z M550.959,13.678c1.656,0,3.004,1.347,3.004,3.003s-1.348,3.003-3.004,3.003
		c-1.655,0-3.002-1.347-3.002-3.003S549.304,13.678,550.959,13.678z"/>
	<path fill="#FF4B00" d="M593.166,60.98c3.311,0,6.004-2.693,6.004-6.003c0-3.31-2.693-6.002-6.004-6.002
		c-3.309,0-6.002,2.692-6.002,6.002c0,0.333,0.033,0.656,0.086,0.975c0.168,1.025,0.594,1.963,1.213,2.745
		C589.564,60.085,591.261,60.98,593.166,60.98z M593.166,51.976c1.656,0,3.004,1.347,3.004,3.002c0,1.656-1.348,3.003-3.004,3.003
		s-3.002-1.347-3.002-3.003C590.164,53.322,591.509,51.976,593.166,51.976z"/>
	<path fill="#FF4B00" d="M589.578,111.266c0,3.31,2.691,6.003,6.002,6.003s6.004-2.693,6.004-6.003s-2.693-6.003-6.004-6.003
		c-2.158,0-4.047,1.147-5.105,2.861c-0.52,0.842-0.836,1.82-0.883,2.87C589.587,111.084,589.578,111.174,589.578,111.266z
		 M595.58,108.263c1.656,0,3.004,1.347,3.004,3.003s-1.348,3.003-3.004,3.003s-3.002-1.347-3.002-3.003
		S593.923,108.263,595.58,108.263z"/>
	<path fill="#FF4B00" d="M551.281,153.616c0,3.311,2.693,6.004,6.004,6.004c3.31,0,6.002-2.693,6.002-6.004
		c0-3.31-2.692-6.002-6.002-6.002c-0.333,0-0.657,0.034-0.976,0.087c-1.025,0.168-1.963,0.594-2.745,1.213
		C552.177,150.015,551.281,151.711,551.281,153.616z M560.287,153.616c0,1.656-1.347,3.004-3.002,3.004
		c-1.656,0-3.004-1.348-3.004-3.004c0-1.655,1.348-3.002,3.004-3.002C558.94,150.614,560.287,151.961,560.287,153.616z"/>
	<path fill="#FF4B00" d="M500.998,150.03c-3.31,0-6.003,2.693-6.003,6.003c0,3.311,2.693,6.004,6.003,6.004s6.003-2.693,6.003-6.004
		c0-2.156-1.147-4.045-2.859-5.104c-0.843-0.521-1.821-0.838-2.871-0.886C501.18,150.04,501.09,150.03,500.998,150.03z
		 M500.998,159.037c-1.656,0-3.003-1.348-3.003-3.004s1.347-3.003,3.003-3.003s3.003,1.347,3.003,3.003
		S502.654,159.037,500.998,159.037z"/>
	<path fill="#FF4B00" d="M459.66,111.731c-3.31,0-6.002,2.693-6.002,6.004c0,3.31,2.692,6.002,6.002,6.002
		c3.311,0,6.004-2.692,6.004-6.002c0-0.485-0.064-0.955-0.173-1.407c-0.243-1.006-0.739-1.911-1.417-2.649
		C462.975,112.485,461.406,111.731,459.66,111.731z M459.66,120.737c-1.655,0-3.002-1.347-3.002-3.002
		c0-1.656,1.347-3.004,3.002-3.004c1.656,0,3.004,1.348,3.004,3.004C462.664,119.391,461.316,120.737,459.66,120.737z"/>
	<path fill="#FF4B00" d="M463.636,61.766c0-3.31-2.693-6.003-6.003-6.003c-3.311,0-6.004,2.693-6.004,6.003s2.693,6.003,6.004,6.003
		c2.092,0,3.935-1.077,5.01-2.704c0.546-0.827,0.89-1.796,0.97-2.839C463.624,62.073,463.636,61.921,463.636,61.766z
		 M457.633,64.769c-1.656,0-3.004-1.347-3.004-3.003s1.348-3.003,3.004-3.003c1.656,0,3.003,1.347,3.003,3.003
		S459.289,64.769,457.633,64.769z"/>
	<path fill="#FF4B00" d="M501.498,20.218c0-3.311-2.693-6.005-6.004-6.005c-3.31,0-6.003,2.694-6.003,6.005
		c0,3.31,2.693,6.003,6.003,6.003c0.189,0,0.375-0.011,0.559-0.028c1.044-0.097,2.012-0.462,2.833-1.026
		C500.461,24.083,501.498,22.27,501.498,20.218z M492.491,20.218c0-1.657,1.347-3.005,3.003-3.005c1.656,0,3.004,1.348,3.004,3.005
		c0,1.656-1.348,3.003-3.004,3.003C493.838,23.221,492.491,21.874,492.491,20.218z"/>
	<path fill="#FF4B00" d="M629.066,97.169c1.32-0.586,2.74-0.97,4.217-1.11c-4.051-1.529-6.943-5.437-6.943-10.016
		c0-4.771,3.137-8.821,7.455-10.203c-1.607-0.069-3.158-0.423-4.598-1.02c-2.027,1.424-3.652,3.379-4.67,5.666
		c0.217,2.686,0.332,5.399,0.332,8.139c0,1.18-0.027,2.353-0.068,3.522C625.791,94.149,627.263,95.871,629.066,97.169z"/>
	<path fill="#FF4B00" d="M633.455,72.825c0.305,0.026,0.609,0.041,0.918,0.041c0.773,0,1.553-0.085,2.314-0.253
		c0.316-0.07,0.627-0.157,0.934-0.253c-0.191-0.008-0.377-0.029-0.568-0.029C635.806,72.33,634.603,72.512,633.455,72.825z"/>
	<path fill="#FF4B00" d="M634.558,98.995c-0.547,0-1.084,0.05-1.613,0.132c1.297,0.408,2.676,0.63,4.107,0.63
		c0.434,0,0.859-0.025,1.283-0.065c-0.48-0.179-0.971-0.336-1.48-0.447C636.097,99.079,635.324,98.995,634.558,98.995z"/>
	<path fill="#FF4B00" d="M647.765,86.043c0,5.362-3.965,9.805-9.115,10.581c1.424,0.44,2.746,1.103,3.934,1.958
		c4.811-2.132,8.182-6.946,8.182-12.539c0-5.711-3.512-10.614-8.488-12.673c-1.299,0.913-2.762,1.584-4.332,2.005
		C643.435,75.832,647.765,80.438,647.765,86.043z"/>
	<path fill="#FF4B00" d="M634.396,51.434c4.982,0,9.377,3.538,10.451,8.411c0.615,2.795,0.105,5.663-1.436,8.074
		c-1.367,2.138-3.4,3.687-5.791,4.44c-0.307,0.096-0.617,0.184-0.934,0.253c-0.762,0.167-1.541,0.253-2.314,0.253
		c-0.309,0-0.613-0.014-0.918-0.041c-4.596-0.403-8.527-3.8-9.533-8.373c-0.615-2.794-0.105-5.661,1.436-8.071
		c0.938-1.468,2.191-2.655,3.658-3.501c-0.779,0.137-1.566,0.225-2.367,0.225c-0.803,0-1.592-0.079-2.365-0.215
		c-0.531,0.58-1.023,1.201-1.455,1.876c-1.105,1.731-1.781,3.649-2.035,5.628c0.916,3.104,1.684,6.27,2.297,9.49
		c1.516,2.196,3.645,3.917,6.107,4.937c1.439,0.597,2.99,0.951,4.598,1.02c0.193,0.008,0.385,0.025,0.578,0.025
		c0.99,0,1.986-0.109,2.959-0.323c0.209-0.046,0.408-0.112,0.613-0.167c1.57-0.421,3.033-1.092,4.332-2.005
		c1.439-1.014,2.684-2.307,3.662-3.836c1.973-3.086,2.625-6.757,1.838-10.334c-1.201-5.455-5.656-9.601-11.021-10.557
		c-1.059,1.161-2.344,2.142-3.809,2.902C633.429,51.479,633.912,51.434,634.396,51.434z"/>
	<path fill="#FF4B00" d="M628.037,50.003c1.066-0.14,2.105-0.432,3.102-0.893c0.291-0.135,0.568-0.286,0.842-0.442
		c-0.182,0.033-0.365,0.05-0.545,0.09C630.234,49.022,629.099,49.451,628.037,50.003z"/>
	<path fill="#FF4B00" d="M617.816,28.901c1.012-0.366,1.973-0.88,2.852-1.549c0.256-0.195,0.498-0.402,0.732-0.616
		c-0.172,0.072-0.348,0.128-0.52,0.208C619.759,27.462,618.738,28.128,617.816,28.901z"/>
	<path fill="#FF4B00" d="M622.962,29.338c1.18-0.435,2.408-0.666,3.67-0.666c4.162,0,7.982,2.44,9.73,6.215
		c2.346,5.071,0.373,11.048-4.383,13.78c-0.273,0.157-0.551,0.308-0.842,0.442c-0.996,0.461-2.035,0.753-3.102,0.893
		c-0.459,0.06-0.922,0.101-1.389,0.101c-4.164,0-7.982-2.44-9.73-6.217c-1.201-2.596-1.32-5.505-0.334-8.191
		c0.596-1.624,1.559-3.043,2.795-4.182c-1.453,0.597-3,0.934-4.596,1.001c-0.393,0.681-0.74,1.394-1.016,2.147
		c-0.84,2.283-1.039,4.69-0.639,7.024c1.201,2.248,2.318,4.547,3.348,6.893c2.039,2.249,4.789,3.777,7.807,4.31
		c0.773,0.136,1.562,0.215,2.365,0.215c0.801,0,1.588-0.088,2.367-0.225c1.16-0.205,2.293-0.542,3.383-1.046
		c0.189-0.087,0.365-0.193,0.549-0.288c1.465-0.76,2.75-1.741,3.809-2.902c3.611-3.958,4.717-9.854,2.33-15.016
		c-2.238-4.833-7.127-7.955-12.453-7.955c-0.195,0-0.387,0.023-0.58,0.031C625.255,27.076,624.208,28.298,622.962,29.338z"/>
	<path fill="#FF4B00" d="M603.343,10.449c0.895-0.57,1.715-1.266,2.418-2.094c0.215-0.252,0.412-0.514,0.6-0.78
		c-0.16,0.111-0.322,0.216-0.479,0.335C604.902,8.655,604.064,9.517,603.343,10.449z"/>
	<path fill="#FF4B00" d="M614.171,8.111c3.381,0,6.494,1.541,8.539,4.229c1.732,2.277,2.473,5.094,2.088,7.929
		c-0.344,2.517-1.541,4.778-3.398,6.467c-0.234,0.214-0.477,0.421-0.732,0.616c-0.879,0.669-1.84,1.184-2.852,1.549
		c-1.15,0.417-2.371,0.637-3.625,0.637c-3.381,0-6.492-1.542-8.535-4.229c-2.895-3.804-2.844-8.937-0.23-12.652
		c-1.305,0.91-2.754,1.583-4.289,1.993c-1.076,3.376-0.832,7.118,0.836,10.394c1.117,1.35,2.195,2.731,3.24,4.139
		c2.467,2.149,5.613,3.355,8.979,3.355c0.199,0,0.395-0.016,0.592-0.024c1.596-0.067,3.143-0.404,4.596-1.001
		c1.096-0.45,2.139-1.039,3.105-1.774c0.166-0.127,0.318-0.269,0.479-0.402c1.246-1.04,2.293-2.262,3.09-3.634
		c0.885-1.528,1.473-3.228,1.719-5.03c0.494-3.629-0.455-7.032-2.674-9.949c-1.473-1.936-3.389-3.102-5.545-4.102h-9.121
		c-0.475,1-1.139,2.26-1.982,3.354C610.162,8.886,612.123,8.111,614.171,8.111z"/>
	<path fill="#FF4B00" d="M587.748,11.163c0.736,0.598,1.467,1.104,2.188,1.722c2.254,1.519,4.918,2.3,7.654,2.3
		c1.213,0,2.4-0.203,3.547-0.509c1.535-0.411,2.984-1.096,4.289-2.006c0.959-0.669,1.85-1.456,2.623-2.368
		c0.143-0.168,0.266-0.148,0.4-0.322c0.844-1.095,1.508-2.357,1.982-3.357h-3.268c-0.234,0-0.496,0.72-0.803,1.153
		c-0.188,0.267-0.385,0.427-0.6,0.679c-0.703,0.828-1.523,1.474-2.418,2.044c-1.701,1.084-3.688,1.661-5.754,1.661
		c-2.533,0-4.994-0.715-6.928-2.357c-1.135-0.963-2.018-2.18-2.643-3.18h-3.26C585.404,7.623,586.4,9.773,587.748,11.163z"/>
	<path fill="#FF4B00" d="M463.214,8.304c0.895,0,1.778,0.106,2.645-0.064c0.842-0.619,1.694-1.616,2.557-1.616h-10.37
		c0.119,0,0.223,0.588,0.307,0.992C459.884,8.194,461.527,8.304,463.214,8.304z"/>
	<path fill="#FF4B00" d="M432.433,16.046c1.567,0.229,3.088,0.833,4.494,1.585c-2.746-3.09-3.401-8.009-1.92-11.009h-3.171
		C430.875,9.623,431.074,13.015,432.433,16.046z"/>
	<path fill="#FF4B00" d="M452.718,17.582c-2.044,2.161-4.81,3.351-7.786,3.351c-1.635,0-3.219-0.376-4.658-1.072
		c1.125,1.157,2.024,2.48,2.669,3.914c0.655,0.095,1.317,0.159,1.989,0.159c1.563,0,3.076-0.27,4.503-0.764
		c2.665-3.068,5.513-5.971,8.527-8.695c0.482-1.478,0.726-3.038,0.682-4.637c-0.023-0.824-0.128-1.431-0.292-2.222
		c-0.083-0.404-0.188-0.992-0.307-0.992h-3.178c0.468,1,0.742,2.208,0.778,3.499C455.725,12.982,454.686,15.501,452.718,17.582z"/>
	<path fill="#FF4B00" d="M438.476,22.311c-0.707-0.799-1.543-1.505-2.504-2.083c-0.265-0.159-0.544-0.285-0.82-0.419
		c0.122,0.124,0.232,0.255,0.359,0.375C436.409,21.033,437.409,21.74,438.476,22.311z"/>
	<path fill="#FF4B00" d="M426.761,42.622c-0.865-0.632-1.838-1.146-2.906-1.505c-0.309-0.104-0.622-0.189-0.936-0.265
		c0.16,0.105,0.311,0.221,0.477,0.32C424.453,41.807,425.586,42.292,426.761,42.622z"/>
	<path fill="#FF4B00" d="M440.274,19.86c-0.807-0.83-1.72-1.581-2.758-2.204c-0.193-0.116-0.391-0.221-0.589-0.327
		c-1.406-0.753-2.927-1.256-4.494-1.485c-0.649-0.095-1.305-0.146-1.964-0.146c-4.794,0-9.304,2.55-11.769,6.656
		c-2.941,4.898-2.453,10.912,0.756,15.24c0.327-0.023,0.655-0.039,0.987-0.039c1.263,0,2.515,0.186,3.734,0.532
		c-4.455-3.223-5.787-9.39-2.905-14.189c1.955-3.256,5.393-5.2,9.197-5.2c1.626,0,3.222,0.396,4.683,1.11
		c0.276,0.135,0.555,0.261,0.82,0.419c0.961,0.578,1.798,1.284,2.504,2.083c3.014,3.409,3.628,8.515,1.165,12.618
		c-1.955,3.256-5.394,5.201-9.198,5.201c-0.844,0-1.678-0.119-2.494-0.316c1.362,0.894,2.538,2.002,3.484,3.277
		c1.871-0.137,3.676-0.663,5.312-1.51c2.199-4.104,4.677-8.036,7.407-11.774c0.056-2.079-0.36-4.143-1.209-6.032
		C442.298,22.34,441.398,21.017,440.274,19.86z"/>
	<path fill="#FF4B00" d="M419.661,64.958c-0.977-0.428-2.033-0.718-3.147-0.838c-0.317-0.034-0.638-0.045-0.957-0.052
		c0.175,0.067,0.342,0.145,0.521,0.205C417.243,64.665,418.445,64.888,419.661,64.958z"/>
	<path fill="#FF4B00" d="M427.949,39.813c-0.959-0.629-2.002-1.159-3.14-1.541c-0.209-0.07-0.421-0.125-0.632-0.185
		c-1.22-0.346-2.472-0.532-3.734-0.532c-0.332,0-0.66,0.016-0.987,0.039c-5.486,0.393-10.239,4.033-12.011,9.312
		c-1.817,5.413-0.05,11.179,4.011,14.716c1.237-0.366,2.544-0.565,3.896-0.565c0.282,0,0.567,0.028,0.851,0.046
		c-5.059-2.181-7.698-7.927-5.914-13.241c1.467-4.37,5.548-7.306,10.154-7.306c0.834,0,1.662,0.102,2.475,0.295
		c0.314,0.075,0.627,0.161,0.936,0.265c1.068,0.359,2.041,0.873,2.906,1.505c3.667,2.683,5.36,7.53,3.839,12.062
		c-1.469,4.371-5.551,7.307-10.157,7.307c-0.057,0-0.113-0.006-0.169-0.007c1.506,0.578,2.878,1.403,4.065,2.434
		c1.484-0.44,2.877-1.117,4.117-2.01c1.373-5.044,3.127-9.933,5.238-14.628c-0.449-1.692-1.218-3.284-2.26-4.688
		C430.487,41.816,429.312,40.707,427.949,39.813z"/>
	<path fill="#FF4B00" d="M424.338,64.417c-1.187-1.031-2.559-1.856-4.065-2.434c-1.084-0.417-2.23-0.715-3.438-0.845
		c-0.209-0.022-0.42-0.021-0.631-0.034c-0.284-0.018-0.569-0.046-0.851-0.046c-1.352,0-2.659,0.2-3.896,0.565
		c-5.183,1.532-9.116,6.045-9.723,11.681c-0.611,5.679,2.355,10.93,7.081,13.51c1.388-0.769,2.913-1.279,4.517-1.53
		c-5.406-1.044-9.215-6.086-8.615-11.659c0.587-5.455,5.16-9.568,10.636-9.568c0.068,0,0.136,0.01,0.204,0.011
		c0.319,0.006,0.64,0.018,0.957,0.052c1.115,0.12,2.171,0.41,3.147,0.838c3.58,1.569,6.071,5.021,6.38,8.979
		c0.306-2.068,0.676-4.115,1.107-6.141C426.396,66.529,425.452,65.385,424.338,64.417z"/>
	<path fill="#FF4B00" d="M417.526,85.267c1.6,0.241,3.109,0.755,4.482,1.501c1.12-0.62,2.142-1.391,3.043-2.291
		c0.086-2.097,0.231-4.179,0.445-6.241C424.277,81.825,421.245,84.51,417.526,85.267z"/>
	<path fill="#FF4B00" d="M415.379,88.488c0.739,0,1.462-0.071,2.171-0.184c-0.672-0.132-1.364-0.204-2.073-0.204
		c-0.393,0-0.792,0.021-1.187,0.065c-0.323,0.035-0.642,0.089-0.957,0.152c0.188,0.028,0.372,0.069,0.562,0.09
		C414.389,88.461,414.887,88.488,415.379,88.488z"/>
	<path fill="#FF4B00" d="M429.001,76.241c0.078-0.723,0.081-1.436,0.046-2.141c-0.239,1.584-0.44,3.181-0.601,4.789
		C428.711,78.04,428.902,77.156,429.001,76.241z"/>
	<path fill="#FF4B00" d="M420.466,111.568c-1.076,0.026-2.144,0.209-3.175,0.559c-0.306,0.104-0.604,0.224-0.896,0.353
		c0.188-0.014,0.377-0.011,0.564-0.031C418.192,112.312,419.363,112.002,420.466,111.568z"/>
	<path fill="#FF4B00" d="M419.829,108.595c0.299-0.021,0.599-0.037,0.899-0.037c1.305,0,2.573,0.194,3.783,0.542
		c0.79-0.697,1.491-1.484,2.102-2.34c-0.315-1.709-0.587-3.434-0.813-5.172C424.964,104.683,422.772,107.276,419.829,108.595z"/>
	<path fill="#FF4B00" d="M429.093,97.316c-0.15-1.365-0.502-2.662-1.014-3.869c0.138,2.796,0.399,5.56,0.77,8.288
		C429.159,100.32,429.259,98.835,429.093,97.316z"/>
	<path fill="#FF4B00" d="M417.526,85.267c-0.67-0.101-1.352-0.167-2.048-0.167c-0.502,0-1.012,0.028-1.515,0.083
		c-0.213,0.023-0.421,0.068-0.632,0.101c-1.604,0.251-3.129,0.762-4.517,1.53c-1.54,0.854-2.916,2.007-4.051,3.422
		c-2.292,2.857-3.333,6.437-2.933,10.077c0.623,5.652,4.596,10.177,9.811,11.681c1.195-1.056,2.583-1.888,4.104-2.479
		c-0.099,0.003-0.198,0.017-0.297,0.017c-5.464,0-10.036-4.104-10.635-9.546c-0.313-2.844,0.5-5.64,2.291-7.872
		c1.586-1.979,3.773-3.301,6.23-3.795c0.315-0.063,0.633-0.117,0.957-0.152c0.394-0.044,0.793-0.065,1.187-0.065
		c0.708,0,1.401,0.072,2.073,0.204c3.333,0.654,6.123,2.861,7.566,5.88c-0.096-1.74-0.148-3.491-0.153-5.253
		c-0.882-0.849-1.874-1.576-2.955-2.163C420.635,86.022,419.125,85.508,417.526,85.267z"/>
	<path fill="#FF4B00" d="M428.326,133.67c-1.032,0.258-2.03,0.654-2.953,1.212c-0.284,0.171-0.556,0.356-0.82,0.551
		c0.188-0.056,0.378-0.103,0.564-0.166C426.282,134.872,427.349,134.323,428.326,133.67z"/>
	<path fill="#FF4B00" d="M427.094,130.884c1.233-0.358,2.513-0.547,3.806-0.547c0.294,0,0.586,0.01,0.876,0.028
		c0.513-0.703,0.958-1.451,1.329-2.235c-0.627-1.452-1.221-2.923-1.78-4.409C430.933,126.555,429.422,129.157,427.094,130.884z"/>
	<path fill="#FF4B00" d="M433.714,117.88c-0.568-1.68-1.443-3.188-2.543-4.484c0.897,3.392,1.975,6.71,3.22,9.946
		C434.534,121.545,434.327,119.692,433.714,117.88z"/>
	<path fill="#FF4B00" d="M420.728,108.558c-0.3,0-0.6,0.017-0.899,0.037c-1.187,0.078-2.361,0.305-3.5,0.69
		c-0.2,0.067-0.389,0.154-0.584,0.229c-1.521,0.592-2.908,1.424-4.104,2.479c-1.316,1.163-2.408,2.58-3.209,4.202
		c-1.624,3.284-1.871,7.004-0.697,10.473c1.791,5.292,6.586,8.931,12.099,9.288c0.933-1.276,2.099-2.378,3.443-3.277
		c-0.837,0.206-1.692,0.312-2.552,0.312c-4.596,0-8.674-2.928-10.148-7.284c-0.917-2.711-0.724-5.616,0.544-8.182
		c1.125-2.276,2.978-4.038,5.273-5.047c0.292-0.129,0.59-0.249,0.896-0.353c1.032-0.35,2.099-0.532,3.175-0.559
		c0.088-0.002,0.175-0.011,0.262-0.011c2.992,0,5.758,1.247,7.735,3.315c-0.415-1.523-0.795-3.062-1.139-4.613
		c-0.887-0.488-1.829-0.878-2.813-1.16C423.301,108.752,422.033,108.558,420.728,108.558z"/>
	<path fill="#FF4B00" d="M437.472,156.086c0.175-0.095,0.352-0.188,0.522-0.291c1.061-0.641,1.992-1.413,2.81-2.269
		c-0.958,0.473-1.851,1.086-2.644,1.84C437.917,155.597,437.689,155.838,437.472,156.086z"/>
	<path fill="#FF4B00" d="M443.437,149.593c0.302-0.686,0.551-1.394,0.738-2.117c-0.882-1.208-1.739-2.435-2.567-3.682
		c0.06,2.654-0.862,5.277-2.636,7.311C440.358,150.345,441.864,149.836,443.437,149.593z"/>
	<path fill="#FF4B00" d="M442.649,136.969c-1.063-1.764-2.47-3.221-4.105-4.319c1.798,3.514,3.804,6.904,6.002,10.155
		C444.366,140.8,443.757,138.805,442.649,136.969z"/>
	<path fill="#FF4B00" d="M430.9,130.337c-1.292,0-2.572,0.188-3.806,0.547c-1.141,0.331-2.242,0.809-3.271,1.43
		c-0.189,0.114-0.363,0.244-0.545,0.366c-1.344,0.899-2.51,2.001-3.443,3.277c-1.039,1.421-1.802,3.043-2.237,4.804
		c-0.879,3.557-0.32,7.242,1.573,10.379c2.506,4.15,6.899,6.629,11.752,6.629c0.692,0,1.38-0.059,2.06-0.162
		c0.646-1.468,1.563-2.812,2.706-3.991c-1.483,0.742-3.108,1.153-4.766,1.153c-3.793,0-7.226-1.937-9.184-5.18
		c-1.479-2.45-1.916-5.33-1.229-8.108c0.607-2.455,2.03-4.569,4.043-6.048c0.264-0.194,0.536-0.38,0.82-0.551
		c0.923-0.558,1.921-0.954,2.953-1.212c0.84-0.21,1.702-0.333,2.574-0.333c1.934,0,3.771,0.51,5.37,1.435
		c-0.69-1.321-1.352-2.66-1.984-4.016c-0.814-0.204-1.653-0.338-2.51-0.391C431.486,130.347,431.194,130.337,430.9,130.337z"/>
	<path fill="#FF4B00" d="M455.701,171.781h0.464c0.388-0.476,0.735-0.973,1.05-1.486
		C456.667,170.738,456.157,171.23,455.701,171.781z"/>
	<path fill="#FF4B00" d="M451.844,171.781h0.214c0.058-0.1,0.119-0.196,0.179-0.294C452.109,171.59,451.976,171.685,451.844,171.781
		z"/>
	<path fill="#FF4B00" d="M454.927,168.286c1.199-1.046,2.563-1.877,4.04-2.45c0.128-0.645,0.208-1.297,0.243-1.951
		c-1.084-0.948-2.151-1.917-3.194-2.91C456.52,163.439,456.157,166.04,454.927,168.286z"/>
	<path fill="#FF4B00" d="M434.829,162.856c0.064-2.526,0.997-4.895,2.643-6.771c0.218-0.248,0.446-0.489,0.688-0.72
		c0.793-0.754,1.687-1.367,2.644-1.84c1.458-0.721,3.069-1.108,4.733-1.108c0.966,0,1.905,0.138,2.81,0.382
		c-0.928-1.105-1.832-2.231-2.712-3.377c-0.033,0-0.064-0.005-0.097-0.005c-0.71,0-1.41,0.068-2.101,0.175
		c-1.572,0.243-3.079,0.752-4.466,1.512c-1.033,0.565-2.003,1.257-2.876,2.086c-0.143,0.136-0.27,0.284-0.406,0.425
		c-1.142,1.18-2.06,2.523-2.706,3.991c-0.709,1.61-1.105,3.28-1.152,5.094c-0.084,3.31,1.01,6.923,3.082,8.923h4.316
		c-0.515,0-1.005-0.718-1.456-1.191C435.802,168.356,434.756,165.717,434.829,162.856z"/>
	<path fill="#FF4B00" d="M458.722,159.397c-0.584-2.074-1.658-4.042-3.242-5.71c-1.53-1.61-3.379-2.784-5.407-3.492
		C452.754,153.448,455.646,156.52,458.722,159.397z"/>
	<path fill="#FF4B00" d="M471.608,167.179c-1.921-1.3-4.109-2.114-6.39-2.327c3.148,2.467,6.455,4.771,9.897,6.771h0.679
		C474.789,169.623,473.393,168.386,471.608,167.179z"/>
	<path fill="#FF4B00" d="M457.215,170.216c1.882-1.52,4.237-2.353,6.724-2.353c0.062,0,0.124,0.026,0.185,0.027
		c-1.115-0.857-2.213-1.727-3.292-2.63c-0.636,0.147-1.261,0.335-1.866,0.57c-1.477,0.573-2.841,1.406-4.04,2.452
		c-0.885,0.772-1.684,1.658-2.358,2.656c-0.12,0.178-0.221,0.285-0.332,0.468c-0.06,0.098-0.122,0.216-0.179,0.216h3.643
		C456.157,171.623,456.667,170.659,457.215,170.216z"/>
	<path fill="#FF4B00" d="M572.921,171.623h1.781c0.547,0,1.088-0.663,1.627-1.002C575.156,170.805,574.013,171.623,572.921,171.623z
		"/>
	<path fill="#FF4B00" d="M580.3,171.623h3.697c-0.795,0-1.627-0.629-2.482-0.826C581.111,171.074,580.708,171.623,580.3,171.623z"/>
	<path fill="#FF4B00" d="M606,159.427c0.623,0.865,1.375,1.644,2.25,2.305c0.256,0.194,0.521,0.374,0.791,0.544
		c-0.115-0.148-0.219-0.302-0.342-0.445C607.904,160.898,606.988,160.104,606,159.427z"/>
	<path fill="#FF4B00" d="M611.294,166.396c-1.541-0.396-2.998-1.106-4.332-2.026c1.562,2.176,2.197,5.254,1.949,7.254h3.016
		C612.064,169.623,611.855,168.118,611.294,166.396z"/>
	<path fill="#FF4B00" d="M598.259,157.013c-0.186,0-0.369,0.018-0.553,0.024c-1.277,1.358-2.588,2.685-3.939,3.97
		c1.4-0.647,2.932-0.994,4.492-0.994c2.031,0,3.986,0.579,5.668,1.629c-0.984-1.251-1.742-2.656-2.238-4.177
		C600.58,157.179,599.431,157.013,598.259,157.013z"/>
	<path fill="#FF4B00" d="M587.583,169.796c0.135-1.697,0.666-3.259,1.527-4.671c-1.432,1.203-2.895,2.391-4.393,3.514
		c-0.049,0.324-0.1,0.579-0.125,0.909c-0.059,0.722-0.043,1.075,0.01,2.075h3.004C587.546,171.623,587.533,170.438,587.583,169.796z
		"/>
	<path fill="#FF4B00" d="M586.816,163.18c1.785-1.485,3.516-3.033,5.189-4.64c-0.936,0.481-1.826,1.061-2.639,1.753
		C588.371,161.143,587.519,162.116,586.816,163.18z"/>
	<path fill="#FF4B00" d="M619.814,140.467c0.799,0.723,1.711,1.33,2.719,1.793c0.287,0.133,0.578,0.242,0.871,0.348
		c-0.139-0.114-0.268-0.236-0.412-0.346C622.003,141.513,620.935,140.918,619.814,140.467z"/>
	<path fill="#FF4B00" d="M603.521,145.297c0.127-0.176,0.258-0.349,0.383-0.524c-0.039,0.05-0.084,0.093-0.121,0.144
		C603.689,145.039,603.611,145.171,603.521,145.297z"/>
	<path fill="#FF4B00" d="M625.326,151.724c0.391,2.834-0.344,5.65-2.07,7.931c-2.045,2.702-5.162,4.251-8.553,4.251
		c-2.025,0-3.963-0.562-5.662-1.63c-0.27-0.17-0.535-0.35-0.791-0.544c-0.875-0.661-1.627-1.439-2.25-2.305
		c-1.002-1.396-1.658-3.02-1.9-4.77c-0.371-2.693,0.287-5.365,1.838-7.583c-1.561,2.156-3.203,4.248-4.926,6.27
		c0.008,0.573,0.037,1.148,0.117,1.725c0.113,0.823,0.309,1.622,0.561,2.396c0.496,1.521,1.254,2.926,2.238,4.177
		c0.723,0.918,1.555,1.758,2.512,2.481c0.17,0.13,0.348,0.245,0.523,0.365c1.334,0.92,2.791,1.591,4.332,1.986
		c1.102,0.282,2.244,0.431,3.408,0.431c4.34,0,8.328-1.982,10.945-5.44c2.211-2.92,3.15-6.525,2.648-10.152
		c-0.252-1.828-0.857-3.55-1.77-5.092c-1.611-0.056-3.18-0.395-4.68-1.009C623.746,146.902,624.972,149.181,625.326,151.724z"/>
	<path fill="#FF4B00" d="M614.722,142.479c1.229,0,2.422,0.211,3.553,0.61c-1.225-1.008-2.264-2.216-3.07-3.591
		c-0.162-0.006-0.32-0.02-0.482-0.02c-1.451,0-2.859,0.241-4.193,0.666c-1.334,2.208-2.75,4.36-4.244,6.452
		C608.33,143.981,611.392,142.479,614.722,142.479z"/>
	<path fill="#FF4B00" d="M632.261,123.204c2.215,1.241,3.904,3.202,4.795,5.61c0.992,2.684,0.881,5.592-0.314,8.19
		c-1.746,3.792-5.568,6.241-9.738,6.241c-1.234,0-2.439-0.221-3.6-0.639c-0.293-0.105-0.584-0.215-0.871-0.348
		c-1.008-0.463-1.92-1.07-2.719-1.793c-1.266-1.143-2.248-2.578-2.855-4.222c-0.992-2.683-0.879-5.592,0.32-8.191
		c1.742-3.789,5.562-6.238,9.732-6.238c0.441,0,0.879,0.034,1.312,0.088c-1.416-0.722-2.695-1.681-3.781-2.854
		c-1.838,0.34-3.574,1.047-5.107,2.065c-1.641,4.755-3.629,9.347-5.936,13.749c0.143,0.816,0.352,1.627,0.645,2.421
		c0.287,0.777,0.648,1.513,1.061,2.213c0.807,1.375,1.846,2.583,3.07,3.591c0.908,0.747,1.908,1.393,3.004,1.896
		c0.188,0.086,0.379,0.149,0.568,0.227c1.5,0.614,3.068,0.953,4.68,1.009c0.16,0.006,0.316,0.025,0.477,0.025
		c5.338,0,10.23-3.135,12.463-7.987c1.529-3.327,1.674-7.05,0.404-10.484c-0.639-1.727-1.598-3.275-2.814-4.583
		c-0.803,0.149-1.627,0.232-2.467,0.232C633.812,123.424,633.033,123.337,632.261,123.204z"/>
	<path fill="#FF4B00" d="M629.279,119.024c0.93,0.525,1.941,0.916,3.014,1.149c0.307,0.067,0.617,0.111,0.926,0.151
		c-0.16-0.081-0.312-0.173-0.477-0.248C631.626,119.563,630.466,119.225,629.279,119.024z"/>
	<path fill="#FF4B00" d="M637.494,96.312c-0.967-0.211-1.955-0.317-2.936-0.317c-0.43,0-0.854,0.024-1.275,0.063
		c-1.477,0.141-2.896,0.524-4.217,1.11c-1.914,0.849-3.609,2.127-4.959,3.722c-0.553,4.485-1.402,8.881-2.529,13.164
		c0.357,1.064,0.834,2.096,1.455,3.064c0.447,0.696,0.957,1.337,1.51,1.931c1.086,1.173,2.365,2.132,3.781,2.854
		c1.045,0.532,2.156,0.946,3.33,1.202c0.201,0.044,0.404,0.064,0.607,0.099c0.771,0.133,1.551,0.22,2.328,0.22
		c0.84,0,1.664-0.083,2.467-0.232c5.326-0.993,9.73-5.131,10.914-10.567c0.779-3.578,0.119-7.245-1.861-10.326
		c-0.945-1.475-2.146-2.723-3.525-3.716c-1.188-0.855-2.51-1.518-3.934-1.958C638.271,96.507,637.886,96.398,637.494,96.312z
		 M643.585,103.919c1.547,2.407,2.062,5.271,1.453,8.066c-1.064,4.89-5.459,8.438-10.449,8.438c-0.455,0-0.914-0.039-1.371-0.099
		c-0.309-0.04-0.619-0.084-0.926-0.151c-1.072-0.233-2.084-0.624-3.014-1.149c-1.492-0.845-2.768-2.043-3.721-3.526
		c-1.547-2.407-2.062-5.271-1.451-8.068c0.947-4.353,4.537-7.635,8.838-8.303c0.529-0.082,1.066-0.132,1.613-0.132
		c0.766,0,1.539,0.084,2.297,0.249c0.51,0.111,1,0.269,1.48,0.447C640.488,100.495,642.322,101.951,643.585,103.919z"/>
	<path fill="#FF4B00" d="M584.718,168.658c1.498-1.123,2.961-2.291,4.393-3.494c1.594-1.339,3.15-2.723,4.656-4.157
		c1.352-1.285,2.662-2.611,3.939-3.97c1.131-1.203,2.232-2.435,3.305-3.693c1.723-2.021,3.365-4.113,4.926-6.27
		c0.115-0.159,0.232-0.316,0.348-0.478c1.494-2.092,2.91-4.244,4.244-6.452c1.041-1.727,2.031-3.488,2.971-5.28
		c2.307-4.402,4.295-8.994,5.936-13.749c0.797-2.316,1.514-4.671,2.143-7.061c1.127-4.283,1.977-8.679,2.529-13.164
		c0.354-2.879,0.58-5.795,0.684-8.743c0.041-1.17,0.068-2.343,0.068-3.522c0-2.74-0.115-5.454-0.332-8.139
		c-0.291-3.591-0.775-7.128-1.438-10.603c-0.613-3.22-1.381-6.386-2.297-9.49c-1.195-4.05-2.639-7.994-4.316-11.814
		c-1.029-2.346-2.146-4.645-3.348-6.893c-2.334-4.37-4.982-8.548-7.916-12.502c-1.045-1.408-2.123-2.79-3.24-4.139
		c-3.654-4.423-7.686-8.524-12.037-12.26c-0.721-0.619-1.451-1.023-2.188-1.621c-2.051-1.662-4.166-3.54-6.344-4.54h-5.479
		c27.551,17,45.934,47.451,45.934,82.203c0,20.91-6.654,40.193-17.955,56.047c-0.125,0.176-0.256,0.299-0.383,0.475
		c-3.438,4.755-7.293,9.163-11.516,13.218c-1.674,1.606-3.404,3.142-5.189,4.627c-3.316,2.758-6.82,5.211-10.486,7.514
		c-0.539,0.339-1.08,0.917-1.627,0.917h5.598c0.408,0,0.811-0.47,1.215-0.747C582.597,170.129,583.667,169.446,584.718,168.658z"/>
	<path fill="#FF4B00" d="M458.722,159.397c-3.076-2.878-5.968-5.949-8.648-9.202c-1.955-2.372-3.801-4.838-5.527-7.391
		c-2.198-3.251-4.204-6.642-6.002-10.155c-1.543-3.015-2.927-6.122-4.153-9.308c-1.246-3.236-2.323-6.555-3.22-9.946
		c-1.005-3.801-1.783-7.692-2.322-11.66c-0.371-2.729-0.632-5.492-0.77-8.288c-0.079-1.598-0.12-3.205-0.12-4.822
		c0-3.286,0.166-6.534,0.487-9.737c0.161-1.608,0.362-3.003,0.601-4.587c4.32-28.631,21.208-53.678,44.846-67.678h-5.479
		c-0.862,0-1.714,0.997-2.557,1.616c-2.741,2.014-5.377,4.06-7.896,6.336c-3.014,2.724-5.863,5.576-8.527,8.644
		c-1.853,2.134-3.613,4.326-5.283,6.612c-2.73,3.738-5.208,7.658-7.407,11.762c-1.085,2.026-2.105,4.085-3.052,6.192
		c-2.111,4.695-3.865,9.581-5.238,14.625c-0.483,1.778-0.92,3.572-1.307,5.388c-0.431,2.025-0.802,4.072-1.107,6.14
		c-0.211,1.424-0.394,2.856-0.544,4.299c-0.214,2.062-0.359,4.144-0.445,6.241c-0.057,1.376-0.093,2.758-0.093,4.147
		c0,0.103,0.003,0.204,0.004,0.307c0.005,1.762,0.058,3.513,0.153,5.253c0.137,2.492,0.365,4.962,0.683,7.403
		c0.226,1.738,0.499,3.463,0.813,5.172c0.216,1.174,0.455,2.34,0.712,3.5c0.344,1.552,0.724,3.09,1.139,4.613
		c0.819,3.008,1.775,5.959,2.862,8.848c0.559,1.486,1.152,2.957,1.78,4.409c0.381,0.882,0.776,1.758,1.181,2.626
		c0.632,1.355,1.293,2.694,1.984,4.016c1.624,3.106,3.407,6.117,5.337,9.022c0.829,1.247,1.685,2.474,2.567,3.682
		c0.479,0.655,0.965,1.304,1.46,1.947c0.88,1.146,1.784,2.271,2.712,3.377c2.405,2.864,4.963,5.597,7.669,8.175
		c1.042,0.993,2.109,1.962,3.194,2.91c0.536,0.468,1.077,0.93,1.623,1.386c1.078,0.903,2.176,1.703,3.292,2.561
		c1.754,1.348,3.552,2.792,5.394,3.792h5.598c-3.443-2-6.749-4.265-9.897-6.732C462.97,163.129,460.805,161.347,458.722,159.397z"/>
</g>
<g>
	<g>
		<path fill="#FF4B00" d="M323.333,96.233c-6.65,0-12.061-5.41-12.061-12.061s5.41-12.061,12.061-12.061s12.061,5.41,12.061,12.061
			S329.984,96.233,323.333,96.233z M323.333,75.112c-4.996,0-9.061,4.064-9.061,9.061s4.064,9.061,9.061,9.061
			s9.061-4.064,9.061-9.061S328.33,75.112,323.333,75.112z"/>
	</g>
	<g>
		<path fill="#FF4B00" d="M323.333,101.854c-9.75,0-17.682-7.932-17.682-17.681s7.932-17.681,17.682-17.681
			c9.749,0,17.681,7.932,17.681,17.681S333.083,101.854,323.333,101.854z M323.333,69.492c-8.096,0-14.682,6.586-14.682,14.681
			s6.586,14.681,14.682,14.681c8.095,0,14.681-6.586,14.681-14.681S331.428,69.492,323.333,69.492z"/>
	</g>
	<g>
		<path fill="#FF4B00" d="M323.333,110.029c-14.259,0-25.859-11.6-25.859-25.856c0-14.258,11.601-25.857,25.859-25.857
			c14.258,0,25.857,11.6,25.857,25.857C349.191,98.43,337.591,110.029,323.333,110.029z M323.333,61.315
			c-12.604,0-22.859,10.254-22.859,22.857s10.255,22.856,22.859,22.856c12.604,0,22.857-10.253,22.857-22.856
			S335.937,61.315,323.333,61.315z"/>
	</g>
	<g>
		<path fill="#FF4B00" d="M323.333,61.315c-2.455,0-4.452-1.997-4.452-4.452s1.997-4.453,4.452-4.453
			c2.456,0,4.453,1.998,4.453,4.453S325.789,61.315,323.333,61.315z M323.333,55.41c-0.801,0-1.452,0.652-1.452,1.453
			s0.651,1.452,1.452,1.452c0.801,0,1.453-0.651,1.453-1.452S324.135,55.41,323.333,55.41z"/>
	</g>
	<g>
		<path fill="#FF4B00" d="M350.644,88.463c-2.443,0-4.441-1.986-4.453-4.427c-0.015-2.453,1.97-4.463,4.425-4.478
			c2.47,0,4.468,1.986,4.479,4.429c0.007,1.188-0.45,2.309-1.286,3.154c-0.836,0.846-1.951,1.315-3.139,1.321H350.644z
			 M350.641,82.559c-0.808,0.005-1.455,0.66-1.45,1.461c0.004,0.797,0.655,1.443,1.453,1.443v1.5l0.009-1.5
			c0.387-0.002,0.75-0.155,1.023-0.431c0.273-0.275,0.422-0.642,0.419-1.029C352.091,83.206,351.439,82.559,350.641,82.559z"/>
	</g>
	<g>
		<path fill="#FF4B00" d="M323.657,115.934c-2.429,0-4.426-1.975-4.452-4.401c-0.029-2.452,1.943-4.474,4.397-4.505
			c2.482,0,4.479,1.975,4.505,4.401c0.015,1.188-0.435,2.312-1.265,3.163c-0.831,0.851-1.943,1.327-3.133,1.342H323.657z
			 M323.655,110.027c-0.816,0.01-1.46,0.67-1.45,1.471c0.008,0.792,0.66,1.436,1.452,1.436v1.5l0.017-1.5
			c0.387-0.005,0.75-0.16,1.021-0.438c0.271-0.277,0.417-0.644,0.412-1.032C325.099,110.671,324.447,110.027,323.655,110.027z"/>
	</g>
	<g>
		<path fill="#FF4B00" d="M296.028,89.109c-2.412,0-4.409-1.961-4.453-4.371c-0.044-2.455,1.918-4.488,4.374-4.533
			c0,0,0.001,0,0.001,0c2.491,0,4.486,1.963,4.528,4.375c0.042,2.453-1.918,4.485-4.372,4.529H296.028z M296.03,83.205
			c-0.829,0.015-1.469,0.678-1.455,1.479c0.014,0.786,0.666,1.426,1.453,1.426v1.5l0.026-1.501c0.799-0.014,1.438-0.677,1.424-1.478
			C297.465,83.845,296.815,83.205,296.03,83.205z"/>
	</g>
	<g>
		<g>
			<path fill="#FF4B00" d="M308.638,163.393c-3.107,0-5.635-2.528-5.635-5.636c0-3.106,2.528-5.634,5.635-5.634
				s5.635,2.527,5.635,5.634C314.273,160.864,311.745,163.393,308.638,163.393z M308.638,155.123c-1.453,0-2.635,1.182-2.635,2.634
				c0,1.453,1.182,2.636,2.635,2.636s2.635-1.183,2.635-2.636C311.273,156.305,310.091,155.123,308.638,155.123z"/>
		</g>
		<g>
			<path fill="#FF4B00" d="M308.638,19.878c-3.107,0-5.635-2.528-5.635-5.636s2.528-5.636,5.635-5.636s5.635,2.528,5.635,5.636
				S311.745,19.878,308.638,19.878z M308.638,11.606c-1.453,0-2.635,1.183-2.635,2.636s1.182,2.636,2.635,2.636
				s2.635-1.183,2.635-2.636S310.091,11.606,308.638,11.606z"/>
		</g>
		<g>
			<path fill="#FF4B00" d="M308.638,155.123c-38.114,0-69.122-31.009-69.122-69.123s31.008-69.122,69.122-69.122v3
				c-36.46,0-66.122,29.662-66.122,66.122s29.662,66.123,66.122,66.123V155.123z"/>
		</g>
	</g>
	<g>
		<g>
			<path fill="#FF4B00" d="M309.819,139.705c-2.454,0-4.45-1.997-4.45-4.452s1.997-4.453,4.45-4.453
				c2.456,0,4.454,1.998,4.454,4.453S312.275,139.705,309.819,139.705z M309.819,133.8c-0.8,0-1.45,0.652-1.45,1.453
				s0.65,1.452,1.45,1.452c0.802,0,1.454-0.651,1.454-1.452S310.621,133.8,309.819,133.8z"/>
		</g>
		<g>
			<path fill="#FF4B00" d="M309.819,37.223c-2.454,0-4.45-1.997-4.45-4.452s1.997-4.453,4.45-4.453c2.456,0,4.454,1.998,4.454,4.453
				S312.275,37.223,309.819,37.223z M309.819,31.317c-0.8,0-1.45,0.652-1.45,1.453s0.65,1.452,1.45,1.452
				c0.802,0,1.454-0.651,1.454-1.452S310.621,31.317,309.819,31.317z"/>
		</g>
		<g>
			<path fill="#FF4B00" d="M309.819,133.8c-27.452,0-49.786-22.335-49.786-49.789c0-27.453,22.334-49.788,49.786-49.788v3
				c-25.798,0-46.786,20.989-46.786,46.788c0,25.8,20.988,46.789,46.786,46.789V133.8z"/>
		</g>
	</g>
	<g>
		<rect y="84.5" fill="#FF4B00" width="241.016" height="3"/>
	</g>
</g>
<g>
	<g>
		<path fill="#FF4B00" d="M728.271,99.886c-6.65,0-12.061-5.41-12.061-12.06s5.41-12.06,12.061-12.06s12.061,5.41,12.061,12.061
			C740.332,94.477,734.921,99.886,728.271,99.886z M728.271,78.767c-4.996,0-9.061,4.064-9.061,9.06s4.064,9.06,9.061,9.06
			s9.061-4.063,9.061-9.059C737.332,82.831,733.267,78.767,728.271,78.767z"/>
	</g>
	<g>
		<path fill="#FF4B00" d="M728.271,105.509c-9.748,0-17.68-7.933-17.68-17.683c0-9.748,7.932-17.68,17.68-17.68
			c9.75,0,17.682,7.932,17.682,17.681C745.953,97.577,738.021,105.509,728.271,105.509z M728.271,73.146
			c-8.094,0-14.68,6.586-14.68,14.68c0,8.096,6.586,14.683,14.68,14.683c8.096,0,14.682-6.586,14.682-14.682
			C742.953,79.732,736.367,73.146,728.271,73.146z"/>
	</g>
	<g>
		<path fill="#FF4B00" d="M728.271,113.684c-14.256,0-25.855-11.6-25.855-25.857c0-14.257,11.6-25.856,25.855-25.856
			c14.26,0,25.859,11.6,25.859,25.857C754.13,102.084,742.531,113.684,728.271,113.684z M728.271,64.97
			c-12.604,0-22.855,10.254-22.855,22.856c0,12.604,10.252,22.857,22.855,22.857c12.605,0,22.859-10.253,22.859-22.856
			S740.876,64.97,728.271,64.97z"/>
	</g>
	<g>
		<path fill="#FF4B00" d="M728.271,119.589c-2.455,0-4.453-1.997-4.453-4.451c0-2.456,1.998-4.454,4.453-4.454
			s4.453,1.998,4.453,4.454C732.724,117.592,730.726,119.589,728.271,119.589z M728.271,113.684c-0.801,0-1.453,0.652-1.453,1.454
			c0,0.8,0.652,1.451,1.453,1.451s1.453-0.651,1.453-1.451C729.724,114.336,729.072,113.684,728.271,113.684z"/>
	</g>
	<g>
		<path fill="#FF4B00" d="M700.962,92.44c-2.445,0-4.441-1.987-4.451-4.43c-0.008-1.186,0.449-2.306,1.285-3.152
			c0.836-0.846,1.951-1.315,3.139-1.322c2.467,0,4.465,1.985,4.48,4.426c0.014,2.455-1.973,4.464-4.426,4.479H700.962z
			 M700.962,86.536c-0.396,0.002-0.76,0.155-1.031,0.431c-0.273,0.276-0.422,0.642-0.42,1.029c0.002,0.798,0.654,1.444,1.451,1.444
			v1.5l0.01-1.5c0.799-0.005,1.447-0.66,1.443-1.462C702.41,87.184,701.757,86.536,700.962,86.536z"/>
	</g>
	<g>
		<path fill="#FF4B00" d="M727.951,64.972c-2.428,0-4.426-1.974-4.453-4.4c-0.027-2.454,1.945-4.475,4.398-4.506
			c2.48,0,4.479,1.975,4.506,4.401c0.027,2.453-1.945,4.475-4.398,4.505H727.951z M727.949,59.065
			c-0.816,0.01-1.461,0.67-1.451,1.472c0.008,0.791,0.66,1.435,1.453,1.435v1.5l0.018-1.5c0.799-0.01,1.441-0.67,1.434-1.471
			C729.392,59.709,728.742,59.065,727.949,59.065z"/>
	</g>
	<g>
		<path fill="#FF4B00" d="M755.574,91.795c-2.412-0.001-4.406-1.963-4.447-4.375c-0.043-2.452,1.918-4.484,4.371-4.529h0.002
			c2.488,0,4.486,1.961,4.531,4.372c0.02,1.19-0.424,2.315-1.25,3.172s-1.938,1.339-3.125,1.359L755.574,91.795z M755.576,85.89
			c-0.824,0.015-1.463,0.679-1.449,1.479c0.012,0.786,0.662,1.425,1.447,1.426v1.5l0.027-1.501c0.803-0.014,1.443-0.677,1.43-1.479
			C757.015,86.53,756.363,85.89,755.576,85.89z"/>
	</g>
	<g>
		<g>
			<path fill="#FF4B00" d="M742.968,19.877c-3.107,0-5.637-2.527-5.637-5.635s2.529-5.636,5.637-5.636
				c3.105,0,5.633,2.528,5.633,5.636S746.074,19.877,742.968,19.877z M742.968,11.606c-1.453,0-2.637,1.183-2.637,2.636
				s1.184,2.635,2.637,2.635c1.451,0,2.633-1.182,2.633-2.635S744.419,11.606,742.968,11.606z"/>
		</g>
		<g>
			<path fill="#FF4B00" d="M742.968,163.393c-3.107,0-5.637-2.528-5.637-5.636s2.529-5.635,5.637-5.635
				c3.105,0,5.633,2.527,5.633,5.635S746.074,163.393,742.968,163.393z M742.968,155.122c-1.453,0-2.637,1.182-2.637,2.635
				s1.184,2.636,2.637,2.636c1.451,0,2.633-1.183,2.633-2.636S744.419,155.122,742.968,155.122z"/>
		</g>
		<g>
			<path fill="#FF4B00" d="M742.968,155.122v-3c36.459,0,66.121-29.662,66.121-66.121c0-36.461-29.662-66.124-66.121-66.124v-3
				c38.113,0,69.121,31.009,69.121,69.124C812.089,124.114,781.082,155.122,742.968,155.122z"/>
		</g>
	</g>
	<g>
		<g>
			<path fill="#FF4B00" d="M741.787,41.199c-2.457,0-4.455-1.997-4.455-4.453c0-2.454,1.998-4.451,4.455-4.451
				c2.453,0,4.449,1.997,4.449,4.451C746.236,39.202,744.24,41.199,741.787,41.199z M741.787,35.295
				c-0.803,0-1.455,0.651-1.455,1.451c0,0.802,0.652,1.453,1.455,1.453c0.799,0,1.449-0.651,1.449-1.453
				C743.236,35.946,742.585,35.295,741.787,35.295z"/>
		</g>
		<g>
			<path fill="#FF4B00" d="M741.787,143.682c-2.457,0-4.455-1.998-4.455-4.453s1.998-4.452,4.455-4.452
				c2.453,0,4.449,1.997,4.449,4.452S744.24,143.682,741.787,143.682z M741.787,137.776c-0.803,0-1.455,0.651-1.455,1.452
				s0.652,1.453,1.455,1.453c0.799,0,1.449-0.652,1.449-1.453S742.585,137.776,741.787,137.776z"/>
		</g>
		<g>
			<path fill="#FF4B00" d="M741.787,137.776v-3c25.799,0,46.787-20.989,46.787-46.788c0-25.8-20.988-46.789-46.787-46.789v-3
				c27.453,0,49.787,22.336,49.787,49.789S769.24,137.776,741.787,137.776z"/>
		</g>
	</g>
	<g>
		<rect x="810.589" y="84.501" fill="#FF4B00" width="239.652" height="3"/>
	</g>
</g>
</svg>
