<?xml version="1.0" encoding="utf-8"?>
<!-- Generator: Adobe Illustrator 16.0.0, SVG Export Plug-In . SVG Version: 6.00 Build 0)  -->
<!DOCTYPE svg PUBLIC "-//W3C//DTD SVG 1.1//EN" "http://www.w3.org/Graphics/SVG/1.1/DTD/svg11.dtd">
<svg version="1.1" id="Layer_1" xmlns="http://www.w3.org/2000/svg" xmlns:xlink="http://www.w3.org/1999/xlink" x="0px" y="0px"
	 width="1050.788px" height="171.563px" viewBox="0 0 1050.788 171.563" enable-background="new 0 0 1050.788 171.563"
	 xml:space="preserve">
<rect x="-0.212" y="0.405" fill="#FFFFFF" width="1051" height="171"/>
<g>
	<path fill="none" d="M560.989,120.81l-3.191,8.821c4.45,1.449,9.194,2.242,14.122,2.242c6.407,0,12.508-1.33,18.05-3.719
		l-3.976-8.482c-4.331,1.809-9.079,2.812-14.058,2.812C568.125,122.484,564.447,121.896,560.989,120.81z"/>
	<path fill="none" d="M562.309,84.25l-8.658-3.132c-0.44,1.602-0.695,3.28-0.695,5.02c0,2.347,0.448,4.586,1.23,6.662l8.463-3.967
		c-0.308-0.948-0.479-1.958-0.479-3.009C562.17,85.288,562.225,84.764,562.309,84.25z"/>
	<path fill="none" d="M641.609,114.05c1.657,0,3.005-1.347,3.005-3.003s-1.348-3.003-3.005-3.003c-1.655,0-3.002,1.347-3.002,3.003
		S639.954,114.05,641.609,114.05z"/>
	<path fill="none" d="M491.567,149.2c0.033,0,0.064,0.005,0.097,0.005c-0.495-0.644-0.981-1.292-1.46-1.947
		c-0.187,0.724-0.436,1.432-0.738,2.117C490.157,149.268,490.857,149.2,491.567,149.2z"/>
	<path fill="none" d="M565.889,107.265l-3.878,10.721c3.139,0.973,6.472,1.498,9.926,1.498c4.524,0,8.84-0.904,12.782-2.532
		l-4.838-10.325c-2.466,0.959-5.144,1.491-7.944,1.491C569.839,108.118,567.812,107.816,565.889,107.265z"/>
	<path fill="none" d="M544.528,20c0-1.657-1.348-3.005-3.004-3.005c-1.656,0-3.003,1.348-3.003,3.005
		c0,1.656,1.347,3.003,3.003,3.003C543.181,23.002,544.528,21.655,544.528,20z"/>
	<path fill="none" d="M503.663,58.544c-1.656,0-3.004,1.347-3.004,3.003s1.348,3.003,3.004,3.003c1.656,0,3.003-1.347,3.003-3.003
		S505.319,58.544,503.663,58.544z"/>
	<path fill="none" d="M505.69,114.513c-1.655,0-3.002,1.348-3.002,3.004c0,1.655,1.347,3.002,3.002,3.002
		c1.656,0,3.004-1.347,3.004-3.002C508.694,115.861,507.347,114.513,505.69,114.513z"/>
	<path fill="none" d="M570.173,95.422l-3.256,9c1.602,0.44,3.28,0.695,5.02,0.695c2.347,0,4.585-0.448,6.661-1.229l-4.059-8.661
		c-0.83,0.23-1.7,0.363-2.603,0.363C571.333,95.59,570.746,95.528,570.173,95.422z"/>
	<path fill="none" d="M596.989,19.465c1.656,0,3.004-1.347,3.004-3.003s-1.348-3.003-3.004-3.003c-1.655,0-3.002,1.347-3.002,3.003
		S595.334,19.465,596.989,19.465z"/>
	<path fill="none" d="M506.863,165.052c-0.545-0.456-1.087-0.918-1.623-1.386c-0.036,0.654-0.115,1.307-0.243,1.951
		C505.602,165.382,506.227,165.2,506.863,165.052z"/>
	<path fill="none" d="M630.789,6.405h-3.355c2.179,1,4.294,3.08,6.344,4.742C632.43,9.757,631.434,7.405,630.789,6.405z"/>
	<path fill="none" d="M536.966,75.082l-8.533-3.086c-1.453,4.457-2.249,9.208-2.249,14.143c0,6.405,1.329,12.504,3.717,18.044
		l8.378-3.927c-1.892-4.414-2.943-9.271-2.943-14.37C535.337,82.126,535.908,78.498,536.966,75.082z"/>
	<path fill="none" d="M568.377,91.568l0.917-2.534l-2.503,1.173C567.245,90.739,567.781,91.197,568.377,91.568z"/>
	<path fill="none" d="M564.011,91.509l-8.554,4.009c1.974,3.454,4.998,6.224,8.638,7.884l3.244-8.966
		C566.017,93.728,564.882,92.72,564.011,91.509z"/>
	<path fill="none" d="M571.937,92.59c0.447,0,0.883-0.046,1.307-0.129l-1.128-2.407l-0.903,2.496
		C571.45,92.576,571.691,92.59,571.937,92.59z"/>
	<path fill="none" d="M678.976,98.909c-4.301,0.668-7.891,3.95-8.838,8.303c-0.611,2.797-0.096,5.661,1.45,8.068
		c0.953,1.483,2.229,2.682,3.722,3.526c1.187,0.2,2.348,0.539,3.463,1.053c0.164,0.075,0.316,0.167,0.477,0.248
		c0.457,0.06,0.915,0.099,1.371,0.099c4.99,0,9.385-3.549,10.449-8.438c0.608-2.795,0.093-5.659-1.453-8.066
		c-1.264-1.968-3.098-3.424-5.251-4.228c-0.423,0.04-0.85,0.065-1.283,0.065C681.651,99.539,680.272,99.317,678.976,98.909z"/>
	<path fill="none" d="M550.809,80.09l-11.016-3.985c-0.944,3.097-1.456,6.379-1.456,9.781c0,4.644,0.948,9.07,2.659,13.097
		l10.453-4.898c-0.959-2.466-1.492-5.144-1.492-7.945C549.956,84.041,550.258,82.013,550.809,80.09z"/>
	<path fill="none" d="M539.578,102.96l-8.392,3.933c5.022,9.817,13.484,17.587,23.792,21.714l3.191-8.82
		C550.178,116.53,543.59,110.531,539.578,102.96z"/>
	<path fill="none" d="M665.583,6.405c2.156,1,4.071,2.166,5.545,4.102c2.218,2.917,3.167,6.42,2.673,10.05
		c-0.245,1.802-0.833,3.452-1.719,4.979c0.193-0.008,0.385-0.056,0.58-0.056c5.327,0,10.216,3.11,12.454,7.942
		c2.387,5.161,1.281,11.051-2.33,15.009c5.364,0.956,9.819,5.099,11.021,10.553c0.788,3.578,0.135,7.247-1.838,10.333
		c-0.978,1.529-2.222,2.822-3.662,3.835c4.977,2.059,8.488,6.961,8.488,12.672c0,5.592-3.37,10.407-8.182,12.539
		c1.38,0.993,2.58,2.241,3.526,3.716c1.979,3.081,2.641,6.748,1.861,10.326c-1.184,5.437-5.588,9.574-10.914,10.567
		c1.217,1.308,2.175,2.856,2.813,4.583c1.27,3.435,1.126,7.157-0.404,10.484c-2.232,4.853-7.124,7.987-12.463,7.987
		c-0.16,0-0.316-0.02-0.476-0.025c0.911,1.542,1.517,3.264,1.77,5.092c0.502,3.627-0.438,7.232-2.648,10.152
		c-2.617,3.458-6.606,5.44-10.945,5.44c-1.165,0-2.307-0.228-3.408-0.51c0.56,1.723,0.77,3.228,0.633,5.228h484.83v-165H665.583z"/>
	<path fill="none" d="M636.691,9.572c1.935,1.642,4.396,2.445,6.928,2.445c2.067,0,4.053-0.652,5.755-1.736
		c0.72-0.932,1.558-1.818,2.538-2.564c0.156-0.119,0.319-0.035,0.479-0.146c0.306-0.433,0.567-1.166,0.803-1.166h-19.146
		C634.675,7.405,635.557,8.609,636.691,9.572z"/>
	<path fill="none" d="M552.724,96.799l-10.429,4.888c3.67,6.856,9.65,12.297,16.894,15.278l3.879-10.723
		C558.682,104.3,555.045,100.965,552.724,96.799z"/>
	<path fill="none" d="M639.196,57.762c1.656,0,3.003-1.347,3.003-3.003c0-1.655-1.347-3.002-3.003-3.002s-3.003,1.347-3.003,3.002
		C636.193,56.415,637.54,57.762,639.196,57.762z"/>
	<path fill="none" d="M466.758,111.339c-0.087,0-0.174,0.009-0.262,0.011c-1.103,0.434-2.273,0.744-3.507,0.88
		c-0.188,0.021-0.376,0.018-0.564,0.031c-2.295,1.009-4.148,2.771-5.273,5.047c-1.269,2.565-1.462,5.471-0.544,8.182
		c1.475,4.356,5.553,7.284,10.148,7.284c0.86,0,1.715-0.106,2.552-0.312c0.182-0.122,0.356-0.252,0.545-0.366
		c1.029-0.621,2.13-1.099,3.271-1.43c2.328-1.727,3.839-4.329,4.231-7.163c-1.087-2.889-2.042-5.84-2.862-8.848
		C472.517,112.586,469.75,111.339,466.758,111.339z"/>
	<path fill="none" d="M479.724,47.56c0.947-2.106,1.967-4.172,3.052-6.198c-1.637,0.847-3.442,1.373-5.312,1.51
		C478.506,44.276,479.274,45.868,479.724,47.56z"/>
	<path fill="none" d="M488.973,23.556c0.85,1.889,1.265,3.953,1.209,6.032c1.67-2.286,3.43-4.503,5.283-6.637
		c-1.427,0.494-2.94,0.764-4.503,0.764C490.29,23.714,489.628,23.651,488.973,23.556z"/>
	<path fill="none" d="M474.356,133.452c-0.977,0.653-2.044,1.202-3.208,1.597c-0.187,0.063-0.376,0.11-0.564,0.166
		c-2.014,1.479-3.437,3.593-4.043,6.048c-0.687,2.778-0.25,5.658,1.229,8.108c1.958,3.243,5.391,5.18,9.184,5.18
		c1.657,0,3.282-0.411,4.766-1.153c0.137-0.141,0.263-0.289,0.406-0.425c0.873-0.829,1.844-1.521,2.876-2.086
		c1.774-2.033,2.696-4.656,2.636-7.311c-1.93-2.905-3.713-5.916-5.337-9.022c-1.599-0.925-3.436-1.435-5.37-1.435
		C476.059,133.119,475.197,133.242,474.356,133.452z"/>
	<path fill="none" d="M480.316,130.538c-0.405-0.868-0.8-1.744-1.181-2.626c-0.371,0.784-0.816,1.532-1.329,2.235
		C478.664,130.2,479.502,130.333,480.316,130.538z"/>
	<path fill="none" d="M504.382,7.195c0.164,0.791,0.269,1.6,0.292,2.424c0.044,1.6-0.2,3.16-0.682,4.637
		c2.519-2.276,5.155-4.423,7.896-6.437c-0.866,0.17-1.75,0.266-2.645,0.266C507.558,8.085,505.914,7.774,504.382,7.195z"/>
	<path fill="none" d="M609.942,118.783c-1.154,0-2.231,0.456-3.034,1.283c-1.622,1.673-1.581,4.353,0.091,5.976
		c0.792,0.769,1.837,1.191,2.941,1.191c1.153,0,2.231-0.456,3.035-1.284c0.786-0.811,1.21-1.878,1.192-3.006
		s-0.474-2.182-1.284-2.968C612.091,119.206,611.046,118.783,609.942,118.783z"/>
	<path fill="none" d="M465.691,64.74c-1.215-0.07-2.418-0.293-3.584-0.685c-0.179-0.06-0.346-0.138-0.521-0.205
		c-0.068-0.001-0.136-0.011-0.204-0.011c-5.477,0-10.049,4.113-10.636,9.568c-0.6,5.572,3.209,10.615,8.615,11.659
		c0.211-0.033,0.418-0.077,0.632-0.101c0.502-0.055,1.012-0.083,1.515-0.083c0.697,0,1.378,0.066,2.048,0.167
		c3.719-0.757,6.751-3.442,7.971-7.031c0.15-1.443,0.333-2.875,0.544-4.3C471.762,69.76,469.271,66.309,465.691,64.74z"/>
	<path fill="none" d="M473.179,67.578c0.386-1.815,0.823-3.611,1.307-5.389c-1.24,0.893-2.633,1.57-4.117,2.01
		C471.482,65.167,472.426,66.311,473.179,67.578z"/>
	<path fill="none" d="M470.541,108.881c0.984,0.282,1.926,0.672,2.813,1.16c-0.257-1.16-0.496-2.326-0.712-3.5
		C472.032,107.397,471.331,108.184,470.541,108.881z"/>
	<path fill="none" d="M463.581,88.086c-0.709,0.112-1.432,0.184-2.171,0.184c-0.492,0-0.991-0.027-1.482-0.08
		c-0.191-0.021-0.375-0.062-0.562-0.09c-2.457,0.494-4.644,1.816-6.23,3.795c-1.791,2.232-2.604,5.028-2.291,7.872
		c0.599,5.441,5.171,9.546,10.635,9.546c0.099,0,0.198-0.014,0.297-0.017c0.195-0.075,0.384-0.162,0.584-0.229
		c1.139-0.386,2.313-0.612,3.5-0.69c2.943-1.318,5.135-3.912,5.97-7.007c-0.318-2.441-0.545-4.911-0.683-7.403
		C469.704,90.948,466.914,88.741,463.581,88.086z"/>
	<path fill="none" d="M509.969,167.685c-2.487,0-4.842,0.793-6.724,2.312c-0.314,0.514-0.662,1.407-1.05,1.407h13.353
		c-1.842-1-3.64-2.444-5.394-3.792C510.093,167.612,510.031,167.685,509.969,167.685z"/>
	<circle fill="none" cx="547.028" cy="155.815" r="3.003"/>
	<path fill="none" d="M572.551,134.872c-2.383,0.027-4.136,1.944-4.108,4.274c0.028,2.302,1.346,4.175,4.346,4.175v1.5l-0.069-1.5
		c2.329-0.027,4.142-1.944,4.114-4.274C576.806,136.745,574.853,134.872,572.551,134.872z"/>
	<path fill="none" d="M600.312,153.398c0,1.656,1.348,3.004,3.004,3.004c1.655,0,3.002-1.348,3.002-3.004
		c0-1.655-1.347-3.002-3.002-3.002C601.659,150.396,600.312,151.743,600.312,153.398z"/>
	<path fill="none" d="M473.979,39.595c0.815,0.197,1.65,0.316,2.494,0.316c3.804,0,7.243-1.944,9.198-5.201
		c2.463-4.103,1.849-9.209-1.165-12.618c-1.067-0.571-2.067-1.278-2.965-2.127c-0.127-0.12-0.237-0.251-0.359-0.375
		c-1.461-0.714-3.057-1.11-4.683-1.11c-3.804,0-7.242,1.944-9.197,5.2c-2.882,4.799-1.55,10.966,2.905,14.189
		c0.211,0.06,0.423,0.114,0.632,0.185C471.977,38.436,473.02,38.966,473.979,39.595z"/>
	<path fill="none" d="M570.547,37.422l0.108-0.001c1.127-0.029,2.177-0.497,2.955-1.315c0.777-0.818,1.188-1.89,1.159-3.017
		c-0.06-2.311-1.916-4.12-4.227-4.12l-0.109,0.001c-1.127,0.029-2.177,0.496-2.954,1.314c-0.776,0.819-1.188,1.891-1.158,3.02
		C566.38,35.575,568.275,37.422,570.547,37.422z"/>
	<path fill="none" d="M482.958,17.313c0.198,0.106,0.396,0.11,0.589,0.226c1.038,0.624,1.951,1.324,2.758,2.154
		c1.438,0.696,3.022,1.047,4.658,1.047c2.977,0,5.742-1.203,7.786-3.364c1.968-2.08,3.007-4.605,2.927-7.466
		c-0.036-1.291-0.31-2.505-0.778-3.505h-19.86C479.556,9.405,480.211,14.223,482.958,17.313z"/>
	<path fill="none" d="M479.013,157.388c-0.68,0.104-1.368,0.162-2.06,0.162c-4.854,0-9.247-2.479-11.752-6.629
		c-1.893-3.137-2.452-6.822-1.573-10.379c0.435-1.761,1.199-3.383,2.237-4.804c-5.513-0.357-10.308-3.996-12.099-9.288
		c-1.174-3.469-0.927-7.188,0.697-10.473c0.802-1.622,1.894-3.039,3.209-4.202c-5.215-1.504-9.188-6.028-9.811-11.681
		c-0.401-3.641,0.641-7.22,2.933-10.077c1.135-1.415,2.511-2.568,4.051-3.422c-4.726-2.58-7.692-7.831-7.081-13.51
		c0.606-5.636,4.54-10.149,9.723-11.681c-4.061-3.537-5.828-9.303-4.011-14.716c1.772-5.279,6.525-8.919,12.011-9.312
		c-3.209-4.328-3.698-10.342-0.756-15.24c2.465-4.106,6.975-6.656,11.769-6.656c0.659,0,1.315,0.253,1.964,0.348
		c-1.359-3.032-1.558-6.423-0.598-9.423H-1.212v165h482.155c-2.072-2-3.167-5.613-3.082-8.923
		C477.907,160.668,478.304,158.999,479.013,157.388z"/>
	<path fill="none" d="M518.994,83.663l-0.145,0.002c-2.328,0.077-4.16,2.034-4.084,4.362c0.074,2.29,1.923,4.083,4.211,4.084
		l0.148-0.003c1.13-0.036,2.176-0.509,2.947-1.333c0.772-0.824,1.177-1.9,1.142-3.029C523.138,85.458,521.284,83.663,518.994,83.663
		z"/>
	<path fill="none" d="M466.303,61.765c0.057,0.001,0.113,0.007,0.169,0.007c4.606,0,8.688-2.936,10.157-7.307
		c1.521-4.531-0.171-9.379-3.839-12.062c-1.175-0.33-2.308-0.815-3.366-1.45c-0.166-0.1-0.316-0.215-0.477-0.32
		c-0.813-0.194-1.641-0.295-2.475-0.295c-4.606,0-8.687,2.936-10.154,7.306c-1.784,5.314,0.855,11.061,5.914,13.241
		c0.211,0.013,0.422,0.012,0.631,0.034C464.073,61.049,465.219,61.348,466.303,61.765z"/>
	<path fill="none" d="M498.6,170.722c0.674-0.998,1.473-1.882,2.358-2.654c1.23-2.246,1.592-4.847,1.089-7.312
		c-2.707-2.578-5.264-5.311-7.669-8.175c-0.904-0.244-1.844-0.382-2.81-0.382c-1.664,0-3.274,0.388-4.733,1.108
		c-0.818,0.855-1.749,1.628-2.81,2.269c-0.171,0.104-0.347,0.196-0.522,0.291c-1.646,1.876-2.578,4.244-2.643,6.771
		c-0.073,2.86,0.973,5.5,2.944,7.575c0.45,0.474,0.941,1.191,1.456,1.191h12.616c0.132,0,0.265-0.112,0.393-0.215
		C498.379,171.007,498.479,170.9,498.6,170.722z"/>
	<path fill="none" d="M632.846,162.961c0.703-1.063,1.555-2.037,2.552-2.887c0.812-0.692,1.702-1.271,2.639-1.753
		c4.223-4.055,8.078-8.488,11.516-13.243c0.09-0.126,0.167-0.258,0.261-0.381c0.038-0.051,0.083-0.094,0.122-0.144
		c11.301-15.854,17.955-35.036,17.955-55.946c0-34.752-18.384-65.203-45.935-82.203H519.924c-23.638,14-40.526,39.047-44.846,67.678
		c0.034,0.705,0.032,1.317-0.046,2.041c-0.099,0.915-0.29,1.749-0.555,2.597c-0.321,3.203-0.487,6.426-0.487,9.712
		c0,1.617,0.042,3.212,0.12,4.81c0.512,1.207,0.863,2.497,1.014,3.862c0.167,1.519,0.066,3.001-0.244,4.416
		c0.539,3.968,1.317,7.858,2.322,11.659c1.1,1.296,1.975,2.804,2.543,4.483c0.613,1.812,0.82,3.664,0.677,5.461
		c1.226,3.186,2.61,6.293,4.153,9.308c1.635,1.099,3.042,2.556,4.105,4.319c1.107,1.836,1.717,3.831,1.897,5.836
		c1.727,2.553,3.572,5.019,5.527,7.391c2.027,0.708,3.876,1.882,5.407,3.492c1.584,1.668,2.658,3.636,3.242,5.71
		c2.083,1.949,4.248,3.811,6.496,5.572c2.28,0.214,4.468,0.909,6.39,2.209c1.785,1.207,3.181,2.444,4.187,4.444h97.127
		c1.091,0,2.234-0.739,3.408-0.923C626.026,168.179,629.53,165.719,632.846,162.961z M609.94,130.233
		c-1.888,0-3.675-0.724-5.03-2.038c-1.244-1.207-1.958-2.756-2.143-4.356c-2.709,2.22-5.665,4.146-8.813,5.749l8.386,17.896
		c0.318-0.053,0.643-0.087,0.976-0.087c3.31,0,6.002,2.692,6.002,6.002c0,3.311-2.692,6.004-6.002,6.004
		c-3.311,0-6.004-2.693-6.004-6.004c0-1.905,0.896-3.602,2.283-4.702l-8.353-17.825c-4.125,1.788-8.545,3.015-13.163,3.6
		c1.042,1.235,1.674,2.817,1.694,4.541c0.022,1.93-0.707,3.795-2.056,5.176c-1.349,1.38-3.154,2.218-5.084,2.218h-0.086
		c-3.937,0-7.178-3.244-7.226-7.182c-0.021-1.723,0.569-3.334,1.565-4.588c-3.493-0.359-6.874-1.11-10.11-2.172l-6.605,18.253
		c1.712,1.059,2.859,2.945,2.859,5.102c0,3.311-2.693,6.002-6.003,6.002s-6.003-2.693-6.003-6.004c0-3.31,2.693-6.004,6.003-6.004
		c0.092,0,0.182,0.01,0.273,0.014l6.655-18.397c-3.896-1.551-7.55-3.584-10.879-6.037c-0.103,1.664-0.771,3.226-1.922,4.46
		c-1.36,1.466-3.29,2.309-5.292,2.309c-1.83,0-3.576-0.688-4.917-1.935c-2.916-2.715-3.083-7.296-0.372-10.212
		c1.139-1.228,2.679-2.009,4.324-2.233c-2.505-2.926-4.667-6.15-6.43-9.613l-16.948,7.943c0.109,0.452,0.173,0.922,0.173,1.407
		c0,3.31-2.693,6.002-6.004,6.002c-3.31,0-6.002-2.692-6.002-6.002c0-3.311,2.692-6.004,6.002-6.004
		c1.746,0,3.315,0.754,4.413,1.947l17.082-8.006c-1.652-3.811-2.833-7.87-3.464-12.107c-1.25,1.087-2.82,1.707-4.497,1.76
		l-0.247,0.005c-3.917-0.001-7.084-3.069-7.209-6.987c-0.13-3.98,3.002-7.326,6.982-7.457l0.244-0.004
		c1.646,0,3.156,0.547,4.369,1.466c0.316-3.862,1.082-7.598,2.25-11.155l-16.939-6.128c-1.075,1.627-2.918,2.704-5.01,2.704
		c-3.311,0-6.004-2.693-6.004-6.003s2.693-6.003,6.004-6.003c3.31,0,6.003,2.693,6.003,6.003c0,0.155-0.012,0.307-0.023,0.459
		l16.995,6.148c1.594-3.999,3.689-7.745,6.231-11.144c-1.661-0.117-3.223-0.794-4.442-1.946c-1.404-1.321-2.209-3.112-2.267-5.041
		c-0.058-1.929,0.641-3.766,1.966-5.171c1.36-1.442,3.277-2.269,5.258-2.269c1.85,0,3.61,0.7,4.956,1.97
		c1.228,1.155,1.998,2.671,2.21,4.325c2.859-2.411,5.999-4.495,9.361-6.205l-7.827-16.701c-0.184,0.017-0.37,0.028-0.559,0.028
		c-3.31,0-6.003-2.693-6.003-6.003c0-3.311,2.693-6.005,6.003-6.005c3.311,0,6.004,2.694,6.004,6.005
		c0,2.052-1.037,3.865-2.612,4.948l7.707,16.445c3.902-1.689,8.066-2.88,12.415-3.497c-1.034-1.214-1.67-2.782-1.714-4.515
		c-0.051-1.928,0.652-3.762,1.981-5.163s3.123-2.199,5.053-2.248l0.185-0.002c3.95,0,7.124,3.093,7.226,7.042
		c0.044,1.678-0.484,3.284-1.499,4.595c3.746,0.333,7.369,1.092,10.825,2.228l6.635-18.337c-1.648-1.071-2.742-2.925-2.742-5.033
		c0-3.31,2.692-6.003,6.002-6.003c3.311,0,6.004,2.693,6.004,6.003s-2.693,6.003-6.004,6.003c-0.14,0-0.276-0.012-0.414-0.021
		l-6.662,18.414c4.103,1.636,7.936,3.807,11.403,6.438c0.127-1.66,0.816-3.211,1.983-4.43c1.375-1.44,3.23-2.234,5.224-2.234
		c1.868,0,3.64,0.711,4.99,2.002c2.878,2.757,2.98,7.341,0.229,10.219c-1.17,1.223-2.688,1.974-4.34,2.173
		c2.317,2.787,4.321,5.839,5.978,9.097l17.9-8.388c-0.053-0.318-0.087-0.642-0.087-0.975c0-3.31,2.693-6.002,6.003-6.002
		s6.003,2.692,6.003,6.002c0,3.31-2.693,6.003-6.003,6.003c-1.905,0-3.603-0.895-4.703-2.284l-17.83,8.356
		c1.819,4.201,3.058,8.708,3.627,13.418c1.239-1.024,2.823-1.645,4.551-1.655c4.004,0,7.245,3.399,7.269,7.36
		c0.023,3.981-3.198,7.446-7.182,7.446h-0.041c-1.709,0-3.282-0.778-4.523-1.778c-0.37,3.398-1.096,6.603-2.13,9.757l18.271,6.566
		c1.059-1.714,2.947-2.883,5.104-2.883c3.312,0,6.005,2.682,6.005,5.991s-2.693,5.998-6.005,5.998c-3.31,0-6.002-2.696-6.002-6.006
		c0-0.092,0.01-0.184,0.014-0.273l-18.413-6.663c-1.682,4.221-3.933,8.151-6.664,11.697c1.663,0.138,3.218,0.836,4.428,2.01
		c1.387,1.344,2.166,3.146,2.196,5.076c0.029,1.93-0.695,3.756-2.04,5.142C613.755,129.454,611.912,130.233,609.94,130.233z"/>
	<path fill="none" d="M577.452,89.729l-2.621-0.948l1.15,2.454C576.546,90.811,577.043,90.304,577.452,89.729z"/>
	<path fill="none" d="M578.701,85.825c0-0.393-0.041-0.776-0.105-1.15l-2.743,1.285l2.747,0.994
		C578.661,86.585,578.701,86.21,578.701,85.825z"/>
	<path fill="none" d="M672.369,85.825c0,4.579,2.894,8.486,6.943,10.016c0.422-0.039,0.847-0.063,1.275-0.063
		c0.981,0,1.969,0.106,2.936,0.317c0.394,0.086,0.777,0.194,1.157,0.312c5.149-0.776,9.114-5.219,9.114-10.581
		c0-5.605-4.329-10.211-9.819-10.667c-0.205,0.055-0.405,0.121-0.613,0.167c-0.974,0.214-1.97,0.323-2.959,0.323
		c-0.194,0-0.385-0.017-0.578-0.025C675.507,77.003,672.369,81.053,672.369,85.825z"/>
	<path fill="none" d="M670.312,52.67c-3.018-0.533-5.767-2.062-7.807-4.31c1.678,3.82,3.122,7.764,4.317,11.814
		c0.254-1.979,0.929-3.896,2.035-5.628C669.29,53.871,669.782,53.25,670.312,52.67z"/>
	<path fill="none" d="M589.2,93.979l-8.86-3.205c-0.765,1.293-1.812,2.396-3.066,3.218l4.042,8.626
		C584.77,100.643,587.54,97.62,589.2,93.979z"/>
	<path fill="none" d="M581.452,87.986l8.77,3.173c0.44-1.603,0.695-3.28,0.695-5.021c0-2.347-0.448-4.585-1.23-6.662l-8.31,3.895
		c0.204,0.786,0.324,1.605,0.324,2.454C581.701,86.568,581.61,87.29,581.452,87.986z"/>
	<path fill="none" d="M575.682,80.195l-1.103,3.048l2.859-1.34C576.96,81.234,576.366,80.652,575.682,80.195z"/>
	<path fill="none" d="M675.227,74.602c-2.463-1.02-4.591-2.741-6.106-4.937c0.662,3.475,1.146,7.012,1.437,10.603
		C671.575,77.981,673.199,76.025,675.227,74.602z"/>
	<path fill="none" d="M671.387,56.162c-1.541,2.411-2.051,5.277-1.436,8.071c1.007,4.573,4.938,7.97,9.534,8.373
		c1.148-0.313,2.351-0.495,3.597-0.495c0.191,0,0.378,0.021,0.568,0.029c2.391-0.753,4.425-2.302,5.791-4.44
		c1.541-2.412,2.051-5.279,1.436-8.074c-1.074-4.873-5.469-8.411-10.451-8.411c-0.483,0-0.967,0.045-1.449,0.111
		c-0.184,0.095-0.358,0.201-0.548,0.288c-1.09,0.504-2.224,0.841-3.383,1.046C673.579,53.507,672.324,54.694,671.387,56.162z"/>
	<path fill="none" d="M669.063,116.901c-0.622-0.969-1.099-2-1.456-3.064c-0.629,2.39-1.345,4.744-2.143,7.061
		c1.533-1.019,3.27-1.726,5.107-2.065C670.021,118.238,669.511,117.597,669.063,116.901z"/>
	<path fill="none" d="M606.757,97.141l8.655,3.132c1.451-4.454,2.246-9.202,2.246-14.135c0-6.4-1.326-12.495-3.711-18.031
		l-8.179,3.833c1.779,4.301,2.767,9.009,2.767,13.945C608.535,89.812,607.906,93.593,606.757,97.141z"/>
	<path fill="none" d="M675.097,96.951c-1.804-1.298-3.275-3.02-4.275-5.021c-0.104,2.948-0.331,5.864-0.685,8.743
		C671.486,99.078,673.183,97.799,675.097,96.951z"/>
	<path fill="none" d="M593.063,92.187l10.872,3.934c1.035-3.229,1.6-6.667,1.6-10.235c0-4.481-0.889-8.757-2.488-12.67
		l-10.622,4.978c0.96,2.466,1.492,5.144,1.492,7.945C593.917,88.236,593.615,90.264,593.063,92.187z"/>
	<path fill="none" d="M630.623,169.339c0.026-0.33,0.077-0.614,0.126-0.938c-1.051,0.787-2.122,1.49-3.204,2.237
		c0.856,0.197,1.688,0.767,2.483,0.767h0.605C630.58,170.405,630.565,170.061,630.623,169.339z"/>
	<path fill="none" d="M647.166,14.432c-1.146,0.307-2.334,0.484-3.547,0.484c-2.735,0-5.399-0.832-7.653-2.351
		c4.352,3.736,8.382,7.837,12.037,12.26C646.334,21.55,646.091,17.808,647.166,14.432z"/>
	<path fill="none" d="M535.869,120.706c-1.188,0-2.289,0.479-3.097,1.35c-1.586,1.706-1.488,4.386,0.218,5.974
		c0.784,0.729,1.805,1.131,2.874,1.131c1.188,0,2.287-0.479,3.096-1.352c0.771-0.827,1.171-1.902,1.13-3.03
		c-0.042-1.128-0.52-2.173-1.346-2.943C537.96,121.107,536.939,120.706,535.869,120.706z"/>
	<path fill="none" d="M470.993,88.713c0-0.103-0.004-0.204-0.004-0.307c0-1.39,0.036-2.771,0.093-4.147
		c-0.901,0.9-1.924,1.671-3.043,2.291C469.119,87.137,470.111,87.865,470.993,88.713z"/>
	<path fill="none" d="M608.519,52.084c1.166,0,2.251-0.463,3.056-1.305c1.609-1.684,1.549-4.365-0.135-5.978
		c-0.788-0.754-1.824-1.169-2.916-1.169c-1.165,0-2.25,0.464-3.055,1.307c-0.782,0.817-1.197,1.887-1.173,3.015
		c0.025,1.128,0.488,2.179,1.304,2.959C606.389,51.668,607.426,52.084,608.519,52.084z"/>
	<path fill="none" d="M651.686,25.091c2.044,2.688,5.155,4.229,8.536,4.229c1.254,0,2.474-0.221,3.625-0.637
		c0.922-0.773,1.943-1.439,3.064-1.958c0.171-0.079,0.347-0.136,0.52-0.208c1.857-1.689,3.055-3.951,3.397-6.467
		c0.386-2.835-0.355-5.651-2.088-7.929c-2.045-2.688-5.157-4.229-8.538-4.229c-2.05,0-4.01,0.573-5.724,1.665
		c-0.134,0.173-0.257,0.352-0.399,0.52c-0.774,0.912-1.664,1.692-2.623,2.361C648.843,16.155,648.792,21.288,651.686,25.091z"/>
	<path fill="none" d="M652.993,164.191c-0.176-0.12-0.354-0.196-0.524-0.325c-0.956-0.725-1.789-1.544-2.512-2.462
		c-1.682-1.05-3.637-1.619-5.667-1.619c-1.562,0-3.093,0.352-4.492,0.999c-1.507,1.435-3.062,2.82-4.656,4.159
		c-0.861,1.413-1.394,2.937-1.528,4.634c-0.051,0.642-0.037,1.828,0.024,1.828h21.304
		C655.19,169.405,654.555,166.367,652.993,164.191z"/>
	<path fill="none" d="M662.613,35.478c-0.986,2.686-0.867,5.595,0.335,8.191c1.747,3.776,5.566,6.217,9.729,6.217
		c0.468,0,0.931-0.041,1.389-0.101c1.062-0.553,2.197-0.981,3.398-1.246c0.181-0.04,0.364-0.057,0.545-0.09
		c4.757-2.732,6.729-8.709,4.384-13.78c-1.749-3.775-5.568-6.215-9.731-6.215c-1.261,0-2.49,0.231-3.67,0.666
		c-0.16,0.133-0.312,0.275-0.479,0.402c-0.967,0.735-2.01,1.324-3.104,1.774C664.172,32.434,663.21,33.854,662.613,35.478z"/>
	<path fill="none" d="M580.183,80.617l8.233-3.859c-1.974-3.454-4.998-6.225-8.639-7.885l-3.056,8.448
		C578.13,78.118,579.318,79.253,580.183,80.617z"/>
	<path fill="none" d="M588.71,118.397l3.971,8.473c9.812-5.021,17.578-13.477,21.706-23.777l-8.668-3.137
		C602.391,107.916,596.326,114.452,588.71,118.397z"/>
	<path fill="none" d="M659.797,34.443c0.276-0.753,0.624-1.466,1.017-2.147c-0.197,0.008-0.393,0.024-0.592,0.024
		c-3.365,0-6.512-1.206-8.979-3.355c2.935,3.954,5.582,8.132,7.917,12.502C658.758,39.134,658.958,36.727,659.797,34.443z"/>
	<path fill="none" d="M624.788,90.051v1.5l0.072-1.5c2.328-0.016,4.238-1.923,4.225-4.252c-0.014-2.316-1.897-4.201-4.214-4.201
		c-2.354,0.014-4.283,1.921-4.271,4.252C620.615,88.166,622.788,90.051,624.788,90.051z"/>
	<path fill="none" d="M602.896,98.935l-10.855-3.928c-1.942,4.387-5.277,8.022-9.444,10.344l4.84,10.329
		C594.339,112.075,599.845,106.148,602.896,98.935z"/>
	<path fill="none" d="M536.46,52.709c0.773-0.82,1.181-1.894,1.147-3.023c-0.034-1.128-0.504-2.175-1.325-2.948
		c-0.789-0.744-1.818-1.153-2.899-1.153c-1.176,0-2.269,0.471-3.076,1.328c-0.775,0.822-1.184,1.895-1.15,3.023
		c0.034,1.127,0.505,2.174,1.327,2.947c0.788,0.744,1.816,1.153,2.897,1.153C534.56,54.036,535.652,53.565,536.46,52.709z"/>
	<path fill="none" d="M566.093,82.429l2.948,1.066l-1.368-2.918C567.041,81.092,566.507,81.721,566.093,82.429z"/>
	<path fill="none" d="M583.049,51.014l3.025-8.36c-4.46-1.456-9.215-2.252-14.154-2.252c-6.397,0-12.49,1.325-18.024,3.708
		l3.781,8.068c4.384-1.862,9.204-2.893,14.259-2.893C575.81,49.284,579.543,49.894,583.049,51.014z"/>
	<path fill="none" d="M577.985,65.011l4.043-11.176c-3.187-1.006-6.576-1.551-10.092-1.551c-4.601,0-8.988,0.932-12.985,2.613
		l5.04,10.753c2.466-0.96,5.144-1.492,7.945-1.492C574.034,64.158,576.062,64.459,577.985,65.011z"/>
	<path fill="none" d="M573.915,76.261l3.042-8.408c-1.603-0.44-3.28-0.695-5.021-0.695c-2.347,0-4.585,0.448-6.662,1.23l3.797,8.102
		c0.907-0.279,1.869-0.431,2.865-0.431C572.614,76.059,573.275,76.129,573.915,76.261z"/>
	<path fill="none" d="M661.234,139.28c-0.411-0.7-0.772-1.436-1.06-2.213c-0.294-0.794-0.503-1.604-0.646-2.421
		c-0.939,1.792-1.929,3.554-2.971,5.28c1.335-0.425,2.742-0.666,4.194-0.666C660.914,139.26,661.073,139.274,661.234,139.28z"/>
	<path fill="none" d="M650.13,154.439c0.242,1.75,0.898,3.374,1.9,4.77c0.988,0.677,1.904,1.472,2.698,2.403
		c0.123,0.144,0.227,0.297,0.342,0.445c1.7,1.067,3.638,1.63,5.663,1.63c3.391,0,6.508-1.549,8.553-4.251
		c1.727-2.28,2.461-5.097,2.069-7.931c-0.353-2.543-1.58-4.821-3.478-6.512c-0.189-0.077-0.382-0.141-0.569-0.227
		c-1.096-0.504-2.096-1.149-3.003-1.896c-1.131-0.399-2.325-0.61-3.553-0.61c-3.331,0-6.393,1.503-8.438,4.118
		c-0.115,0.161-0.233,0.318-0.349,0.478C650.416,149.074,649.758,151.746,650.13,154.439z"/>
	<path fill="none" d="M565.17,85.825c0,0.596,0.085,1.17,0.23,1.72l2.621-1.228l-2.824-1.021
		C565.183,85.47,565.17,85.646,565.17,85.825z"/>
	<path fill="none" d="M554.97,53.47l-3.786-8.077c-9.82,5.018-17.593,13.478-21.725,23.783l8.52,3.082
		C541.237,64.165,547.304,57.499,554.97,53.47z"/>
	<path fill="none" d="M561.275,66.925l-5.032-10.738c-6.952,3.689-12.459,9.747-15.443,17.091l11.032,3.991
		C553.774,72.882,557.109,69.247,561.275,66.925z"/>
	<path fill="none" d="M566.375,77.807l-3.819-8.148c-3.454,1.974-6.224,4.998-7.885,8.638l8.57,3.101
		C563.979,79.958,565.057,78.725,566.375,77.807z"/>
	<path fill="none" d="M647.719,157.247c-0.252-0.774-0.446-1.573-0.561-2.396c-0.079-0.576-0.109-1.151-0.117-1.725
		c-1.071,1.259-2.173,2.49-3.305,3.693c0.185-0.007,0.368-0.024,0.554-0.024C645.462,156.794,646.609,156.96,647.719,157.247z"/>
	<path fill="none" d="M663.31,127.835c-1.199,2.6-1.312,5.509-0.32,8.191c0.607,1.644,1.589,3.079,2.854,4.222
		c1.121,0.451,2.189,1.046,3.178,1.795c0.145,0.109,0.274,0.231,0.413,0.346c1.159,0.418,2.364,0.639,3.599,0.639
		c4.171,0,7.993-2.449,9.738-6.241c1.195-2.599,1.307-5.507,0.314-8.19c-0.89-2.408-2.579-4.369-4.795-5.61
		c-0.202-0.034-0.406-0.055-0.606-0.099c-1.175-0.256-2.286-0.67-3.33-1.202c-0.434-0.054-0.871-0.088-1.312-0.088
		C668.872,121.597,665.052,124.046,663.31,127.835z"/>
	<path fill="none" d="M604.504,69.219l8.159-3.824c-5.018-9.814-13.472-17.584-23.771-21.716l-3.026,8.366
		C593.927,55.376,600.542,61.507,604.504,69.219z"/>
	<path fill="none" d="M571.937,79.059c-0.542,0-1.066,0.071-1.571,0.191l1.393,2.972l1.118-3.09
		C572.568,79.089,572.256,79.059,571.937,79.059z"/>
	<path fill="none" d="M591.149,75.478l10.638-4.985c-3.623-6.998-9.628-12.57-16.941-15.625l-4.04,11.167
		C585.192,67.976,588.828,71.311,591.149,75.478z"/>
	<path fill="#FF4B00" d="M553.651,81.118l-2.842-1.028c-0.551,1.923-0.853,3.951-0.853,6.048c0,2.802,0.533,5.479,1.492,7.945
		l2.738-1.283c-0.782-2.076-1.23-4.315-1.23-6.662C552.956,84.398,553.211,82.72,553.651,81.118z"/>
	<path fill="#FF4B00" d="M592.041,95.007l-2.841-1.028c-1.66,3.641-4.431,6.664-7.885,8.639l1.281,2.733
		C586.764,103.03,590.099,99.394,592.041,95.007z"/>
	<path fill="#FF4B00" d="M566.917,104.422l-1.028,2.843c1.923,0.551,3.95,0.853,6.048,0.853c2.801,0,5.479-0.532,7.944-1.491
		l-1.283-2.738c-2.076,0.781-4.314,1.229-6.661,1.229C570.197,105.118,568.519,104.863,566.917,104.422z"/>
	<path fill="#FF4B00" d="M588.416,76.758l2.733-1.281c-2.321-4.167-5.957-7.501-10.344-9.444l-1.028,2.84
		C583.418,70.534,586.442,73.304,588.416,76.758z"/>
	<path fill="#FF4B00" d="M576.957,67.853l1.028-2.842c-1.923-0.551-3.951-0.853-6.049-0.853c-2.801,0-5.479,0.532-7.945,1.492
		l1.283,2.738c2.077-0.782,4.315-1.23,6.662-1.23C573.677,67.158,575.354,67.413,576.957,67.853z"/>
	<path fill="#FF4B00" d="M555.458,95.518l-2.733,1.281c2.321,4.166,5.958,7.501,10.344,9.443l1.027-2.841
		C560.456,101.742,557.432,98.972,555.458,95.518z"/>
	<path fill="#FF4B00" d="M590.222,91.159l2.842,1.028c0.552-1.923,0.854-3.951,0.854-6.049c0-2.801-0.532-5.479-1.492-7.945
		l-2.738,1.283c0.782,2.076,1.23,4.315,1.23,6.662C590.917,87.878,590.662,89.556,590.222,91.159z"/>
	<path fill="#FF4B00" d="M562.557,69.659l-1.281-2.733c-4.167,2.321-7.501,5.957-9.444,10.344l2.84,1.027
		C556.333,74.657,559.103,71.633,562.557,69.659z"/>
	<path fill="#FF4B00" d="M556.243,56.187l-1.273-2.717c-7.666,4.029-13.732,10.695-16.991,18.788l2.821,1.021
		C543.784,65.934,549.291,59.876,556.243,56.187z"/>
	<path fill="#FF4B00" d="M605.719,99.956l-2.822-1.021c-3.052,7.213-8.558,13.14-15.46,16.745l1.273,2.717
		C596.326,114.452,602.391,107.916,605.719,99.956z"/>
	<path fill="#FF4B00" d="M562.01,117.986l-1.021,2.824c3.458,1.086,7.136,1.674,10.948,1.674c4.979,0,9.727-1.003,14.058-2.812
		l-1.275-2.721c-3.942,1.628-8.258,2.532-12.782,2.532C568.482,119.484,565.149,118.958,562.01,117.986z"/>
	<path fill="#FF4B00" d="M542.295,101.687l-2.717,1.273c4.012,7.57,10.6,13.569,18.59,16.826l1.021-2.821
		C551.945,113.984,545.966,108.543,542.295,101.687z"/>
	<path fill="#FF4B00" d="M582.028,53.835l1.021-2.821c-3.506-1.12-7.239-1.73-11.112-1.73c-5.056,0-9.875,1.031-14.259,2.893
		l1.274,2.72c3.997-1.681,8.384-2.613,12.985-2.613C575.452,52.284,578.842,52.829,582.028,53.835z"/>
	<path fill="#FF4B00" d="M603.936,96.121l2.821,1.021c1.149-3.548,1.778-7.329,1.778-11.256c0-4.936-0.987-9.645-2.767-13.945
		l-2.722,1.275c1.6,3.913,2.488,8.188,2.488,12.67C605.535,89.454,604.971,92.892,603.936,96.121z"/>
	<path fill="#FF4B00" d="M601.787,70.492l2.717-1.273c-3.962-7.712-10.577-13.843-18.638-17.174l-1.021,2.822
		C592.159,57.922,598.164,63.494,601.787,70.492z"/>
	<path fill="#FF4B00" d="M539.793,76.104l-2.827-1.023c-1.058,3.417-1.629,7.044-1.629,10.804c0,5.099,1.051,9.956,2.943,14.37
		l2.716-1.273c-1.711-4.026-2.659-8.453-2.659-13.097C538.337,82.484,538.849,79.201,539.793,76.104z"/>
	<path fill="#FF4B00" d="M571.92,131.874c-4.928,0-9.672-0.793-14.122-2.242l-1.021,2.821c3.236,1.062,6.617,1.802,10.11,2.161
		c1.307-1.646,3.315-2.716,5.576-2.742h0.001c2.263,0,4.277,1.013,5.615,2.599c4.618-0.585,9.038-1.812,13.163-3.6l-1.272-2.716
		C584.428,130.543,578.327,131.874,571.92,131.874z"/>
	<path fill="#FF4B00" d="M617.658,86.138c0,4.933-0.795,9.681-2.246,14.135l2.821,1.021c1.034-3.154,1.76-6.446,2.13-9.845
		c-1.637-1.318-2.693-3.33-2.707-5.583c-0.012-2.256,1.018-4.279,2.634-5.614c-0.569-4.711-1.808-9.217-3.627-13.418l-2.716,1.273
		C616.332,73.643,617.658,79.738,617.658,86.138z"/>
	<path fill="#FF4B00" d="M531.186,106.893l-2.717,1.273c1.763,3.463,3.925,6.688,6.43,9.613c0.32-0.044,0.644-0.074,0.97-0.074
		c1.83,0,3.577,0.687,4.918,1.933c1.414,1.316,2.23,3.103,2.301,5.03c0.009,0.243,0.005,0.484-0.009,0.723
		c3.329,2.453,6.982,4.486,10.879,6.037l1.021-2.821C544.67,124.48,536.208,116.71,531.186,106.893z"/>
	<path fill="#FF4B00" d="M612.663,65.396l2.717-1.273c-1.656-3.258-3.66-6.31-5.978-9.097c-0.291,0.035-0.585,0.059-0.883,0.059
		c-0.001,0-0.001,0-0.001,0c-1.869,0-3.643-0.711-4.993-2.003c-1.394-1.334-2.186-3.131-2.229-5.06
		c-0.006-0.243,0.001-0.485,0.02-0.725c-3.468-2.631-7.301-4.802-11.403-6.438l-1.021,2.821
		C599.191,47.812,607.646,55.581,612.663,65.396z"/>
	<path fill="#FF4B00" d="M604.754,117.978c1.373-1.416,3.216-2.195,5.188-2.195c0.202,0,0.402,0.013,0.602,0.028
		c2.731-3.546,4.982-7.478,6.664-11.698l-2.821-1.021c-4.128,10.301-11.895,18.757-21.706,23.777l1.273,2.718
		c3.148-1.604,6.104-3.529,8.813-5.749C602.529,121.759,603.188,119.593,604.754,117.978z"/>
	<path fill="#FF4B00" d="M571.92,40.401c4.939,0,9.694,0.797,14.154,2.252l1.021-2.821c-3.456-1.136-7.079-1.895-10.825-2.228
		c-0.15,0.195-0.312,0.385-0.483,0.566c-1.329,1.4-3.124,2.199-5.054,2.249l-0.185,0.002c-2.217,0-4.188-0.975-5.509-2.526
		c-4.348,0.617-8.513,1.808-12.415,3.497l1.272,2.716C559.43,41.726,565.522,40.401,571.92,40.401z"/>
	<path fill="#FF4B00" d="M526.185,86.138c0-4.936,0.795-9.687,2.249-14.143l-2.821-1.021c-1.168,3.557-1.933,7.292-2.25,11.155
		c1.673,1.268,2.774,3.25,2.85,5.521c0.061,1.931-0.632,3.769-1.95,5.177c-0.172,0.185-0.354,0.357-0.542,0.521
		c0.631,4.237,1.812,8.297,3.464,12.107l2.716-1.272C527.514,98.642,526.185,92.543,526.185,86.138z"/>
	<path fill="#FF4B00" d="M551.184,45.393l-1.273-2.717c-3.362,1.71-6.502,3.794-9.361,6.205c0.031,0.237,0.049,0.476,0.057,0.718
		c0.057,1.93-0.64,3.766-1.964,5.171c-1.362,1.441-3.279,2.267-5.26,2.267c-0.172,0-0.343-0.012-0.514-0.024
		c-2.542,3.399-4.637,7.145-6.231,11.144l2.821,1.021C533.591,58.87,541.364,50.411,551.184,45.393z"/>
	<path fill="#FF4B00" d="M617.656,85.867c0.014,2.252,1.07,4.441,2.707,5.759c1.241,1,2.814,1.778,4.523,1.778h0.041
		c3.983,0,7.205-3.465,7.182-7.446c-0.023-3.961-3.265-7.272-7.269-7.272c-1.728,0.01-3.312,0.586-4.551,1.611
		C618.674,81.632,617.645,83.611,617.656,85.867z M624.884,81.598c2.316,0,4.212,1.885,4.226,4.201
		c0.014,2.329-1.921,4.236-4.249,4.252l-0.072,1.5v-1.5c-2,0-4.167-1.886-4.182-4.201C620.594,83.519,622.529,81.612,624.884,81.598
		z"/>
	<path fill="#FF4B00" d="M572.464,131.872L572.464,131.872c-2.262,0.026-4.27,1.096-5.577,2.742
		c-0.996,1.255-1.585,2.887-1.565,4.609c0.047,3.938,3.289,7.182,7.226,7.182h0.086c1.93,0,3.735-0.838,5.084-2.218
		c1.349-1.381,2.078-3.226,2.056-5.155c-0.021-1.723-0.652-3.315-1.694-4.551C576.741,132.895,574.727,131.872,572.464,131.872z
		 M572.719,143.321l0.069,1.5v-1.5c-3,0-4.318-1.873-4.346-4.175c-0.027-2.33,1.786-4.247,4.168-4.274
		c2.303,0,4.226,1.873,4.253,4.175C576.891,141.376,575.048,143.293,572.719,143.321z"/>
	<path fill="#FF4B00" d="M614.972,117.821c-1.21-1.174-2.765-1.872-4.428-2.01c-0.199-0.016-0.399-0.028-0.602-0.028
		c-1.973,0-3.815,0.779-5.188,2.195c-1.566,1.615-2.225,3.781-1.986,5.86c0.185,1.601,0.898,3.149,2.143,4.356
		c1.355,1.314,3.143,2.038,5.03,2.038c1.972,0,3.814-0.779,5.188-2.194c1.345-1.386,2.069-3.212,2.04-5.142
		C617.138,120.967,616.358,119.165,614.972,117.821z M612.976,125.949c-0.804,0.828-1.882,1.284-3.035,1.284
		c-1.104,0-2.149-0.423-2.941-1.191c-1.672-1.623-1.713-4.303-0.091-5.976c0.803-0.827,1.88-1.283,3.034-1.283
		c1.104,0,2.148,0.423,2.941,1.192c0.811,0.786,1.267,1.84,1.284,2.968S613.762,125.138,612.976,125.949z"/>
	<path fill="#FF4B00" d="M603.525,53.081c1.351,1.292,3.124,2.003,4.993,2.003c0,0,0,0,0.001,0c0.298,0,0.592-0.023,0.883-0.059
		c1.652-0.199,3.17-0.95,4.34-2.173c2.752-2.878,2.649-7.461-0.229-10.219c-1.351-1.291-3.122-2.002-4.99-2.002
		c-1.993,0-3.849,0.794-5.224,2.234c-1.167,1.219-1.856,2.771-1.983,4.43c-0.019,0.24-0.025,0.481-0.02,0.725
		C601.34,49.949,602.132,51.746,603.525,53.081z M605.469,44.938c0.805-0.843,1.89-1.307,3.055-1.307
		c1.092,0,2.128,0.416,2.916,1.169c1.684,1.613,1.744,4.294,0.135,5.978c-0.805,0.841-1.89,1.305-3.056,1.305
		c-1.093,0-2.13-0.416-2.919-1.171c-0.815-0.781-1.278-1.832-1.304-2.959C604.271,46.826,604.687,45.755,605.469,44.938z"/>
	<path fill="#FF4B00" d="M570.547,40.422l0.185-0.002c1.93-0.05,3.725-0.849,5.054-2.249c0.172-0.181,0.333-0.371,0.483-0.566
		c1.015-1.311,1.543-2.917,1.499-4.595c-0.102-3.948-3.275-7.042-7.226-7.042l-0.185,0.002c-1.93,0.049-3.725,0.848-5.053,2.248
		s-2.032,3.234-1.981,5.163c0.044,1.733,0.68,3.3,1.714,4.515C566.359,39.448,568.331,40.422,570.547,40.422z M567.48,30.284
		c0.777-0.818,1.826-1.285,2.954-1.314l0.109-0.001c2.311,0,4.167,1.809,4.227,4.12c0.029,1.127-0.382,2.199-1.159,3.017
		c-0.777,0.819-1.827,1.286-2.955,1.315l-0.108,0.001c-2.272,0-4.167-1.847-4.225-4.119
		C566.293,32.175,566.704,31.103,567.48,30.284z"/>
	<path fill="#FF4B00" d="M538.643,54.769c1.324-1.405,2.021-3.241,1.964-5.171c-0.007-0.242-0.026-0.481-0.057-0.718
		c-0.212-1.654-0.982-3.169-2.21-4.325c-1.346-1.271-3.106-1.97-4.956-1.97c-1.981,0-3.898,0.827-5.258,2.269
		c-1.325,1.405-2.023,3.242-1.966,5.171c0.058,1.929,0.863,3.719,2.267,5.041c1.219,1.152,2.781,1.829,4.442,1.946
		c0.17,0.012,0.341,0.024,0.514,0.024C535.364,57.036,537.281,56.21,538.643,54.769z M529.158,49.936
		c-0.034-1.128,0.375-2.201,1.15-3.023c0.807-0.856,1.9-1.328,3.076-1.328c1.081,0,2.11,0.409,2.899,1.153
		c0.821,0.773,1.292,1.82,1.325,2.948c0.033,1.129-0.375,2.203-1.147,3.023c-0.808,0.855-1.901,1.326-3.078,1.326
		c-1.082,0-2.109-0.409-2.897-1.153C529.663,52.109,529.192,51.062,529.158,49.936z"/>
	<path fill="#FF4B00" d="M526.213,87.65c-0.076-2.271-1.177-4.253-2.85-5.521c-1.212-0.919-2.723-1.466-4.369-1.466l-0.244,0.004
		c-3.98,0.131-7.113,3.477-6.982,7.457c0.125,3.918,3.292,6.986,7.209,6.987l0.247-0.005c1.677-0.053,3.248-0.673,4.497-1.76
		c0.188-0.163,0.369-0.336,0.542-0.521C525.581,91.418,526.274,89.581,526.213,87.65z M522.073,90.776
		c-0.771,0.824-1.817,1.297-2.947,1.333l-0.148,0.003c-2.288-0.001-4.138-1.794-4.211-4.084c-0.076-2.329,1.756-4.285,4.084-4.362
		l0.145-0.002c2.29,0,4.144,1.795,4.221,4.083C523.25,88.875,522.845,89.952,522.073,90.776z"/>
	<path fill="#FF4B00" d="M540.787,119.638c-1.341-1.246-3.088-1.933-4.918-1.933c-0.327,0-0.65,0.03-0.97,0.074
		c-1.646,0.225-3.185,1.006-4.324,2.233c-2.711,2.916-2.544,7.497,0.372,10.212c1.341,1.247,3.088,1.935,4.917,1.935
		c2.002,0,3.933-0.843,5.292-2.309c1.151-1.234,1.819-2.796,1.922-4.46c0.015-0.238,0.018-0.479,0.009-0.723
		C543.017,122.741,542.2,120.955,540.787,119.638z M538.959,127.808c-0.809,0.872-1.908,1.352-3.096,1.352
		c-1.069,0-2.089-0.401-2.874-1.131c-1.706-1.588-1.804-4.268-0.218-5.974c0.808-0.87,1.908-1.35,3.097-1.35
		c1.07,0,2.091,0.401,2.875,1.129c0.827,0.771,1.305,1.815,1.346,2.943C540.13,125.906,539.73,126.981,538.959,127.808z"/>
	<path fill="#FF4B00" d="M566.791,90.207l-2.779,1.303c0.871,1.211,2.006,2.219,3.328,2.927l1.038-2.868
		C567.781,91.197,567.245,90.739,566.791,90.207z"/>
	<path fill="#FF4B00" d="M571.212,92.55l-1.039,2.872c0.573,0.105,1.161,0.168,1.764,0.168c0.902,0,1.772-0.133,2.603-0.363
		l-1.296-2.766c-0.424,0.083-0.859,0.129-1.307,0.129C571.691,92.59,571.45,92.576,571.212,92.55z"/>
	<path fill="#FF4B00" d="M567.673,80.577l-1.298-2.77c-1.319,0.917-2.397,2.151-3.133,3.59l2.851,1.031
		C566.507,81.721,567.041,81.092,567.673,80.577z"/>
	<path fill="#FF4B00" d="M578.6,86.954l2.853,1.032c0.158-0.696,0.249-1.418,0.249-2.161c0-0.849-0.12-1.668-0.324-2.454
		l-2.781,1.303c0.064,0.375,0.105,0.757,0.105,1.15C578.701,86.21,578.661,86.585,578.6,86.954z"/>
	<path fill="#FF4B00" d="M577.438,81.903l2.744-1.286c-0.864-1.364-2.053-2.5-3.461-3.296l-1.04,2.874
		C576.366,80.652,576.96,81.234,577.438,81.903z"/>
	<path fill="#FF4B00" d="M565.197,85.295l-2.888-1.045c-0.084,0.514-0.139,1.038-0.139,1.575c0,1.051,0.171,2.061,0.479,3.009
		l2.75-1.289c-0.145-0.55-0.23-1.124-0.23-1.72C565.17,85.646,565.183,85.47,565.197,85.295z"/>
	<path fill="#FF4B00" d="M572.876,79.132l1.039-2.871c-0.64-0.132-1.301-0.202-1.979-0.202c-0.997,0-1.958,0.152-2.865,0.431
		l1.294,2.761c0.505-0.121,1.03-0.191,1.571-0.191C572.256,79.059,572.568,79.089,572.876,79.132z"/>
	<path fill="#FF4B00" d="M580.34,90.774l-2.888-1.045c-0.409,0.575-0.906,1.082-1.471,1.506l1.292,2.757
		C578.527,93.17,579.575,92.067,580.34,90.774z"/>
	<path fill="#FF4B00" d="M588.71,118.397l-1.273-2.717l-4.84-10.329l-1.281-2.733l-4.042-8.626l-1.292-2.757l-1.15-2.454
		l-1.994-0.722l-0.722,1.995l1.128,2.407l1.296,2.766l4.059,8.661l1.283,2.738l4.838,10.325l1.275,2.721l3.976,8.482l1.272,2.716
		l8.353,17.825c0.782-0.619,1.72-1.045,2.745-1.213l-8.386-17.896l-1.273-2.718L588.71,118.397z"/>
	<path fill="#FF4B00" d="M606.757,97.141l-2.821-1.021l-10.872-3.934l-2.842-1.028l-8.77-3.173l-2.853-1.032l-2.747-0.994
		l-2.717,1.273l-0.299,0.826l1.994,0.722l2.621,0.948l2.888,1.045l8.86,3.205l2.841,1.028l10.855,3.928l2.822,1.021l8.668,3.137
		l2.821,1.021l18.413,6.663c0.048-1.05,0.363-2.028,0.884-2.87l-18.271-6.611l-2.821-1.021L606.757,97.141z"/>
	<path fill="#FF4B00" d="M604.504,69.219l-2.717,1.273l-10.638,4.985l-2.733,1.281l-8.233,3.859l-2.744,1.286l-2.859,1.34
		l-1.232,3.406l-0.211,0.584l2.717-1.273l2.743-1.285l2.781-1.303l8.31-3.895l2.738-1.283l10.622-4.978l2.722-1.275l8.179-3.833
		l2.716-1.273l17.83-8.356c-0.619-0.782-1.045-1.719-1.213-2.745l-17.9,8.388l-2.717,1.273L604.504,69.219z"/>
	<path fill="#FF4B00" d="M583.049,51.014l-1.021,2.821l-4.043,11.176l-1.028,2.842l-3.042,8.408l-1.039,2.871l-1.118,3.09
		l1.537,3.279l-1.358,0.637l0,0v0l1.41,0.51l1.232-3.406l1.103-3.048l1.04-2.874l3.056-8.448l1.028-2.84l4.04-11.167l1.021-2.822
		l3.026-8.366l1.021-2.821l6.662-18.414c-1.044-0.072-2.016-0.409-2.846-0.949l-6.635,18.337l-1.021,2.821L583.049,51.014z"/>
	<path fill="#FF4B00" d="M554.97,53.47l1.273,2.717l5.032,10.738l1.281,2.733l3.819,8.148l1.298,2.77l1.368,2.918l3.406,1.232
		l-0.511,1.411l1.358-0.637l-1.537-3.279l-1.393-2.972l-1.294-2.761l-3.797-8.102l-1.283-2.738l-5.04-10.753l-1.274-2.72
		l-3.781-8.068l-1.272-2.716l-7.707-16.445c-0.821,0.564-1.789,0.929-2.833,1.026l7.827,16.701l1.273,2.717L554.97,53.47z"/>
	<path fill="#FF4B00" d="M536.966,75.082l2.827,1.023l11.016,3.985l2.842,1.028l8.658,3.132l2.888,1.045l2.824,1.021l3.279-1.537
		l0.637,1.358l0,0l0.511-1.411l-3.406-1.232l-2.948-1.066l-2.851-1.031l-8.57-3.101l-2.84-1.027L540.8,73.278l-2.821-1.021
		l-8.52-3.082l-2.821-1.021l-16.995-6.148c-0.08,1.043-0.423,2.013-0.97,2.839l16.939,6.128l2.821,1.021L536.966,75.082z"/>
	<path fill="#FF4B00" d="M539.578,102.96l2.717-1.273l10.429-4.888l2.733-1.281l8.554-4.009l2.779-1.303l2.503-1.173l1.232-3.406
		l1.411,0.511v0L571.3,84.78l-3.279,1.537l-2.621,1.228l-2.75,1.289l-8.463,3.967l-2.738,1.283l-10.453,4.898l-2.716,1.273
		l-8.378,3.927l-2.716,1.272l-17.082,8.006c0.679,0.738,1.174,1.644,1.417,2.649l16.948-7.943l2.717-1.273L539.578,102.96z"/>
	<path fill="#FF4B00" d="M560.989,120.81l1.021-2.824l3.878-10.721l1.028-2.843l3.256-9l1.039-2.872l0.903-2.496l0.722-1.995
		l0.299-0.826l0.211-0.584l-1.41-0.51l-1.411-0.511l-1.232,3.406l-0.917,2.534l-1.038,2.868l-3.244,8.966l-1.027,2.841
		l-3.879,10.723l-1.021,2.821l-3.191,8.82l-1.021,2.821l-6.655,18.397c1.049,0.048,2.028,0.364,2.871,0.886l6.605-18.259
		l1.021-2.821L560.989,120.81z"/>
	<path fill="#FF4B00" d="M596.989,22.465c3.311,0,6.004-2.693,6.004-6.003s-2.693-6.003-6.004-6.003
		c-3.31,0-6.002,2.693-6.002,6.003c0,2.108,1.094,3.962,2.742,5.033c0.83,0.54,1.802,0.877,2.846,0.949
		C596.713,22.454,596.85,22.465,596.989,22.465z M596.989,13.459c1.656,0,3.004,1.347,3.004,3.003s-1.348,3.003-3.004,3.003
		c-1.655,0-3.002-1.347-3.002-3.003S595.334,13.459,596.989,13.459z"/>
	<path fill="#FF4B00" d="M639.196,60.762c3.31,0,6.003-2.693,6.003-6.003c0-3.31-2.693-6.002-6.003-6.002s-6.003,2.692-6.003,6.002
		c0,0.333,0.034,0.656,0.087,0.975c0.168,1.025,0.594,1.963,1.213,2.745C635.594,59.867,637.291,60.762,639.196,60.762z
		 M639.196,51.757c1.656,0,3.003,1.347,3.003,3.002c0,1.656-1.347,3.003-3.003,3.003s-3.003-1.347-3.003-3.003
		C636.193,53.104,637.54,51.757,639.196,51.757z"/>
	<path fill="#FF4B00" d="M635.607,111.047c0,3.31,2.692,6.003,6.002,6.003c3.312,0,6.005-2.693,6.005-6.003
		s-2.693-6.003-6.005-6.003c-2.157,0-4.046,1.147-5.104,2.861c-0.521,0.842-0.836,1.82-0.884,2.87
		C635.617,110.866,635.607,110.956,635.607,111.047z M641.609,108.044c1.657,0,3.005,1.347,3.005,3.003s-1.348,3.003-3.005,3.003
		c-1.655,0-3.002-1.347-3.002-3.003S639.954,108.044,641.609,108.044z"/>
	<path fill="#FF4B00" d="M597.312,153.398c0,3.311,2.693,6.004,6.004,6.004c3.31,0,6.002-2.693,6.002-6.004
		c0-3.31-2.692-6.002-6.002-6.002c-0.333,0-0.657,0.034-0.976,0.087c-1.025,0.168-1.963,0.594-2.745,1.213
		C598.207,149.796,597.312,151.493,597.312,153.398z M606.317,153.398c0,1.656-1.347,3.004-3.002,3.004
		c-1.656,0-3.004-1.348-3.004-3.004c0-1.655,1.348-3.002,3.004-3.002C604.971,150.396,606.317,151.743,606.317,153.398z"/>
	<path fill="#FF4B00" d="M547.028,149.812c-3.31,0-6.003,2.693-6.003,6.003c0,3.311,2.693,6.004,6.003,6.004
		s6.003-2.693,6.003-6.004c0-2.156-1.147-4.045-2.859-5.104c-0.843-0.521-1.821-0.838-2.871-0.886
		C547.21,149.822,547.121,149.812,547.028,149.812z M547.028,158.819c-1.656,0-3.003-1.348-3.003-3.004s1.347-3.003,3.003-3.003
		s3.003,1.347,3.003,3.003S548.684,158.819,547.028,158.819z"/>
	<path fill="#FF4B00" d="M505.69,111.513c-3.31,0-6.002,2.693-6.002,6.004c0,3.31,2.692,6.002,6.002,6.002
		c3.311,0,6.004-2.692,6.004-6.002c0-0.485-0.064-0.955-0.173-1.407c-0.243-1.006-0.739-1.911-1.417-2.649
		C509.005,112.267,507.437,111.513,505.69,111.513z M505.69,120.519c-1.655,0-3.002-1.347-3.002-3.002
		c0-1.656,1.347-3.004,3.002-3.004c1.656,0,3.004,1.348,3.004,3.004C508.694,119.172,507.347,120.519,505.69,120.519z"/>
	<path fill="#FF4B00" d="M509.666,61.547c0-3.31-2.693-6.003-6.003-6.003c-3.311,0-6.004,2.693-6.004,6.003s2.693,6.003,6.004,6.003
		c2.092,0,3.935-1.077,5.01-2.704c0.546-0.827,0.89-1.796,0.97-2.839C509.654,61.854,509.666,61.703,509.666,61.547z M503.663,64.55
		c-1.656,0-3.004-1.347-3.004-3.003s1.348-3.003,3.004-3.003c1.656,0,3.003,1.347,3.003,3.003S505.319,64.55,503.663,64.55z"/>
	<path fill="#FF4B00" d="M547.528,20c0-3.311-2.693-6.005-6.004-6.005c-3.31,0-6.003,2.694-6.003,6.005
		c0,3.31,2.693,6.003,6.003,6.003c0.189,0,0.375-0.011,0.559-0.028c1.044-0.097,2.012-0.462,2.833-1.026
		C546.492,23.865,547.528,22.052,547.528,20z M538.521,20c0-1.657,1.347-3.005,3.003-3.005c1.656,0,3.004,1.348,3.004,3.005
		c0,1.656-1.348,3.003-3.004,3.003C539.869,23.002,538.521,21.655,538.521,20z"/>
	<path fill="#FF4B00" d="M675.097,96.951c1.32-0.586,2.739-0.97,4.216-1.11c-4.05-1.529-6.943-5.437-6.943-10.016
		c0-4.771,3.138-8.821,7.456-10.203c-1.608-0.069-3.158-0.423-4.599-1.02c-2.027,1.424-3.651,3.379-4.67,5.666
		c0.218,2.686,0.333,5.399,0.333,8.139c0,1.18-0.028,2.353-0.068,3.522C671.821,93.931,673.293,95.653,675.097,96.951z"/>
	<path fill="#FF4B00" d="M679.485,72.606c0.304,0.026,0.609,0.041,0.918,0.041c0.773,0,1.552-0.085,2.314-0.253
		c0.316-0.07,0.627-0.157,0.933-0.253c-0.19-0.008-0.377-0.029-0.568-0.029C681.836,72.112,680.634,72.293,679.485,72.606z"/>
	<path fill="#FF4B00" d="M680.588,98.777c-0.547,0-1.084,0.05-1.612,0.132c1.297,0.408,2.676,0.63,4.106,0.63
		c0.434,0,0.86-0.025,1.283-0.065c-0.479-0.179-0.971-0.336-1.48-0.447C682.127,98.861,681.354,98.777,680.588,98.777z"/>
	<path fill="#FF4B00" d="M693.795,85.825c0,5.362-3.965,9.805-9.114,10.581c1.423,0.44,2.745,1.103,3.933,1.958
		c4.812-2.132,8.182-6.946,8.182-12.539c0-5.711-3.512-10.614-8.488-12.673c-1.298,0.913-2.762,1.584-4.331,2.005
		C689.466,75.614,693.795,80.219,693.795,85.825z"/>
	<path fill="#FF4B00" d="M680.426,51.216c4.982,0,9.377,3.538,10.451,8.411c0.615,2.795,0.105,5.663-1.436,8.074
		c-1.366,2.138-3.4,3.687-5.791,4.44c-0.306,0.096-0.616,0.184-0.933,0.253c-0.763,0.167-1.541,0.253-2.314,0.253
		c-0.309,0-0.614-0.014-0.918-0.041c-4.597-0.403-8.527-3.8-9.534-8.373c-0.615-2.794-0.105-5.661,1.436-8.071
		c0.938-1.468,2.192-2.655,3.659-3.501c-0.779,0.137-1.566,0.225-2.368,0.225s-1.592-0.079-2.365-0.215
		c-0.53,0.58-1.022,1.201-1.454,1.876c-1.106,1.731-1.781,3.649-2.035,5.628c0.915,3.104,1.683,6.27,2.297,9.49
		c1.516,2.196,3.644,3.917,6.106,4.937c1.44,0.597,2.99,0.951,4.599,1.02c0.193,0.008,0.384,0.025,0.578,0.025
		c0.989,0,1.985-0.109,2.959-0.323c0.208-0.046,0.408-0.112,0.613-0.167c1.569-0.421,3.033-1.092,4.331-2.005
		c1.44-1.014,2.685-2.307,3.662-3.836c1.973-3.086,2.626-6.757,1.838-10.334c-1.201-5.455-5.656-9.601-11.021-10.557
		c-1.06,1.161-2.344,2.142-3.81,2.902C679.459,51.261,679.942,51.216,680.426,51.216z"/>
	<path fill="#FF4B00" d="M674.066,49.785c1.066-0.14,2.106-0.432,3.103-0.893c0.291-0.135,0.568-0.286,0.841-0.442
		c-0.181,0.033-0.364,0.05-0.545,0.09C676.264,48.804,675.129,49.232,674.066,49.785z"/>
	<path fill="#FF4B00" d="M663.847,28.683c1.012-0.366,1.972-0.88,2.851-1.549c0.256-0.195,0.498-0.402,0.733-0.616
		c-0.173,0.072-0.349,0.128-0.52,0.208C665.79,27.244,664.769,27.91,663.847,28.683z"/>
	<path fill="#FF4B00" d="M668.992,29.12c1.18-0.435,2.409-0.666,3.67-0.666c4.163,0,7.982,2.44,9.731,6.215
		c2.346,5.071,0.373,11.048-4.384,13.78c-0.272,0.157-0.55,0.308-0.841,0.442c-0.996,0.461-2.036,0.753-3.103,0.893
		c-0.458,0.06-0.921,0.101-1.389,0.101c-4.163,0-7.982-2.44-9.729-6.217c-1.202-2.596-1.321-5.505-0.335-8.191
		c0.597-1.624,1.559-3.043,2.796-4.182c-1.453,0.597-3,0.934-4.596,1.001c-0.393,0.681-0.74,1.394-1.017,2.147
		c-0.839,2.283-1.039,4.69-0.638,7.024c1.2,2.248,2.317,4.547,3.347,6.893c2.04,2.249,4.789,3.777,7.807,4.31
		c0.773,0.136,1.563,0.215,2.365,0.215s1.589-0.088,2.368-0.225c1.159-0.205,2.293-0.542,3.383-1.046
		c0.189-0.087,0.364-0.193,0.548-0.288c1.466-0.76,2.75-1.741,3.81-2.902c3.611-3.958,4.717-9.854,2.33-15.016
		c-2.238-4.833-7.127-7.955-12.454-7.955c-0.195,0-0.387,0.023-0.58,0.031C671.286,26.858,670.239,28.08,668.992,29.12z"/>
	<path fill="#FF4B00" d="M649.374,10.23c0.895-0.57,1.715-1.266,2.418-2.094c0.214-0.252,0.412-0.514,0.6-0.78
		c-0.16,0.111-0.323,0.216-0.479,0.335C650.932,8.437,650.094,9.299,649.374,10.23z"/>
	<path fill="#FF4B00" d="M660.202,7.893c3.381,0,6.493,1.541,8.538,4.229c1.732,2.277,2.474,5.094,2.088,7.929
		c-0.343,2.517-1.54,4.778-3.397,6.467c-0.235,0.214-0.478,0.421-0.733,0.616c-0.879,0.669-1.839,1.184-2.851,1.549
		c-1.151,0.417-2.371,0.637-3.625,0.637c-3.381,0-6.492-1.542-8.536-4.229c-2.894-3.804-2.843-8.937-0.229-12.652
		c-1.305,0.91-2.754,1.583-4.29,1.993c-1.075,3.376-0.832,7.118,0.837,10.394c1.116,1.35,2.194,2.731,3.239,4.139
		c2.468,2.149,5.614,3.355,8.979,3.355c0.199,0,0.395-0.016,0.592-0.024c1.596-0.067,3.143-0.404,4.596-1.001
		c1.095-0.45,2.138-1.039,3.104-1.774c0.167-0.127,0.318-0.269,0.479-0.402c1.247-1.04,2.294-2.262,3.09-3.634
		c0.886-1.528,1.474-3.228,1.719-5.03c0.494-3.629-0.455-7.032-2.673-9.949c-1.474-1.936-3.389-3.102-5.545-4.102h-9.122
		c-0.474,1-1.138,2.26-1.982,3.354C656.192,8.668,658.152,7.893,660.202,7.893z"/>
	<path fill="#FF4B00" d="M633.777,10.945c0.737,0.598,1.468,1.104,2.188,1.722c2.254,1.519,4.918,2.3,7.653,2.3
		c1.213,0,2.4-0.203,3.547-0.509c1.536-0.411,2.985-1.096,4.29-2.006c0.959-0.669,1.849-1.456,2.623-2.368
		c0.143-0.168,0.266-0.148,0.399-0.322c0.845-1.095,1.509-2.357,1.982-3.357h-3.267c-0.235,0-0.497,0.72-0.803,1.153
		c-0.188,0.267-0.386,0.427-0.6,0.679c-0.703,0.828-1.523,1.474-2.418,2.044c-1.702,1.084-3.688,1.661-5.755,1.661
		c-2.532,0-4.993-0.715-6.928-2.357c-1.135-0.963-2.017-2.18-2.643-3.18h-3.26C631.434,7.405,632.43,9.555,633.777,10.945z"/>
	<path fill="#FF4B00" d="M509.244,8.085c0.895,0,1.778,0.106,2.645-0.064c0.842-0.619,1.694-1.616,2.557-1.616h-10.37
		c0.119,0,0.223,0.588,0.307,0.992C505.914,7.976,507.558,8.085,509.244,8.085z"/>
	<path fill="#FF4B00" d="M478.463,15.828c1.567,0.229,3.088,0.833,4.494,1.585c-2.746-3.09-3.401-8.009-1.92-11.009h-3.171
		C476.905,9.405,477.104,12.796,478.463,15.828z"/>
	<path fill="#FF4B00" d="M498.748,17.363c-2.044,2.161-4.81,3.351-7.786,3.351c-1.635,0-3.219-0.376-4.658-1.072
		c1.125,1.157,2.024,2.48,2.669,3.914c0.655,0.095,1.317,0.159,1.989,0.159c1.563,0,3.076-0.27,4.503-0.764
		c2.665-3.068,5.513-5.971,8.527-8.695c0.482-1.478,0.726-3.038,0.682-4.637c-0.023-0.824-0.128-1.431-0.292-2.222
		c-0.083-0.404-0.188-0.992-0.307-0.992h-3.178c0.468,1,0.742,2.208,0.778,3.499C501.755,12.764,500.716,15.283,498.748,17.363z"/>
	<path fill="#FF4B00" d="M484.506,22.093c-0.707-0.799-1.543-1.505-2.504-2.083c-0.265-0.159-0.544-0.285-0.82-0.419
		c0.122,0.124,0.232,0.255,0.359,0.375C482.439,20.815,483.439,21.522,484.506,22.093z"/>
	<path fill="#FF4B00" d="M472.791,42.403c-0.865-0.632-1.838-1.146-2.906-1.505c-0.309-0.104-0.622-0.189-0.936-0.265
		c0.16,0.105,0.311,0.221,0.477,0.32C470.483,41.588,471.616,42.074,472.791,42.403z"/>
	<path fill="#FF4B00" d="M486.304,19.642c-0.807-0.83-1.72-1.581-2.758-2.204c-0.193-0.116-0.391-0.221-0.589-0.327
		c-1.406-0.753-2.927-1.256-4.494-1.485c-0.649-0.095-1.305-0.146-1.964-0.146c-4.794,0-9.304,2.55-11.769,6.656
		c-2.941,4.898-2.453,10.912,0.756,15.24c0.327-0.023,0.655-0.039,0.987-0.039c1.263,0,2.515,0.186,3.734,0.532
		c-4.455-3.223-5.787-9.39-2.905-14.189c1.955-3.256,5.393-5.2,9.197-5.2c1.626,0,3.222,0.396,4.683,1.11
		c0.276,0.135,0.555,0.261,0.82,0.419c0.961,0.578,1.798,1.284,2.504,2.083c3.014,3.409,3.628,8.515,1.165,12.618
		c-1.955,3.256-5.394,5.201-9.198,5.201c-0.844,0-1.678-0.119-2.494-0.316c1.362,0.894,2.538,2.002,3.484,3.277
		c1.871-0.137,3.676-0.663,5.312-1.51c2.199-4.104,4.677-8.036,7.407-11.774c0.056-2.079-0.36-4.143-1.209-6.032
		C488.329,22.122,487.429,20.799,486.304,19.642z"/>
	<path fill="#FF4B00" d="M465.691,64.74c-0.977-0.428-2.033-0.718-3.147-0.838c-0.317-0.034-0.638-0.045-0.957-0.052
		c0.175,0.067,0.342,0.145,0.521,0.205C463.273,64.447,464.476,64.67,465.691,64.74z"/>
	<path fill="#FF4B00" d="M473.979,39.595c-0.959-0.629-2.002-1.159-3.14-1.541c-0.209-0.07-0.421-0.125-0.632-0.185
		c-1.22-0.346-2.472-0.532-3.734-0.532c-0.332,0-0.66,0.016-0.987,0.039c-5.486,0.393-10.239,4.033-12.011,9.312
		c-1.817,5.413-0.05,11.179,4.011,14.716c1.237-0.366,2.544-0.565,3.896-0.565c0.282,0,0.567,0.028,0.851,0.046
		c-5.059-2.181-7.698-7.927-5.914-13.241c1.467-4.37,5.548-7.306,10.154-7.306c0.834,0,1.662,0.102,2.475,0.295
		c0.314,0.075,0.627,0.161,0.936,0.265c1.068,0.359,2.041,0.873,2.906,1.505c3.667,2.683,5.36,7.53,3.839,12.062
		c-1.469,4.371-5.551,7.307-10.157,7.307c-0.057,0-0.113-0.006-0.169-0.007c1.506,0.578,2.878,1.403,4.065,2.434
		c1.484-0.44,2.877-1.117,4.117-2.01c1.373-5.044,3.127-9.933,5.238-14.628c-0.449-1.692-1.218-3.284-2.26-4.688
		C476.518,41.598,475.342,40.489,473.979,39.595z"/>
	<path fill="#FF4B00" d="M470.368,64.199c-1.187-1.031-2.559-1.856-4.065-2.434c-1.084-0.417-2.23-0.715-3.438-0.845
		c-0.209-0.022-0.42-0.021-0.631-0.034c-0.284-0.018-0.569-0.046-0.851-0.046c-1.352,0-2.659,0.2-3.896,0.565
		c-5.183,1.532-9.116,6.045-9.723,11.681c-0.611,5.679,2.355,10.93,7.081,13.51c1.388-0.769,2.913-1.279,4.517-1.53
		c-5.406-1.044-9.215-6.086-8.615-11.659c0.587-5.455,5.16-9.568,10.636-9.568c0.068,0,0.136,0.01,0.204,0.011
		c0.319,0.006,0.64,0.018,0.957,0.052c1.115,0.12,2.171,0.41,3.147,0.838c3.58,1.569,6.071,5.021,6.38,8.979
		c0.306-2.068,0.676-4.115,1.107-6.141C472.426,66.311,471.482,65.167,470.368,64.199z"/>
	<path fill="#FF4B00" d="M463.556,85.049c1.6,0.241,3.109,0.755,4.482,1.501c1.12-0.62,2.142-1.391,3.043-2.291
		c0.086-2.097,0.231-4.179,0.445-6.241C470.308,81.607,467.275,84.292,463.556,85.049z"/>
	<path fill="#FF4B00" d="M461.41,88.27c0.739,0,1.462-0.071,2.171-0.184c-0.672-0.132-1.364-0.204-2.073-0.204
		c-0.393,0-0.792,0.021-1.187,0.065c-0.323,0.035-0.642,0.089-0.957,0.152c0.188,0.028,0.372,0.069,0.562,0.09
		C460.419,88.243,460.917,88.27,461.41,88.27z"/>
	<path fill="#FF4B00" d="M475.031,76.022c0.078-0.723,0.081-1.436,0.046-2.141c-0.239,1.584-0.44,3.181-0.601,4.789
		C474.742,77.822,474.933,76.938,475.031,76.022z"/>
	<path fill="#FF4B00" d="M466.496,111.35c-1.076,0.026-2.144,0.209-3.175,0.559c-0.306,0.104-0.604,0.224-0.896,0.353
		c0.188-0.014,0.377-0.011,0.564-0.031C464.223,112.094,465.393,111.784,466.496,111.35z"/>
	<path fill="#FF4B00" d="M465.859,108.376c0.299-0.021,0.599-0.037,0.899-0.037c1.305,0,2.573,0.194,3.783,0.542
		c0.79-0.697,1.491-1.484,2.102-2.34c-0.315-1.709-0.587-3.434-0.813-5.172C470.995,104.464,468.803,107.058,465.859,108.376z"/>
	<path fill="#FF4B00" d="M475.123,97.098c-0.15-1.365-0.502-2.662-1.014-3.869c0.138,2.796,0.399,5.56,0.77,8.288
		C475.189,100.102,475.29,98.617,475.123,97.098z"/>
	<path fill="#FF4B00" d="M463.556,85.049c-0.67-0.101-1.352-0.167-2.048-0.167c-0.502,0-1.012,0.028-1.515,0.083
		c-0.213,0.023-0.421,0.068-0.632,0.101c-1.604,0.251-3.129,0.762-4.517,1.53c-1.54,0.854-2.916,2.007-4.051,3.422
		c-2.292,2.857-3.333,6.437-2.933,10.077c0.623,5.652,4.596,10.177,9.811,11.681c1.195-1.056,2.583-1.888,4.104-2.479
		c-0.099,0.003-0.198,0.017-0.297,0.017c-5.464,0-10.036-4.104-10.635-9.546c-0.313-2.844,0.5-5.64,2.291-7.872
		c1.586-1.979,3.773-3.301,6.23-3.795c0.315-0.063,0.633-0.117,0.957-0.152c0.394-0.044,0.793-0.065,1.187-0.065
		c0.708,0,1.401,0.072,2.073,0.204c3.333,0.654,6.123,2.861,7.566,5.88c-0.096-1.74-0.148-3.491-0.153-5.253
		c-0.882-0.849-1.874-1.576-2.955-2.163C466.666,85.804,465.156,85.29,463.556,85.049z"/>
	<path fill="#FF4B00" d="M474.356,133.452c-1.032,0.258-2.03,0.654-2.953,1.212c-0.284,0.171-0.556,0.356-0.82,0.551
		c0.188-0.056,0.378-0.103,0.564-0.166C472.312,134.654,473.379,134.105,474.356,133.452z"/>
	<path fill="#FF4B00" d="M473.125,130.666c1.233-0.358,2.513-0.547,3.806-0.547c0.294,0,0.586,0.01,0.876,0.028
		c0.513-0.703,0.958-1.451,1.329-2.235c-0.627-1.452-1.221-2.923-1.78-4.409C476.963,126.336,475.452,128.939,473.125,130.666z"/>
	<path fill="#FF4B00" d="M479.744,117.662c-0.568-1.68-1.443-3.188-2.543-4.484c0.897,3.392,1.975,6.71,3.22,9.946
		C480.564,121.327,480.357,119.474,479.744,117.662z"/>
	<path fill="#FF4B00" d="M466.758,108.339c-0.3,0-0.6,0.017-0.899,0.037c-1.187,0.078-2.361,0.305-3.5,0.69
		c-0.2,0.067-0.389,0.154-0.584,0.229c-1.521,0.592-2.908,1.424-4.104,2.479c-1.316,1.163-2.408,2.58-3.209,4.202
		c-1.624,3.284-1.871,7.004-0.697,10.473c1.791,5.292,6.586,8.931,12.099,9.288c0.933-1.276,2.099-2.378,3.443-3.277
		c-0.837,0.206-1.692,0.312-2.552,0.312c-4.596,0-8.674-2.928-10.148-7.284c-0.917-2.711-0.724-5.616,0.544-8.182
		c1.125-2.276,2.978-4.038,5.273-5.047c0.292-0.129,0.59-0.249,0.896-0.353c1.032-0.35,2.099-0.532,3.175-0.559
		c0.088-0.002,0.175-0.011,0.262-0.011c2.992,0,5.758,1.247,7.735,3.315c-0.415-1.523-0.795-3.062-1.139-4.613
		c-0.887-0.488-1.829-0.878-2.813-1.16C469.331,108.534,468.063,108.339,466.758,108.339z"/>
	<path fill="#FF4B00" d="M483.502,155.868c0.175-0.095,0.352-0.188,0.522-0.291c1.061-0.641,1.992-1.413,2.81-2.269
		c-0.958,0.473-1.851,1.086-2.644,1.84C483.948,155.378,483.72,155.62,483.502,155.868z"/>
	<path fill="#FF4B00" d="M489.467,149.375c0.302-0.686,0.551-1.394,0.738-2.117c-0.882-1.208-1.739-2.435-2.567-3.682
		c0.06,2.654-0.862,5.277-2.636,7.311C486.388,150.126,487.895,149.618,489.467,149.375z"/>
	<path fill="#FF4B00" d="M488.68,136.75c-1.063-1.764-2.47-3.221-4.105-4.319c1.798,3.514,3.804,6.904,6.002,10.155
		C490.396,140.582,489.787,138.586,488.68,136.75z"/>
	<path fill="#FF4B00" d="M476.93,130.119c-1.292,0-2.572,0.188-3.806,0.547c-1.141,0.331-2.242,0.809-3.271,1.43
		c-0.189,0.114-0.363,0.244-0.545,0.366c-1.344,0.899-2.51,2.001-3.443,3.277c-1.039,1.421-1.802,3.043-2.237,4.804
		c-0.879,3.557-0.32,7.242,1.573,10.379c2.506,4.15,6.899,6.629,11.752,6.629c0.692,0,1.38-0.059,2.06-0.162
		c0.646-1.468,1.563-2.812,2.706-3.991c-1.483,0.742-3.108,1.153-4.766,1.153c-3.793,0-7.226-1.937-9.184-5.18
		c-1.479-2.45-1.916-5.33-1.229-8.108c0.607-2.455,2.03-4.569,4.043-6.048c0.264-0.194,0.536-0.38,0.82-0.551
		c0.923-0.558,1.921-0.954,2.953-1.212c0.84-0.21,1.702-0.333,2.574-0.333c1.934,0,3.771,0.51,5.37,1.435
		c-0.69-1.321-1.352-2.66-1.984-4.016c-0.814-0.204-1.653-0.338-2.51-0.391C477.516,130.128,477.224,130.119,476.93,130.119z"/>
	<path fill="#FF4B00" d="M501.731,171.563h0.464c0.388-0.476,0.735-0.973,1.05-1.486
		C502.697,170.52,502.188,171.012,501.731,171.563z"/>
	<path fill="#FF4B00" d="M497.875,171.563h0.214c0.058-0.1,0.119-0.196,0.179-0.294
		C498.139,171.372,498.006,171.466,497.875,171.563z"/>
	<path fill="#FF4B00" d="M500.958,168.068c1.199-1.046,2.563-1.877,4.04-2.45c0.128-0.645,0.208-1.297,0.243-1.951
		c-1.084-0.948-2.151-1.917-3.194-2.91C502.55,163.221,502.188,165.822,500.958,168.068z"/>
	<path fill="#FF4B00" d="M480.859,162.638c0.064-2.526,0.997-4.895,2.643-6.771c0.218-0.248,0.446-0.489,0.688-0.72
		c0.793-0.754,1.687-1.367,2.644-1.84c1.458-0.721,3.069-1.108,4.733-1.108c0.966,0,1.905,0.138,2.81,0.382
		c-0.928-1.105-1.832-2.231-2.712-3.377c-0.033,0-0.064-0.005-0.097-0.005c-0.71,0-1.41,0.068-2.101,0.175
		c-1.572,0.243-3.079,0.752-4.466,1.512c-1.033,0.565-2.003,1.257-2.876,2.086c-0.143,0.136-0.27,0.284-0.406,0.425
		c-1.142,1.18-2.06,2.523-2.706,3.991c-0.709,1.61-1.105,3.28-1.152,5.094c-0.084,3.31,1.01,6.923,3.082,8.923h4.316
		c-0.515,0-1.005-0.718-1.456-1.191C481.832,168.138,480.787,165.499,480.859,162.638z"/>
	<path fill="#FF4B00" d="M504.752,159.179c-0.584-2.074-1.658-4.042-3.242-5.71c-1.53-1.61-3.379-2.784-5.407-3.492
		C498.785,153.23,501.677,156.301,504.752,159.179z"/>
	<path fill="#FF4B00" d="M517.638,166.96c-1.921-1.3-4.109-2.114-6.39-2.327c3.148,2.467,6.455,4.771,9.897,6.771h0.679
		C520.819,169.405,519.423,168.167,517.638,166.96z"/>
	<path fill="#FF4B00" d="M503.245,169.998c1.882-1.52,4.237-2.353,6.724-2.353c0.062,0,0.124,0.026,0.185,0.027
		c-1.115-0.857-2.213-1.727-3.292-2.63c-0.636,0.147-1.261,0.335-1.866,0.57c-1.477,0.573-2.841,1.406-4.04,2.452
		c-0.885,0.772-1.684,1.658-2.358,2.656c-0.12,0.178-0.221,0.285-0.332,0.468c-0.06,0.098-0.122,0.216-0.179,0.216h3.643
		C502.188,171.405,502.697,170.441,503.245,169.998z"/>
	<path fill="#FF4B00" d="M618.952,171.405h1.781c0.546,0,1.087-0.663,1.627-1.002C621.187,170.586,620.043,171.405,618.952,171.405z
		"/>
	<path fill="#FF4B00" d="M626.331,171.405h3.697c-0.795,0-1.627-0.629-2.483-0.826C627.142,170.856,626.738,171.405,626.331,171.405
		z"/>
	<path fill="#FF4B00" d="M652.03,159.208c0.622,0.865,1.375,1.644,2.249,2.305c0.257,0.194,0.521,0.374,0.791,0.544
		c-0.115-0.148-0.219-0.302-0.342-0.445C653.935,160.68,653.019,159.885,652.03,159.208z"/>
	<path fill="#FF4B00" d="M657.325,166.177c-1.541-0.396-2.998-1.106-4.332-2.026c1.562,2.176,2.197,5.254,1.948,7.254h3.017
		C658.095,169.405,657.885,167.9,657.325,166.177z"/>
	<path fill="#FF4B00" d="M644.29,156.794c-0.186,0-0.369,0.018-0.554,0.024c-1.277,1.358-2.588,2.685-3.938,3.97
		c1.399-0.647,2.931-0.994,4.492-0.994c2.03,0,3.985,0.579,5.667,1.629c-0.983-1.251-1.742-2.656-2.238-4.177
		C646.609,156.96,645.462,156.794,644.29,156.794z"/>
	<path fill="#FF4B00" d="M633.613,169.578c0.135-1.697,0.667-3.259,1.528-4.671c-1.432,1.203-2.895,2.391-4.393,3.514
		c-0.049,0.324-0.1,0.579-0.126,0.909c-0.058,0.722-0.043,1.075,0.011,2.075h3.004C633.576,171.405,633.562,170.219,633.613,169.578
		z"/>
	<path fill="#FF4B00" d="M632.846,162.961c1.785-1.485,3.517-3.033,5.19-4.64c-0.937,0.481-1.827,1.061-2.639,1.753
		C634.4,160.924,633.549,161.898,632.846,162.961z"/>
	<path fill="#FF4B00" d="M665.844,140.249c0.8,0.723,1.711,1.33,2.719,1.793c0.287,0.133,0.579,0.242,0.872,0.348
		c-0.139-0.114-0.269-0.236-0.413-0.346C668.033,141.294,666.965,140.7,665.844,140.249z"/>
	<path fill="#FF4B00" d="M649.552,145.079c0.127-0.176,0.257-0.349,0.383-0.524c-0.039,0.05-0.084,0.093-0.122,0.144
		C649.719,144.821,649.642,144.953,649.552,145.079z"/>
	<path fill="#FF4B00" d="M671.355,151.505c0.392,2.834-0.343,5.65-2.069,7.931c-2.045,2.702-5.162,4.251-8.553,4.251
		c-2.025,0-3.963-0.562-5.663-1.63c-0.27-0.17-0.534-0.35-0.791-0.544c-0.874-0.661-1.627-1.439-2.249-2.305
		c-1.002-1.396-1.658-3.02-1.9-4.77c-0.372-2.693,0.286-5.365,1.837-7.583c-1.56,2.156-3.203,4.248-4.926,6.27
		c0.008,0.573,0.038,1.148,0.117,1.725c0.114,0.823,0.309,1.622,0.561,2.396c0.496,1.521,1.255,2.926,2.238,4.177
		c0.723,0.918,1.556,1.758,2.512,2.481c0.171,0.13,0.349,0.245,0.524,0.365c1.334,0.92,2.791,1.591,4.332,1.986
		c1.102,0.282,2.243,0.431,3.408,0.431c4.339,0,8.328-1.982,10.945-5.44c2.21-2.92,3.15-6.525,2.648-10.152
		c-0.253-1.828-0.858-3.55-1.77-5.092c-1.611-0.056-3.18-0.395-4.68-1.009C669.775,146.684,671.003,148.962,671.355,151.505z"/>
	<path fill="#FF4B00" d="M660.753,142.26c1.228,0,2.422,0.211,3.553,0.61c-1.225-1.008-2.264-2.216-3.071-3.591
		c-0.161-0.006-0.32-0.02-0.481-0.02c-1.452,0-2.859,0.241-4.194,0.666c-1.334,2.208-2.749,4.36-4.243,6.452
		C654.36,143.763,657.422,142.26,660.753,142.26z"/>
	<path fill="#FF4B00" d="M678.291,122.986c2.216,1.241,3.905,3.202,4.795,5.61c0.992,2.684,0.881,5.592-0.314,8.19
		c-1.745,3.792-5.567,6.241-9.738,6.241c-1.234,0-2.439-0.221-3.599-0.639c-0.293-0.105-0.585-0.215-0.872-0.348
		c-1.008-0.463-1.919-1.07-2.719-1.793c-1.266-1.143-2.247-2.578-2.854-4.222c-0.992-2.683-0.879-5.592,0.32-8.191
		c1.742-3.789,5.562-6.238,9.732-6.238c0.441,0,0.879,0.034,1.312,0.088c-1.417-0.722-2.695-1.681-3.782-2.854
		c-1.838,0.34-3.574,1.047-5.107,2.065c-1.64,4.755-3.629,9.347-5.936,13.749c0.143,0.816,0.352,1.627,0.646,2.421
		c0.287,0.777,0.648,1.513,1.06,2.213c0.808,1.375,1.847,2.583,3.071,3.591c0.907,0.747,1.907,1.393,3.003,1.896
		c0.188,0.086,0.38,0.149,0.569,0.227c1.5,0.614,3.068,0.953,4.68,1.009c0.159,0.006,0.315,0.025,0.476,0.025
		c5.339,0,10.23-3.135,12.463-7.987c1.53-3.327,1.674-7.05,0.404-10.484c-0.639-1.727-1.597-3.275-2.813-4.583
		c-0.804,0.149-1.628,0.232-2.467,0.232C679.843,123.206,679.063,123.119,678.291,122.986z"/>
	<path fill="#FF4B00" d="M675.31,118.806c0.93,0.525,1.94,0.916,3.014,1.149c0.307,0.067,0.616,0.111,0.926,0.151
		c-0.16-0.081-0.312-0.173-0.477-0.248C677.657,119.345,676.496,119.006,675.31,118.806z"/>
	<path fill="#FF4B00" d="M683.523,96.094c-0.967-0.211-1.954-0.317-2.936-0.317c-0.429,0-0.854,0.024-1.275,0.063
		c-1.477,0.141-2.896,0.524-4.216,1.11c-1.914,0.849-3.61,2.127-4.96,3.722c-0.552,4.485-1.401,8.881-2.529,13.164
		c0.357,1.064,0.834,2.096,1.456,3.064c0.447,0.696,0.957,1.337,1.509,1.931c1.087,1.173,2.365,2.132,3.782,2.854
		c1.044,0.532,2.155,0.946,3.33,1.202c0.2,0.044,0.404,0.064,0.606,0.099c0.772,0.133,1.552,0.22,2.329,0.22
		c0.839,0,1.663-0.083,2.467-0.232c5.326-0.993,9.73-5.131,10.914-10.567c0.779-3.578,0.118-7.245-1.861-10.326
		c-0.946-1.475-2.146-2.723-3.526-3.716c-1.188-0.855-2.51-1.518-3.933-1.958C684.301,96.289,683.917,96.18,683.523,96.094z
		 M689.616,103.701c1.546,2.407,2.062,5.271,1.453,8.066c-1.064,4.89-5.459,8.438-10.449,8.438c-0.456,0-0.914-0.039-1.371-0.099
		c-0.31-0.04-0.619-0.084-0.926-0.151c-1.073-0.233-2.084-0.624-3.014-1.149c-1.492-0.845-2.769-2.043-3.722-3.526
		c-1.546-2.407-2.062-5.271-1.45-8.068c0.947-4.353,4.537-7.635,8.838-8.303c0.528-0.082,1.065-0.132,1.612-0.132
		c0.767,0,1.539,0.084,2.297,0.249c0.51,0.111,1.001,0.269,1.48,0.447C686.519,100.277,688.353,101.733,689.616,103.701z"/>
	<path fill="#FF4B00" d="M630.749,168.44c1.498-1.123,2.961-2.291,4.393-3.494c1.594-1.339,3.149-2.723,4.656-4.157
		c1.351-1.285,2.661-2.611,3.938-3.97c1.132-1.203,2.233-2.435,3.305-3.693c1.723-2.021,3.366-4.113,4.926-6.27
		c0.115-0.159,0.233-0.316,0.349-0.478c1.494-2.092,2.909-4.244,4.243-6.452c1.042-1.727,2.031-3.488,2.971-5.28
		c2.307-4.402,4.296-8.994,5.936-13.749c0.798-2.316,1.514-4.671,2.143-7.061c1.128-4.283,1.978-8.679,2.529-13.164
		c0.354-2.879,0.581-5.795,0.685-8.743c0.04-1.17,0.068-2.343,0.068-3.522c0-2.74-0.115-5.454-0.333-8.139
		c-0.291-3.591-0.774-7.128-1.437-10.603c-0.614-3.22-1.382-6.386-2.297-9.49c-1.195-4.05-2.64-7.994-4.317-11.814
		c-1.029-2.346-2.146-4.645-3.347-6.893c-2.335-4.37-4.982-8.548-7.917-12.502c-1.045-1.408-2.123-2.79-3.239-4.139
		c-3.655-4.423-7.686-8.524-12.037-12.26c-0.721-0.619-1.451-1.023-2.188-1.621c-2.05-1.662-4.165-3.54-6.344-4.54h-5.479
		c27.551,17,45.935,47.451,45.935,82.203c0,20.91-6.654,40.193-17.955,56.047c-0.126,0.176-0.256,0.299-0.383,0.475
		c-3.438,4.755-7.293,9.163-11.516,13.218c-1.674,1.606-3.405,3.142-5.19,4.627c-3.315,2.758-6.819,5.211-10.485,7.514
		c-0.54,0.339-1.081,0.917-1.627,0.917h5.598c0.407,0,0.811-0.47,1.214-0.747C628.627,169.911,629.698,169.228,630.749,168.44z"/>
	<path fill="#FF4B00" d="M504.752,159.179c-3.076-2.878-5.968-5.949-8.648-9.202c-1.955-2.372-3.801-4.838-5.527-7.391
		c-2.198-3.251-4.204-6.642-6.002-10.155c-1.543-3.015-2.927-6.122-4.153-9.308c-1.246-3.236-2.323-6.555-3.22-9.946
		c-1.005-3.801-1.783-7.692-2.322-11.66c-0.371-2.729-0.632-5.492-0.77-8.288c-0.079-1.598-0.12-3.205-0.12-4.822
		c0-3.286,0.166-6.534,0.487-9.737c0.161-1.608,0.362-3.003,0.601-4.587c4.32-28.631,21.208-53.678,44.846-67.678h-5.479
		c-0.862,0-1.714,0.997-2.557,1.616c-2.741,2.014-5.377,4.06-7.896,6.336c-3.014,2.724-5.863,5.576-8.527,8.644
		c-1.853,2.134-3.613,4.326-5.283,6.612c-2.73,3.738-5.208,7.658-7.407,11.762c-1.085,2.026-2.105,4.085-3.052,6.192
		c-2.111,4.695-3.865,9.581-5.238,14.625c-0.483,1.778-0.92,3.572-1.307,5.388c-0.431,2.025-0.802,4.072-1.107,6.14
		c-0.211,1.424-0.394,2.856-0.544,4.299c-0.214,2.062-0.359,4.144-0.445,6.241c-0.057,1.376-0.093,2.758-0.093,4.147
		c0,0.103,0.003,0.204,0.004,0.307c0.005,1.762,0.058,3.513,0.153,5.253c0.137,2.492,0.365,4.962,0.683,7.403
		c0.226,1.738,0.499,3.463,0.813,5.172c0.216,1.174,0.455,2.34,0.712,3.5c0.344,1.552,0.724,3.09,1.139,4.613
		c0.819,3.008,1.775,5.959,2.862,8.848c0.559,1.486,1.152,2.957,1.78,4.409c0.381,0.882,0.776,1.758,1.181,2.626
		c0.632,1.355,1.293,2.694,1.984,4.016c1.624,3.106,3.407,6.117,5.337,9.022c0.829,1.247,1.685,2.474,2.567,3.682
		c0.479,0.655,0.965,1.304,1.46,1.947c0.88,1.146,1.784,2.271,2.712,3.377c2.405,2.864,4.963,5.597,7.669,8.175
		c1.042,0.993,2.109,1.962,3.194,2.91c0.536,0.468,1.077,0.93,1.623,1.386c1.078,0.903,2.176,1.703,3.292,2.561
		c1.754,1.348,3.552,2.792,5.394,3.792h5.598c-3.443-2-6.749-4.265-9.897-6.732C509,162.911,506.835,161.128,504.752,159.179z"/>
</g>
<g>
	<g>
		<path fill="#FF4B00" d="M368.97,93.965c-6.65,0-12.061-5.41-12.061-12.061s5.41-12.061,12.061-12.061s12.061,5.41,12.061,12.061
			S375.62,93.965,368.97,93.965z M368.97,72.844c-4.996,0-9.061,4.064-9.061,9.061s4.064,9.061,9.061,9.061s9.061-4.064,9.061-9.061
			S373.966,72.844,368.97,72.844z"/>
	</g>
	<g>
		<path fill="#FF4B00" d="M368.97,99.585c-9.75,0-17.682-7.932-17.682-17.681s7.932-17.681,17.682-17.681
			c9.749,0,17.681,7.932,17.681,17.681S378.719,99.585,368.97,99.585z M368.97,67.224c-8.096,0-14.682,6.586-14.682,14.681
			s6.586,14.681,14.682,14.681c8.095,0,14.681-6.586,14.681-14.681S377.064,67.224,368.97,67.224z"/>
	</g>
	<g>
		<path fill="#FF4B00" d="M368.97,107.761c-14.259,0-25.859-11.6-25.859-25.856c0-14.258,11.601-25.857,25.859-25.857
			c14.258,0,25.857,11.6,25.857,25.857C394.827,96.162,383.228,107.761,368.97,107.761z M368.97,59.047
			c-12.604,0-22.859,10.254-22.859,22.857s10.255,22.856,22.859,22.856c12.604,0,22.857-10.253,22.857-22.856
			S381.573,59.047,368.97,59.047z"/>
	</g>
	<g>
		<path fill="#FF4B00" d="M368.97,59.047c-2.455,0-4.452-1.997-4.452-4.452c0-2.456,1.997-4.453,4.452-4.453
			c2.456,0,4.453,1.998,4.453,4.453C373.423,57.05,371.425,59.047,368.97,59.047z M368.97,53.142c-0.801,0-1.452,0.652-1.452,1.453
			c0,0.801,0.651,1.452,1.452,1.452c0.801,0,1.453-0.651,1.453-1.452C370.423,53.794,369.771,53.142,368.97,53.142z"/>
	</g>
	<g>
		<path fill="#FF4B00" d="M396.28,86.195c-2.443,0-4.441-1.986-4.453-4.427c-0.015-2.453,1.97-4.462,4.425-4.477
			c2.47,0,4.468,1.986,4.479,4.428c0.007,1.188-0.45,2.309-1.286,3.155c-0.836,0.846-1.951,1.315-3.139,1.321H396.28z
			 M396.277,80.291c-0.808,0.005-1.455,0.66-1.45,1.461c0.004,0.796,0.655,1.443,1.453,1.443v1.5l0.009-1.5
			c0.387-0.002,0.75-0.155,1.023-0.431c0.273-0.276,0.422-0.642,0.419-1.029C397.728,80.938,397.075,80.291,396.277,80.291z"/>
	</g>
	<g>
		<path fill="#FF4B00" d="M369.293,113.666c-2.429,0-4.426-1.975-4.452-4.401c-0.029-2.452,1.943-4.474,4.397-4.505
			c2.482,0,4.479,1.975,4.505,4.401c0.015,1.188-0.435,2.312-1.265,3.163c-0.831,0.851-1.943,1.327-3.133,1.342H369.293z
			 M369.291,107.759c-0.816,0.01-1.46,0.67-1.45,1.471c0.008,0.792,0.66,1.436,1.452,1.436v1.5l0.017-1.5
			c0.387-0.005,0.75-0.16,1.021-0.438c0.271-0.277,0.417-0.644,0.412-1.032C370.735,108.403,370.083,107.759,369.291,107.759z"/>
	</g>
	<g>
		<path fill="#FF4B00" d="M341.665,86.841c-2.412,0-4.409-1.961-4.453-4.372c-0.044-2.455,1.918-4.488,4.374-4.533
			c0,0,0.001,0,0.001,0c2.491,0,4.486,1.962,4.528,4.375c0.042,2.454-1.918,4.486-4.372,4.53H341.665z M341.667,80.937
			c-0.829,0.015-1.469,0.678-1.455,1.479c0.014,0.786,0.666,1.426,1.453,1.426v1.5l0.026-1.5c0.799-0.014,1.438-0.677,1.424-1.478
			C343.102,81.577,342.452,80.937,341.667,80.937z"/>
	</g>
	<g>
		<g>
			<path fill="#FF4B00" d="M354.274,161.125c-3.107,0-5.635-2.528-5.635-5.636c0-3.106,2.528-5.634,5.635-5.634
				s5.635,2.527,5.635,5.634C359.909,158.596,357.381,161.125,354.274,161.125z M354.274,152.855c-1.453,0-2.635,1.182-2.635,2.634
				c0,1.453,1.182,2.636,2.635,2.636s2.635-1.183,2.635-2.636C356.909,154.037,355.727,152.855,354.274,152.855z"/>
		</g>
		<g>
			<path fill="#FF4B00" d="M354.274,17.61c-3.107,0-5.635-2.528-5.635-5.636s2.528-5.636,5.635-5.636s5.635,2.528,5.635,5.636
				S357.381,17.61,354.274,17.61z M354.274,9.338c-1.453,0-2.635,1.183-2.635,2.636s1.182,2.636,2.635,2.636
				s2.635-1.183,2.635-2.636S355.727,9.338,354.274,9.338z"/>
		</g>
		<g>
			<path fill="#FF4B00" d="M354.274,152.855c-38.114,0-69.122-31.009-69.122-69.123S316.16,14.61,354.274,14.61v3
				c-36.46,0-66.122,29.662-66.122,66.122s29.662,66.123,66.122,66.123V152.855z"/>
		</g>
	</g>
	<g>
		<g>
			<path fill="#FF4B00" d="M355.455,137.437c-2.454,0-4.45-1.997-4.45-4.452s1.997-4.453,4.45-4.453
				c2.456,0,4.454,1.998,4.454,4.453S357.911,137.437,355.455,137.437z M355.455,131.532c-0.8,0-1.45,0.652-1.45,1.453
				s0.65,1.452,1.45,1.452c0.802,0,1.454-0.651,1.454-1.452S356.257,131.532,355.455,131.532z"/>
		</g>
		<g>
			<path fill="#FF4B00" d="M355.455,34.955c-2.454,0-4.45-1.997-4.45-4.452c0-2.456,1.997-4.453,4.45-4.453
				c2.456,0,4.454,1.998,4.454,4.453C359.909,32.958,357.911,34.955,355.455,34.955z M355.455,29.049c-0.8,0-1.45,0.652-1.45,1.453
				c0,0.801,0.65,1.452,1.45,1.452c0.802,0,1.454-0.651,1.454-1.452C356.909,29.701,356.257,29.049,355.455,29.049z"/>
		</g>
		<g>
			<path fill="#FF4B00" d="M355.455,131.532c-27.452,0-49.786-22.335-49.786-49.789c0-27.453,22.334-49.788,49.786-49.788v3
				c-25.798,0-46.786,20.989-46.786,46.788c0,25.8,20.988,46.789,46.786,46.789V131.532z"/>
		</g>
	</g>
	<g>
		<rect y="82.232" fill="#FF4B00" width="286.652" height="3"/>
	</g>
</g>
<g>
	<g>
		<path fill="#FF4B00" d="M774.302,98.582c-6.65,0-12.061-5.41-12.061-12.06c0-6.65,5.41-12.06,12.061-12.06
			s12.061,5.41,12.061,12.061C786.362,93.172,780.952,98.582,774.302,98.582z M774.302,77.462c-4.996,0-9.061,4.064-9.061,9.06
			c0,4.995,4.064,9.06,9.061,9.06s9.061-4.063,9.061-9.059C783.362,81.527,779.298,77.462,774.302,77.462z"/>
	</g>
	<g>
		<path fill="#FF4B00" d="M774.302,104.205c-9.749,0-17.681-7.933-17.681-17.683c0-9.749,7.932-17.68,17.681-17.68
			s17.681,7.932,17.681,17.681C791.982,96.273,784.051,104.205,774.302,104.205z M774.302,71.842
			c-8.095,0-14.681,6.585-14.681,14.68c0,8.096,6.586,14.683,14.681,14.683s14.681-6.586,14.681-14.682
			C788.982,78.428,782.396,71.842,774.302,71.842z"/>
	</g>
	<g>
		<path fill="#FF4B00" d="M774.302,112.379c-14.257,0-25.856-11.6-25.856-25.857c0-14.257,11.6-25.856,25.856-25.856
			c14.259,0,25.859,11.6,25.859,25.857C800.161,100.78,788.561,112.379,774.302,112.379z M774.302,63.666
			c-12.604,0-22.856,10.253-22.856,22.856c0,12.604,10.253,22.857,22.856,22.857c12.604,0,22.859-10.253,22.859-22.856
			S786.906,63.666,774.302,63.666z"/>
	</g>
	<g>
		<path fill="#FF4B00" d="M774.302,118.285c-2.455,0-4.453-1.997-4.453-4.451c0-2.456,1.998-4.454,4.453-4.454
			s4.453,1.998,4.453,4.454C778.755,116.288,776.757,118.285,774.302,118.285z M774.302,112.379c-0.801,0-1.453,0.652-1.453,1.454
			c0,0.8,0.652,1.451,1.453,1.451s1.453-0.651,1.453-1.451C775.755,113.032,775.103,112.379,774.302,112.379z"/>
	</g>
	<g>
		<path fill="#FF4B00" d="M746.992,91.136c-2.444,0-4.44-1.987-4.451-4.43c-0.007-1.186,0.449-2.306,1.285-3.152
			c0.837-0.846,1.951-1.316,3.14-1.322c2.467,0,4.465,1.985,4.479,4.426c0.014,2.455-1.972,4.464-4.426,4.479H746.992z
			 M746.992,85.232c-0.396,0.002-0.759,0.155-1.031,0.431c-0.273,0.276-0.422,0.642-0.42,1.029c0.003,0.798,0.654,1.444,1.452,1.444
			v1.5l0.009-1.5c0.8-0.005,1.447-0.66,1.443-1.462C748.44,85.879,747.788,85.232,746.992,85.232z"/>
	</g>
	<g>
		<path fill="#FF4B00" d="M773.981,63.667c-2.429,0-4.427-1.974-4.454-4.401c-0.027-2.454,1.945-4.475,4.399-4.505
			c2.48,0,4.478,1.974,4.505,4.401c0.027,2.453-1.944,4.475-4.397,4.505H773.981z M773.979,57.761
			c-0.816,0.01-1.461,0.67-1.452,1.471c0.009,0.792,0.661,1.435,1.454,1.435v1.5l0.018-1.5c0.798-0.01,1.441-0.67,1.433-1.471
			C775.423,58.405,774.771,57.761,773.979,57.761z"/>
	</g>
	<g>
		<path fill="#FF4B00" d="M801.604,90.491c-2.412-0.001-4.407-1.963-4.448-4.375c-0.042-2.452,1.919-4.484,4.371-4.529
			c0.001,0,0.002,0,0.002,0c2.489,0,4.486,1.961,4.531,4.372c0.02,1.191-0.424,2.316-1.25,3.172s-1.937,1.339-3.125,1.359
			L801.604,90.491z M801.606,84.585c-0.824,0.015-1.464,0.679-1.45,1.479c0.013,0.787,0.663,1.425,1.448,1.426v1.5l0.027-1.501
			c0.803-0.014,1.442-0.677,1.429-1.479C803.046,85.226,802.394,84.585,801.606,84.585z"/>
	</g>
	<g>
		<g>
			<path fill="#FF4B00" d="M788.998,18.573c-3.107,0-5.636-2.528-5.636-5.635c0-3.107,2.528-5.636,5.636-5.636
				c3.105,0,5.633,2.528,5.633,5.636C794.631,16.045,792.104,18.573,788.998,18.573z M788.998,10.302
				c-1.453,0-2.636,1.183-2.636,2.636c0,1.453,1.183,2.635,2.636,2.635c1.452,0,2.633-1.182,2.633-2.635
				C791.631,11.485,790.45,10.302,788.998,10.302z"/>
		</g>
		<g>
			<path fill="#FF4B00" d="M788.998,162.088c-3.107,0-5.636-2.528-5.636-5.636s2.528-5.635,5.636-5.635
				c3.105,0,5.633,2.527,5.633,5.635S792.104,162.088,788.998,162.088z M788.998,153.818c-1.453,0-2.636,1.182-2.636,2.635
				s1.183,2.636,2.636,2.636c1.452,0,2.633-1.183,2.633-2.636S790.45,153.818,788.998,153.818z"/>
		</g>
		<g>
			<path fill="#FF4B00" d="M788.998,153.818v-3c36.46,0,66.122-29.662,66.122-66.121c0-36.461-29.662-66.124-66.122-66.124v-3
				c38.114,0,69.122,31.009,69.122,69.124C858.12,122.81,827.112,153.818,788.998,153.818z"/>
		</g>
	</g>
	<g>
		<g>
			<path fill="#FF4B00" d="M787.816,39.895c-2.456,0-4.454-1.998-4.454-4.453c0-2.455,1.998-4.451,4.454-4.451
				c2.454,0,4.45,1.997,4.45,4.451C792.267,37.897,790.271,39.895,787.816,39.895z M787.816,33.991
				c-0.802,0-1.454,0.651-1.454,1.451c0,0.801,0.652,1.453,1.454,1.453c0.8,0,1.45-0.652,1.45-1.453
				C789.267,34.642,788.616,33.991,787.816,33.991z"/>
		</g>
		<g>
			<path fill="#FF4B00" d="M787.816,142.377c-2.456,0-4.454-1.998-4.454-4.453s1.998-4.452,4.454-4.452
				c2.454,0,4.45,1.997,4.45,4.452S790.271,142.377,787.816,142.377z M787.816,136.472c-0.802,0-1.454,0.651-1.454,1.452
				s0.652,1.453,1.454,1.453c0.8,0,1.45-0.652,1.45-1.453S788.616,136.472,787.816,136.472z"/>
		</g>
		<g>
			<path fill="#FF4B00" d="M787.816,136.472v-3c25.799,0,46.787-20.989,46.787-46.788c0-25.8-20.988-46.789-46.787-46.789v-3
				c27.453,0,49.787,22.335,49.787,49.789C837.604,114.137,815.27,136.472,787.816,136.472z"/>
		</g>
	</g>
	<g>
		<rect x="856.62" y="83.197" fill="#FF4B00" width="286.652" height="3"/>
	</g>
</g>
</svg>
